<svg width="84" height="83" viewBox="0 0 84 83" fill="none" xmlns="http://www.w3.org/2000/svg">
<path d="M27.1384 35.8976C27.1384 36.7622 27.2076 37.4538 27.3805 38.0418C27.5534 38.4568 27.7955 39.0101 28.1068 39.6326C28.2451 39.7709 28.2797 39.9784 28.2797 40.1513C28.2797 40.3934 28.1414 40.6009 27.8301 40.843L26.3776 41.8113C26.1701 41.9497 25.9626 42.0188 25.7897 42.0188C25.5476 42.0188 25.3401 41.8805 25.098 41.673C24.7868 41.3272 24.5101 40.9813 24.268 40.6009C24.0605 40.2205 23.8184 39.7709 23.5764 39.2522C21.778 41.3618 19.5301 42.4338 16.798 42.4338C14.8614 42.4338 13.3397 41.8805 12.1984 40.7738C11.0918 39.6672 10.5039 38.1801 10.5039 36.3126C10.5039 34.4105 11.1955 32.8543 12.5789 31.6093C13.9968 30.4334 15.8643 29.8109 18.2159 29.8109C19.0114 29.8109 19.7376 29.8801 20.6714 30.0184C21.4668 30.1222 22.4005 30.2951 23.2997 30.5026V28.8426C23.2997 27.0788 22.9539 25.9376 22.2276 25.1422C21.4668 24.4159 20.2564 24.1047 18.4926 24.1047C17.6626 24.1047 16.8326 24.2084 16.0026 24.3813C15.138 24.5888 14.308 24.8309 13.5126 25.1768C13.1322 25.3151 12.8209 25.4188 12.7172 25.4534C12.5443 25.5226 12.4405 25.5226 12.3368 25.5226C12.0255 25.5226 11.8526 25.3151 11.8526 24.8309V23.6897C11.8526 23.3438 11.8872 23.0672 12.0255 22.8943C12.1293 22.7213 12.3368 22.583 12.648 22.4793C13.478 21.9951 14.4118 21.6493 15.553 21.3726C16.727 21.0656 17.9363 20.9145 19.1497 20.923C21.8818 20.923 23.8876 21.5455 25.1672 22.7905C26.4468 24.0355 27.0693 25.9376 27.0693 28.4622V35.8976H27.1384ZM17.8009 39.4251C18.5618 39.4251 19.3226 39.2868 20.1526 39.0101C20.9826 38.7334 21.7089 38.2147 22.3314 37.523C22.7118 37.0734 22.9884 36.5893 23.1959 36.0359C23.1959 35.4826 23.3689 34.8255 23.3689 34.0301V33.0963C22.6772 32.8543 21.9855 32.8543 21.2247 32.6813C20.5124 32.6035 19.7969 32.5574 19.0805 32.543C17.5243 32.543 16.4176 32.8543 15.6568 33.4768C14.8959 34.0993 14.5501 34.9638 14.5501 36.1051C14.5501 37.2118 14.7922 38.0418 15.3801 38.5605C15.9334 39.1484 16.7289 39.4251 17.8009 39.4251ZM36.2684 41.8805C35.9336 41.8905 35.6014 41.8193 35.3001 41.673C35.1964 41.5001 35.0234 41.1888 34.8851 40.7738L29.4901 22.998C29.3518 22.4793 29.2826 22.2372 29.2826 22.0643C29.2826 21.6838 29.4555 21.4763 29.8359 21.4763H32.0839C32.5334 21.4763 32.8447 21.5455 32.983 21.7184C33.1905 21.8568 33.3289 22.168 33.4672 22.6176L37.3059 37.8343L40.9026 22.6176C41.0064 22.168 41.1447 21.8568 41.3522 21.7184C41.5251 21.5801 41.8364 21.4763 42.2168 21.4763H44.1189C44.5339 21.4763 44.8451 21.5455 45.018 21.7184C45.1909 21.8568 45.3639 22.168 45.4676 22.6176L49.1334 38.0418L53.0759 22.6176C53.2143 22.168 53.3872 21.8568 53.5255 21.7184C53.733 21.5801 54.0097 21.4763 54.4247 21.4763H56.5689C56.9493 21.4763 57.1568 21.6838 57.1568 22.0643C57.1568 22.168 57.1222 22.3063 57.0876 22.4793C57.0876 22.4793 57.0184 22.7559 56.9493 22.998L51.3814 40.7738C51.243 41.258 51.1047 41.5001 50.8626 41.673C50.7243 41.8113 50.413 41.9151 50.0326 41.9151H48.0614C47.6118 41.9151 47.4043 41.8459 47.1276 41.673C46.8951 41.4265 46.7493 41.1108 46.7126 40.7738L43.1505 25.9376L39.5884 40.7393C39.4847 41.1888 39.3464 41.5001 39.1734 41.673C38.8879 41.8286 38.5643 41.9005 38.2397 41.8805H36.2684ZM65.8372 42.503C64.6959 42.503 63.4164 42.3647 62.2751 42.088C61.1339 41.8113 60.2347 41.5001 59.6468 41.1888C59.3464 41.0444 59.0942 40.8162 58.9205 40.5318C58.8266 40.3379 58.7792 40.1247 58.7822 39.9093V38.7334C58.7822 38.2493 58.9551 38.0418 59.3009 38.0418H59.7159C59.8543 38.0418 60.0618 38.2147 60.3039 38.3184C61.0647 38.6643 61.9293 38.9409 62.8284 39.1138C63.7622 39.2868 64.6959 39.3905 65.5605 39.3905C67.013 39.3905 68.1543 39.1484 68.9151 38.6297C69.7105 38.0418 70.1255 37.3847 70.1255 36.4509C70.1255 35.7938 69.8834 35.2751 69.503 34.8255C69.088 34.4105 68.2926 33.9955 67.1859 33.6497L63.8314 32.6122C62.1714 32.0588 60.9264 31.298 60.1655 30.2605C59.423 29.3001 59.0215 28.1199 59.0243 26.9059C59.0243 25.9376 59.2318 25.1076 59.6468 24.3813C60.0618 23.6205 60.6151 22.998 61.2376 22.4793C61.9984 21.9605 62.7593 21.5801 63.693 21.3034C64.5922 21.0268 65.5605 20.8884 66.598 20.8884C67.0822 20.8884 67.6009 20.923 68.1543 20.9922C68.6384 21.0613 69.1226 21.1651 69.6068 21.2343C70.0909 21.3726 70.5059 21.4763 70.9209 21.6147C71.3359 21.753 71.6126 21.8913 71.8893 22.0297C72.2005 22.2026 72.4426 22.3755 72.5809 22.583C72.7193 22.7905 72.7884 23.0326 72.7884 23.3438V24.4505C72.7884 24.9347 72.6155 25.1768 72.2697 25.1768C72.0968 25.1768 71.7855 25.073 71.3705 24.9001C70.0909 24.3122 68.6039 24.0009 66.9784 24.0009C65.6643 24.0009 64.6959 24.2084 63.9005 24.658C63.2089 25.073 62.8284 25.7647 62.8284 26.6984C62.8284 27.3555 63.0705 27.9088 63.5201 28.3238C63.9697 28.7734 64.8343 29.1884 66.0447 29.6034L69.3301 30.6409C70.9901 31.1251 72.1659 31.8859 72.8922 32.8543C73.5839 33.788 73.9297 34.8601 73.9297 36.0705C73.9297 37.0388 73.7222 37.938 73.3418 38.7334C72.9268 39.4943 72.3734 40.1859 71.6126 40.7393C70.9555 41.3272 70.0909 41.7422 69.1226 42.0534C68.1543 42.3647 66.9784 42.503 65.8372 42.503ZM70.1601 53.708C62.5864 59.2759 51.5889 62.2501 42.2168 62.2501C28.9022 62.2501 16.9709 57.3393 7.94469 49.2122C7.21844 48.5551 7.87552 47.6905 8.7401 48.2093C18.4926 53.8463 30.493 57.2701 42.943 57.2701C51.3468 57.2701 60.5805 55.5409 69.0534 51.8751C70.333 51.3563 71.4051 52.7743 70.1601 53.708ZM73.3418 50.1459C72.3389 48.8663 66.9093 49.5234 64.4539 49.8001C63.7276 49.9038 63.6239 49.2468 64.2809 48.7626C68.6039 45.7538 75.728 46.6876 76.5234 47.6213C77.3534 48.6588 76.3159 55.783 72.2697 59.1722C71.6126 59.6909 71.0247 59.4143 71.3014 58.7918C72.2351 56.4401 74.2755 51.3218 73.3418 50.1459Z" fill="#0E0E0E"/>
</svg>
