<svg width="85" height="87" viewBox="0 0 85 87" fill="none" xmlns="http://www.w3.org/2000/svg">
<path d="M64.9418 51.735C60.8409 56.1589 55.5201 59.2673 49.6525 60.6673C43.7848 62.0672 37.6338 61.6958 31.9773 59.5999C26.3208 57.5041 21.4128 53.7779 17.8739 48.8926C14.3351 44.0074 12.3244 38.1825 12.0961 32.1545C11.8677 26.1264 13.4321 20.1661 16.5912 15.0271C19.7503 9.88819 24.3624 5.80143 29.8442 3.28366C35.3259 0.76589 41.4312 -0.0698011 47.3879 0.882262C53.3447 1.83433 58.8853 4.53138 63.3092 8.63237L60.0488 12.1495C56.3205 8.69332 51.6511 6.42035 46.631 5.61799C41.6109 4.81563 36.4657 5.51992 31.8458 7.64179C27.226 9.76366 23.3392 13.2078 20.6768 17.5387C18.0144 21.8696 16.696 26.8928 16.8885 31.9729C17.0809 37.0531 18.7754 41.9621 21.7578 46.0792C24.7402 50.1963 28.8765 53.3365 33.6436 55.1029C38.4107 56.8692 43.5945 57.1822 48.5395 56.0024C53.4845 54.8226 57.9686 52.2029 61.4247 48.4746L64.9418 51.735Z" fill="#0E0E0E"/>
<path d="M53.5514 40.499V34.499H50.0514V44.999V30.999H46.0514V36.499V25.999H41.0514V32.499H37.0514V40.499C28.5514 32.499 32.5514 19.499 45.0514 20.499C47.7337 20.8338 48.6732 21.2192 50.0514 22.499L54.5514 15.999C44.2085 9.37054 34.5915 10.9998 29.0742 17C24.0763 21.0001 19.7133 38.0001 31.5563 46.5001C37.4583 50.7362 45.5735 51.0001 50.0514 48.499L56.0735 45.5001L60.5514 49.499" stroke="#0E0E0E" stroke-width="2"/>
<rect x="39.0742" y="35.5" width="2" height="2" fill="#0E0E0E"/>
<rect x="39.0742" y="38.5" width="2" height="2" fill="#0E0E0E"/>
<rect x="45.0742" y="38.5" width="2" height="2" fill="#0E0E0E"/>
<path d="M8.09822 81.716C7.12622 81.716 6.22022 81.56 5.38022 81.248C4.55222 80.924 3.83222 80.468 3.22022 79.88C2.60822 79.292 2.12822 78.602 1.78022 77.81C1.44422 77.018 1.27622 76.148 1.27622 75.2C1.27622 74.252 1.44422 73.382 1.78022 72.59C2.12822 71.798 2.60822 71.108 3.22022 70.52C3.84422 69.932 4.57022 69.482 5.39822 69.17C6.22622 68.846 7.13222 68.684 8.11622 68.684C9.20822 68.684 10.1922 68.876 11.0682 69.26C11.9562 69.632 12.7002 70.184 13.3002 70.916L11.4282 72.644C10.9962 72.152 10.5162 71.786 9.98822 71.546C9.46022 71.294 8.88422 71.168 8.26022 71.168C7.67222 71.168 7.13222 71.264 6.64022 71.456C6.14822 71.648 5.72222 71.924 5.36222 72.284C5.00222 72.644 4.72022 73.07 4.51622 73.562C4.32422 74.054 4.22822 74.6 4.22822 75.2C4.22822 75.8 4.32422 76.346 4.51622 76.838C4.72022 77.33 5.00222 77.756 5.36222 78.116C5.72222 78.476 6.14822 78.752 6.64022 78.944C7.13222 79.136 7.67222 79.232 8.26022 79.232C8.88422 79.232 9.46022 79.112 9.98822 78.872C10.5162 78.62 10.9962 78.242 11.4282 77.738L13.3002 79.466C12.7002 80.198 11.9562 80.756 11.0682 81.14C10.1922 81.524 9.20222 81.716 8.09822 81.716ZM15.0714 81.5V71.816H17.8794V81.5H15.0714ZM16.4754 70.466C15.9594 70.466 15.5394 70.316 15.2154 70.016C14.8914 69.716 14.7294 69.344 14.7294 68.9C14.7294 68.456 14.8914 68.084 15.2154 67.784C15.5394 67.484 15.9594 67.334 16.4754 67.334C16.9914 67.334 17.4114 67.478 17.7354 67.766C18.0594 68.042 18.2214 68.402 18.2214 68.846C18.2214 69.314 18.0594 69.704 17.7354 70.016C17.4234 70.316 17.0034 70.466 16.4754 70.466ZM24.4455 81.644C23.3055 81.644 22.4175 81.356 21.7815 80.78C21.1455 80.192 20.8275 79.322 20.8275 78.17V69.674H23.6355V78.134C23.6355 78.542 23.7435 78.86 23.9595 79.088C24.1755 79.304 24.4695 79.412 24.8415 79.412C25.2855 79.412 25.6635 79.292 25.9755 79.052L26.7315 81.032C26.4435 81.236 26.0955 81.392 25.6875 81.5C25.2915 81.596 24.8775 81.644 24.4455 81.644ZM19.3335 74.192V72.032H26.0475V74.192H19.3335ZM28.3077 81.5V71.816H31.1157V81.5H28.3077ZM29.7117 70.466C29.1957 70.466 28.7757 70.316 28.4517 70.016C28.1277 69.716 27.9657 69.344 27.9657 68.9C27.9657 68.456 28.1277 68.084 28.4517 67.784C28.7757 67.484 29.1957 67.334 29.7117 67.334C30.2277 67.334 30.6477 67.478 30.9717 67.766C31.2957 68.042 31.4577 68.402 31.4577 68.846C31.4577 69.314 31.2957 69.704 30.9717 70.016C30.6597 70.316 30.2397 70.466 29.7117 70.466ZM33.7218 81.5V68.144H36.5298V81.5H33.7218ZM39.1358 81.5V71.816H41.9438V81.5H39.1358ZM40.5398 70.466C40.0238 70.466 39.6038 70.316 39.2798 70.016C38.9558 69.716 38.7938 69.344 38.7938 68.9C38.7938 68.456 38.9558 68.084 39.2798 67.784C39.6038 67.484 40.0238 67.334 40.5398 67.334C41.0558 67.334 41.4758 67.478 41.7998 67.766C42.1238 68.042 42.2858 68.402 42.2858 68.846C42.2858 69.314 42.1238 69.704 41.7998 70.016C41.4878 70.316 41.0678 70.466 40.5398 70.466ZM47.1779 81.5L43.1099 71.816H46.0079L49.3919 80.15H47.9519L51.4619 71.816H54.1619L50.0759 81.5H47.1779ZM55.3077 81.5V71.816H58.1157V81.5H55.3077ZM56.7117 70.466C56.1957 70.466 55.7757 70.316 55.4517 70.016C55.1277 69.716 54.9657 69.344 54.9657 68.9C54.9657 68.456 55.1277 68.084 55.4517 67.784C55.7757 67.484 56.1957 67.334 56.7117 67.334C57.2277 67.334 57.6477 67.478 57.9717 67.766C58.2957 68.042 58.4577 68.402 58.4577 68.846C58.4577 69.314 58.2957 69.704 57.9717 70.016C57.6597 70.316 57.2397 70.466 56.7117 70.466ZM66.6078 71.672C67.3758 71.672 68.0598 71.828 68.6598 72.14C69.2718 72.44 69.7518 72.908 70.0998 73.544C70.4478 74.168 70.6218 74.972 70.6218 75.956V81.5H67.8138V76.388C67.8138 75.608 67.6398 75.032 67.2918 74.66C66.9558 74.288 66.4758 74.102 65.8518 74.102C65.4078 74.102 65.0058 74.198 64.6458 74.39C64.2978 74.57 64.0218 74.852 63.8178 75.236C63.6258 75.62 63.5298 76.112 63.5298 76.712V81.5H60.7218V71.816H63.4038V74.498L62.8998 73.688C63.2478 73.04 63.7458 72.542 64.3938 72.194C65.0418 71.846 65.7798 71.672 66.6078 71.672ZM77.7914 85.136C76.8794 85.136 75.9974 85.022 75.1454 84.794C74.3054 84.578 73.6034 84.248 73.0394 83.804L74.1554 81.788C74.5634 82.124 75.0794 82.388 75.7034 82.58C76.3394 82.784 76.9634 82.886 77.5754 82.886C78.5714 82.886 79.2914 82.664 79.7354 82.22C80.1914 81.776 80.4194 81.116 80.4194 80.24V78.782L80.5994 76.352L80.5634 73.904V71.816H83.2274V79.88C83.2274 81.68 82.7594 83.006 81.8234 83.858C80.8874 84.71 79.5434 85.136 77.7914 85.136ZM77.3594 81.032C76.4594 81.032 75.6434 80.84 74.9114 80.456C74.1914 80.06 73.6094 79.514 73.1654 78.818C72.7334 78.11 72.5174 77.288 72.5174 76.352C72.5174 75.404 72.7334 74.582 73.1654 73.886C73.6094 73.178 74.1914 72.632 74.9114 72.248C75.6434 71.864 76.4594 71.672 77.3594 71.672C78.1754 71.672 78.8954 71.84 79.5194 72.176C80.1434 72.5 80.6294 73.01 80.9774 73.706C81.3254 74.39 81.4994 75.272 81.4994 76.352C81.4994 77.42 81.3254 78.302 80.9774 78.998C80.6294 79.682 80.1434 80.192 79.5194 80.528C78.8954 80.864 78.1754 81.032 77.3594 81.032ZM77.9174 78.728C78.4094 78.728 78.8474 78.632 79.2314 78.44C79.6154 78.236 79.9154 77.954 80.1314 77.594C80.3474 77.234 80.4554 76.82 80.4554 76.352C80.4554 75.872 80.3474 75.458 80.1314 75.11C79.9154 74.75 79.6154 74.474 79.2314 74.282C78.8474 74.078 78.4094 73.976 77.9174 73.976C77.4254 73.976 76.9874 74.078 76.6034 74.282C76.2194 74.474 75.9134 74.75 75.6854 75.11C75.4694 75.458 75.3614 75.872 75.3614 76.352C75.3614 76.82 75.4694 77.234 75.6854 77.594C75.9134 77.954 76.2194 78.236 76.6034 78.44C76.9874 78.632 77.4254 78.728 77.9174 78.728Z" fill="#0E0E0E"/>
</svg>
