<svg width="157" height="37" viewBox="0 0 157 37" fill="none" xmlns="http://www.w3.org/2000/svg">
<g clip-path="url(#clip0_1145_1898)">
<path d="M149.499 22.3595C151.243 22.7475 152.503 23.9595 153.076 25.7997C153.268 26.4131 153.313 26.742 153.32 27.5771C153.327 28.1683 153.279 28.8186 153.209 29.1142C152.596 31.7009 150.526 33.2935 148.047 33.0902C146.007 32.924 144.455 31.6233 143.812 29.5429C143.624 28.9295 143.58 28.6043 143.572 27.7655C143.561 26.0103 144.005 24.7687 145.028 23.6897C146.185 22.474 147.818 21.99 149.503 22.3632L149.499 22.3595ZM119.897 22.3595C120.973 22.6514 121.907 23.3572 122.499 24.329C122.82 24.85 122.964 25.2971 122.816 25.2971C122.765 25.2971 120.777 25.6962 118.397 26.1877C116.017 26.6754 114.048 27.0523 114.018 27.0228C113.989 26.9932 114.029 26.6348 114.111 26.232C114.491 24.2958 115.744 22.8657 117.488 22.3743C118.113 22.1969 119.265 22.1969 119.897 22.3669V22.3595ZM73.5267 22.3595C74.469 22.5664 75.2154 22.9914 75.8805 23.7008C76.8597 24.7429 77.3216 26.0066 77.3253 27.6694C77.329 29.3286 76.8634 30.6182 75.8879 31.638C75.2893 32.2662 74.7978 32.584 73.9258 32.8944C73.1941 33.1568 71.5978 33.1346 70.8144 32.8464C69.3659 32.318 68.3535 31.2242 67.8214 29.6057C67.6107 28.9701 67.5812 28.7299 67.5775 27.7138C67.5701 25.9697 67.9692 24.8316 68.9632 23.7452C70.1161 22.4851 71.7973 21.9752 73.523 22.3595H73.5267ZM38.2379 22.4038C39.1875 22.6588 39.8748 23.069 40.5104 23.76C42.4541 25.881 42.3802 29.735 40.3589 31.7304C39.328 32.7466 38.1455 33.1826 36.6933 33.0865C35.4 33.0016 34.454 32.5581 33.5746 31.638C32.5917 30.6034 32.1335 29.3433 32.1372 27.6694C32.1409 26.0103 32.5954 24.7466 33.5709 23.7156C34.7829 22.4297 36.5196 21.9419 38.2416 22.4038H38.2379ZM47.1987 24.7576C47.2319 31.6565 47.1987 31.2833 47.9931 33.0163C48.3663 33.833 48.5474 34.099 49.1275 34.7087C49.7077 35.3147 49.9626 35.5032 50.7423 35.8949C52.1058 36.5822 52.6934 36.7041 54.5114 36.6967C55.8897 36.6893 56.0929 36.6672 56.8061 36.4381C57.5968 36.1831 58.31 35.8505 58.7571 35.5217L59.001 35.3406V35.9983V36.6561H60.7784H62.5557V27.6694V18.6791H60.7858H59.0158L58.9788 23.9669C58.9456 28.6597 58.9234 29.3138 58.7867 29.8126C58.1437 32.1221 56.5252 33.2676 54.1603 33.0902C52.4716 32.9646 51.4924 32.1997 50.9825 30.6034C50.794 30.0122 50.7903 29.8607 50.7571 24.3401L50.7275 18.6828H48.9502H47.1728L47.2023 24.7613L47.1987 24.7576ZM146.824 18.7198C145.054 19.0745 143.72 19.7766 142.497 21.0034C141.233 22.2708 140.424 23.8449 140.029 25.8071C139.884 26.5276 139.884 28.8112 140.029 29.5318C140.745 33.105 142.918 35.5623 146.174 36.4824C146.82 36.6672 147.142 36.6967 148.439 36.6967C149.736 36.6967 150.057 36.6672 150.704 36.4824C152.932 35.8505 154.702 34.4722 155.799 32.5027C156.978 30.3928 157.311 27.5438 156.675 25.057C155.884 21.9752 153.612 19.6214 150.696 18.8565C149.732 18.6052 147.74 18.5313 146.828 18.7124L146.824 18.7198ZM117.1 18.7271C114.543 19.2371 112.466 20.8777 111.306 23.3128C110.434 25.1383 110.153 27.6362 110.582 29.7498C111.487 34.2099 115.09 36.9628 119.716 36.7263C121.069 36.6561 122.07 36.4048 123.116 35.8764C124.368 35.2371 124.963 34.7124 126.157 33.2048C126.264 33.0718 126.142 32.8907 125.159 31.7156C124.546 30.9803 124.014 30.3706 123.977 30.3595C123.94 30.3484 123.67 30.6514 123.378 31.032C122.768 31.8228 122.244 32.2736 121.534 32.6136C119.919 33.3859 117.651 33.2344 116.195 32.2514C115.685 31.9078 114.983 31.1577 114.776 30.7364L114.639 30.463L120.74 29.2214C124.095 28.5378 126.855 27.9687 126.87 27.954C126.948 27.8875 126.689 25.5558 126.541 24.9794C125.765 21.9124 123.674 19.6694 120.843 18.8676C119.953 18.6163 118.05 18.5498 117.096 18.7382L117.1 18.7271ZM35.5367 18.6902C34.709 18.8195 33.3566 19.3295 32.5547 19.8061C31.7455 20.2902 30.6222 21.3581 30.0642 22.1821C27.9321 25.3156 27.9358 30.0196 30.0716 33.1678C30.5113 33.8145 31.4794 34.8122 32.1002 35.2556C32.769 35.7323 33.9256 36.2681 34.794 36.4935C35.9173 36.7891 38.2637 36.7891 39.3169 36.4898C41.885 35.7581 43.9432 33.8773 44.915 31.3683C45.3917 30.1341 45.5284 29.2953 45.5247 27.6251C45.521 26.2838 45.4915 25.9734 45.2956 25.2011C44.4753 21.9715 42.2582 19.6435 39.2614 18.8639C38.3931 18.6385 36.4494 18.5461 35.5404 18.6902H35.5367ZM93.5914 17.0976C94.6778 17.2047 95.7346 17.5225 96.3221 17.9142C96.821 18.2468 97.4048 18.9082 97.6561 19.4255C98.0736 20.2865 98.2067 21.6944 97.9665 22.7549C97.5896 24.4362 96.6104 25.3858 94.7443 25.8699C94.0275 26.0583 93.7429 26.0731 90.99 26.0768L88.0117 26.0805L87.9896 21.6574C87.9785 19.226 87.9859 17.1789 88.008 17.1161C88.0635 16.9682 92.1614 16.9535 93.5914 17.0939V17.0976ZM84.324 25.0126V36.6561H86.1457H87.9674V33.2085V29.7609H90.8681C94.0422 29.7609 95.051 29.6648 96.3591 29.2325C99.2598 28.2754 101.052 26.2616 101.617 23.3276C101.824 22.2597 101.754 20.1424 101.481 19.1447C100.612 15.9816 98.0441 13.9456 94.3268 13.4689C93.839 13.4061 91.7217 13.3655 88.9281 13.3655H84.3276V25.0089L84.324 25.0126ZM11.278 13.2398C5.95325 13.7091 1.96986 17.286 0.924131 22.5442C0.842838 22.9544 0.754154 23.8191 0.728287 24.4657C0.639604 26.6237 0.986949 28.4269 1.85162 30.2745C3.19296 33.1457 5.36941 35.1263 8.28489 36.1424C9.7334 36.645 10.757 36.7817 12.6415 36.7263C14.0013 36.6856 14.3967 36.6376 15.1653 36.4307C17.2789 35.8542 18.8568 34.8935 20.2794 33.323C20.6969 32.8574 20.7782 32.7207 20.708 32.5877C20.66 32.4953 20.1205 31.9004 19.5108 31.2648L18.3986 30.1082L17.7667 30.7327C16.9759 31.5124 16.5436 31.845 15.8119 32.233C13.1034 33.6704 9.54864 33.2602 7.11722 31.2316C5.97542 30.2782 5.01837 28.7078 4.60082 27.1041C4.32368 26.0399 4.32368 23.978 4.59712 22.9175C5.32876 20.087 7.3611 17.9844 10.1066 17.2121C10.8567 17.0015 11.1413 16.9682 12.3015 16.9719C13.3842 16.9756 13.7685 17.0126 14.345 17.1752C15.7048 17.5595 16.7912 18.2357 17.8073 19.3221C18.0992 19.6325 18.3616 19.8911 18.3875 19.8911C18.4133 19.8911 18.9713 19.2999 19.6253 18.5793L20.8115 17.2676L20.0651 16.4768C19.6549 16.0408 19.0748 15.5013 18.7792 15.2759C17.6226 14.4038 15.9819 13.7017 14.4521 13.4246C13.6651 13.2842 11.932 13.1844 11.2743 13.2398H11.278ZM103.432 22.2412C103.435 33.4413 103.413 33.0016 103.982 34.2173C104.341 34.9859 105.109 35.7988 105.819 36.172C107.119 36.8519 108.904 36.9406 110.397 36.3937C110.833 36.2348 111.203 36.087 111.225 36.0648C111.276 36.0094 110.97 32.5249 110.907 32.451C110.877 32.4177 110.452 32.5618 109.965 32.7688C108.52 33.3822 107.663 33.2787 107.234 32.4399L107.031 32.0445L107.005 22.0528L106.979 12.0611H105.205H103.432V22.2375V22.2412ZM77.3918 16.1627C77.3918 18.4167 77.3733 20.2606 77.3512 20.2606C77.329 20.2606 77.1332 20.135 76.9152 19.9798C76.3091 19.5512 75.2893 19.0745 74.5022 18.8491C73.4602 18.5535 71.2763 18.5461 70.1641 18.8417C66.7608 19.7396 64.4181 22.5775 63.9673 26.3503C63.716 28.4343 64.0671 30.5406 64.9502 32.2514C66.129 34.5424 68.0505 36.0205 70.5521 36.5637C71.3391 36.7337 71.668 36.7558 72.6842 36.7152C73.4639 36.6819 74.1142 36.6006 74.5392 36.4787C75.2597 36.2755 76.5715 35.6473 77.0112 35.2963C77.1664 35.1706 77.3179 35.0709 77.3438 35.0709C77.3734 35.0709 77.3955 35.4256 77.3955 35.8616V36.6524H79.1729H80.9503V24.3586V12.0648H79.1729H77.3955V16.1627H77.3918ZM21.4951 22.2006C21.4951 31.9928 21.5025 32.3623 21.6688 33.057C22.0863 34.7678 23.0729 35.9207 24.6027 36.4787C25.0905 36.6561 25.3713 36.6893 26.3801 36.693C27.4591 36.6967 27.6549 36.6709 28.3348 36.4381C28.7487 36.2939 29.1441 36.1424 29.2143 36.0981C29.3178 36.0316 29.3141 35.7434 29.1773 34.2173C29.0924 33.227 29.0111 32.4029 29 32.3882C28.9889 32.3734 28.6489 32.5101 28.2462 32.6875C26.6018 33.4154 25.6928 33.323 25.2789 32.3845L25.0868 31.9484L25.0609 22.0048L25.0351 12.0611H23.2614H21.4877V22.2006H21.4951ZM80.9909 0.33632C68.7784 1.23055 57.1091 5.74604 47.3982 13.3359C45.8056 14.5812 44.2388 15.9077 43.0416 17.0274C42.6019 17.4375 42.188 17.8255 42.1215 17.8883C42.0254 17.977 42.1104 18.0694 42.5649 18.3576C42.8753 18.5535 43.4998 19.0967 43.9506 19.5659L44.7746 20.4158L45.6836 19.577C53.4804 12.4084 62.9474 7.44581 73.0759 5.22872C77.1812 4.33079 80.8801 3.93541 85.2958 3.93171C88.2408 3.92802 89.7632 4.01301 92.4496 4.34188C101.614 5.45412 110.549 8.85736 118.264 14.1858C122.787 17.3082 125.307 19.7581 129.05 24.6727C130.536 26.6237 131.142 27.481 131.079 27.5586C131.031 27.6214 129.704 29.432 128.126 31.5826C126.549 33.7332 125.059 35.7581 124.819 36.0759L124.38 36.6598H126.604H128.828L131.112 33.541L133.396 30.4223L134.342 31.7082C134.863 32.414 135.886 33.8182 136.618 34.8233L137.952 36.6524L140.206 36.6561L142.46 36.6598L142.205 36.3087C142.068 36.1166 140.524 34.0399 138.776 31.6972L135.598 27.4329L138.794 23.1096C140.553 20.7299 141.991 18.7604 141.991 18.7345C141.991 18.705 141.019 18.6828 139.829 18.6828H137.664L135.927 21.0329C134.974 22.3262 134.013 23.6269 133.791 23.9225L133.392 24.4583L132.069 22.6625C130.454 20.4713 129.29 19.0597 127.598 17.2491C125.662 15.1798 123.685 13.5281 120.44 11.2703C111.106 4.77791 100.793 1.13448 89.4861 0.32893C87.912 0.218075 82.554 0.22177 80.9835 0.33632H80.9909Z" fill="#201E1E"/>
</g>
<defs>
<clipPath id="clip0_1145_1898">
<rect width="156.283" height="36.4974" fill="white" transform="translate(0.714844 0.251221)"/>
</clipPath>
</defs>
</svg>
