<svg width="217" height="57" viewBox="0 0 217 57" fill="none" xmlns="http://www.w3.org/2000/svg">
<g clip-path="url(#clip0_1145_1809)">
<path fill-rule="evenodd" clip-rule="evenodd" d="M108.826 31.2394C108.826 29.053 109.335 26.7927 109.995 25.2183C110.596 23.7841 112.065 22.0732 114.136 22.0732C115.143 22.0732 116.331 22.3313 117.349 22.5415C117.741 22.6226 118.177 22.5489 118.177 22.9692V33.9236C118.177 36.1064 118.064 37.8947 118.064 40.0701C115.499 41.3827 112.879 41.132 110.984 38.8754C109.42 37.0134 108.826 34.0748 108.826 31.2394ZM114.253 8.8844V9.77668C115.902 10.1491 116.51 11.9926 116.66 13.4786C116.855 15.3627 116.792 17.4643 116.792 19.4996C115.777 19.0277 113.923 18.9392 112.637 18.9392C109.87 18.9392 107.745 20.0453 105.843 21.5239C103.128 23.6366 100.863 28.4741 100.863 32.128C100.863 35.4833 101.296 38.8386 103.373 41.0951C104.777 42.6216 107.291 44.3103 110.211 44.3103C112.065 44.3103 113.267 44.2955 114.96 43.4327C116.997 42.393 116.433 42.4962 117.598 41.7403C117.881 42.9092 119.874 44.3103 121.409 44.3103C123.579 44.3103 124.095 44.1886 126.045 43.4327C126.473 43.2668 126.763 43.064 127.181 42.9681V41.7403C124.154 41.7403 123.755 40.6784 123.223 38.0827C123.055 37.2679 123.025 35.852 123.025 34.8085C123.025 33.5623 122.912 32.6553 122.912 31.3427C122.912 28.9092 123.029 26.8554 123.025 24.4146C123.025 22.1396 123.249 19.8905 123.253 17.5934C123.253 16.9039 123.373 16.7269 123.377 16.0374C123.377 15.4475 123.351 14.828 123.37 14.2418C123.432 12.2212 123.549 13.4527 123.366 10.8976C123.084 6.93022 119.324 7.02978 116.47 7.89994C115.722 8.12854 114.931 8.53412 114.249 8.88071L114.253 8.8844Z" fill="#201E1E"/>
<path fill-rule="evenodd" clip-rule="evenodd" d="M64.2655 7.76718C63.8221 9.60336 63.6133 8.07689 64.4597 9.70291C64.9911 10.7242 65.0717 12.5862 65.0717 13.803V42.64C65.0717 44.1701 63.5033 43.7572 72.8071 43.7572L72.6862 40.5199C72.6569 40.1549 72.5616 39.9004 72.5323 39.4506L72.3454 35.262C72.3454 32.1243 72.2318 29.2889 72.2318 26.0959H78.1204C80.0039 26.0959 82.1622 25.2626 82.1622 23.301C82.1622 22.6668 82.1879 21.8077 81.9314 21.2879C80.9567 21.9183 80.5719 22.1801 79.0439 22.1801H72.3491V18.0432C72.3491 15.5249 72.5799 13.3089 72.5799 10.8902C73.5876 10.8902 77.5268 11.0377 78.2634 11.1999C79.7731 11.528 81.477 12.2839 81.8141 13.685H83.0856C83.4814 12.0442 83.7892 10.916 83.2176 9.19778C83.0124 8.58572 82.7192 8.01053 82.3931 7.53857C81.5649 7.53857 81.1948 7.65656 80.3154 7.65287L75.6946 7.64919C74.8628 7.6455 74.4194 7.76718 73.5034 7.76349C70.4253 7.75243 67.3436 7.76349 64.2692 7.76349L64.2655 7.76718Z" fill="#201E1E"/>
<path fill-rule="evenodd" clip-rule="evenodd" d="M193.449 20.8417C193.449 22.2207 193.849 21.1072 195.564 23.3784C197.425 25.8451 199.034 32.2275 200.188 35.5533L201.225 38.6837C201.943 41.0397 201.903 41.6371 203.347 42.8907C203.926 43.3958 204.098 43.3331 204.765 43.6429C204.681 43.9415 204.292 44.5573 204.109 44.9112C203.867 45.3758 203.713 45.7777 203.493 46.2165C203.054 47.0977 202.669 48.0232 202.222 48.897C201.987 49.3579 201.899 49.7303 201.581 50.1764C200.049 52.3371 196.179 52.5214 193.984 51.2826C193.629 51.0798 193.633 50.9913 193.332 50.7959C192.753 51.9684 193.343 54.118 194.226 55.0729C195.502 56.4519 196.491 56.4962 198.103 56.4962H198.18C201.115 56.4962 202.947 54.2949 204.179 52.2449C205.469 50.0916 207.521 44.4245 208.803 41.6334L214.835 27.2425C215.022 26.7853 215.161 26.5199 215.348 26.0627C215.839 24.8607 216.997 22.3055 216.997 20.8417C216.997 18.1648 213.585 19.1051 212.079 19.9937C211.742 20.1928 211.584 20.414 211.225 20.5062C211.225 22.4198 211.661 21.2878 211.991 22.4493C212.358 23.7435 211.617 25.5944 211.185 26.837C210.566 28.5957 207.766 35.7819 207.649 37.1609C207.543 37.0429 207.649 37.1978 207.502 36.9692C206.608 35.5939 205.216 31.4938 204.662 29.8825L203.006 24.6689C202.266 21.8815 201.903 19.0571 198.067 19.0571C197.205 19.0571 196.084 19.389 195.425 19.6286C195.025 19.7761 193.446 20.3956 193.446 20.8454L193.449 20.8417Z" fill="#201E1E"/>
<path fill-rule="evenodd" clip-rule="evenodd" d="M134.225 28.6696C134.225 27.2685 135.401 23.9427 136.559 22.8808C139.011 20.628 142.77 23.0135 142.77 28.334C141.92 28.334 141.367 28.4115 140.692 28.4484C139.989 28.4852 139.197 28.3967 138.505 28.452L134.229 28.6696H134.225ZM128.223 32.3567C128.223 35.9258 128.611 39.0857 131.235 41.7331C135.053 45.5824 142.048 45.4865 146.094 42.9535C147.519 42.0612 148.769 41.0989 149.381 39.5429C149.883 38.2635 149.883 37.4302 149.579 36.1581C149.142 36.2724 149.157 36.5526 148.853 36.9066C148.157 37.7141 148.201 37.6993 147.299 38.4183C146.281 39.2295 145.419 39.5687 144.17 39.9743C141.022 40.9956 137.995 40.3209 135.94 37.6293C135.438 36.9693 134.961 35.9443 134.756 34.9782C134.639 34.4399 134.566 33.8537 134.573 33.2564C134.58 32.4452 134.459 32.0285 134.459 31.3538C135.768 31.3538 137.076 31.3538 138.384 31.3538C139.593 31.3538 149.12 31.999 149.12 30.5721C149.12 26.8776 148.97 25.0673 146.698 22.1876C145.416 20.5616 142.356 19.5071 140.231 19.5071H138.728C132.246 19.5071 128.223 26.4352 128.223 32.3604V32.3567Z" fill="#201E1E"/>
<path fill-rule="evenodd" clip-rule="evenodd" d="M152.699 9.10928C152.699 10.5214 152.879 9.28258 153.908 10.621C155.22 12.3318 155.242 13.9283 155.242 16.2623C155.242 19.4332 155.125 22.3608 155.125 25.4285C155.125 31.656 155.011 37.6144 155.011 43.7572H161.937C161.937 42.9349 161.728 41.4711 161.622 40.7079C161.288 38.2818 161.475 25.3289 161.475 22.63L161.82 11.1188C161.82 9.05397 160.556 7.43164 158.126 7.43164C156.455 7.43164 154.535 7.8446 153.146 8.64839C152.886 8.79956 152.699 8.77744 152.699 9.10928Z" fill="#201E1E"/>
<path fill-rule="evenodd" clip-rule="evenodd" d="M176.598 19.7246C176.598 20.333 176.411 20.6464 176.367 21.1774C176.803 21.3802 177.122 21.4355 177.54 21.7157C179.522 23.0504 179.251 23.9353 179.251 26.7634C179.251 28.6733 179.002 30.8966 178.903 32.6849L178.789 37.0431C178.789 39.1853 179.247 41.121 180.218 42.3636C182.296 45.0257 188.599 44.7897 191.255 42.9683C193.297 41.5708 193.835 40.3688 193.333 38.2709C192.754 38.647 192.82 38.9825 191.332 39.4618C190.222 39.8195 189.269 39.9485 188.023 39.9485C186.334 39.9485 185.656 38.7871 185.301 37.4413L185.033 33.9311C185.268 31.6709 185.136 25.3918 185.136 22.7333C186.708 22.7333 192.523 23.7547 192.523 20.274C192.523 19.3817 192.586 19.5661 192.41 18.8213C191.439 19.4518 190.896 19.603 189.291 19.603H185.25C185.25 19.0093 185.418 18.2682 185.502 17.6119C185.59 16.9187 185.711 16.4431 185.711 15.5803H182.018C181.578 15.5803 181.479 16.1703 180.929 16.8745C179.749 18.3899 178.672 19.2453 176.591 19.7136L176.598 19.7246Z" fill="#201E1E"/>
<path fill-rule="evenodd" clip-rule="evenodd" d="M86.4294 20.7312V21.7378C87.8805 21.8558 88.7087 24.3851 88.8369 25.6646C89.0018 27.2722 88.8516 32.4857 88.8516 34.816C88.8516 35.9811 88.7343 36.7149 88.7343 37.8321V42.5295C88.6317 44.1629 87.3455 43.7573 95.66 43.7573L95.1983 37.161C95.1983 34.7902 95.0847 32.6775 95.0847 30.2329C95.0847 27.8031 95.3155 25.3807 95.3155 22.6338C95.3155 21.7046 94.8172 20.6243 94.3591 20.0933C92.8018 18.283 89.4782 19.2527 87.657 20.1376C87.2979 20.3109 86.7336 20.6538 86.4258 20.7349L86.4294 20.7312Z" fill="#201E1E"/>
<path fill-rule="evenodd" clip-rule="evenodd" d="M164.477 20.7311V21.7376C165.994 21.8593 166.704 24.4182 166.873 25.6792C167.1 27.3679 166.778 37.843 166.789 40.966C166.792 41.6518 166.69 41.8288 166.668 42.415C166.65 42.9533 166.51 43.7608 167.02 43.7608H173.714C173.7 43.1156 173.249 39.4948 173.249 38.3997L173.139 29.5654C173.139 27.1798 173.773 23.6439 173.095 21.3394C172.71 20.0268 171.468 19.0608 169.907 19.0608C167.679 19.0608 165.961 19.9789 164.48 20.7384L164.477 20.7311Z" fill="#201E1E"/>
<path fill-rule="evenodd" clip-rule="evenodd" d="M166.09 13.6887C166.09 13.9579 166.291 14.7211 166.398 14.9571C167.823 18.1649 173.081 17.2763 172.939 13.6223C172.752 8.89546 166.09 9.58126 166.09 13.6887Z" fill="#201E1E"/>
<path fill-rule="evenodd" clip-rule="evenodd" d="M91.2797 16.9335C92.8737 16.9335 94.0499 16.3435 94.6655 14.9608C95.0649 14.0575 95.0283 13.3311 94.6765 12.4167C93.4416 9.21631 88.3848 9.82837 88.1173 13.5229C87.9744 15.4992 89.7846 16.9335 91.2833 16.9335H91.2797Z" fill="#201E1E"/>
<path fill-rule="evenodd" clip-rule="evenodd" d="M46.7848 0.5H0.353732C0.192501 0.614301 0.060584 0.629049 0.0239404 0.883461C-0.0163675 1.15262 0.0166117 36.8624 0.0166117 39.5171C0.0166117 42.2603 -0.0859902 43.9638 1.44571 46.3604C1.54831 46.5227 1.6729 46.6628 1.73886 46.8102C2.24454 46.7402 5.08075 45.3059 5.68904 44.9925C8.23943 43.6762 10.4967 42.2198 12.8712 40.6601C13.4575 40.2767 14.0218 39.8674 14.5861 39.4729C18.1625 36.9546 22.633 33.3891 25.8137 30.421L26.9423 29.3738C27.0156 29.3038 27.0669 29.2706 27.1402 29.2042L29.544 26.885C30.4528 26.0259 32.2776 24.1086 33.1094 23.2127C33.3403 22.9619 33.5528 22.6817 33.791 22.4531C34.0805 22.1766 34.2417 21.948 34.4909 21.6751L37.8401 17.7742C38.0783 17.5013 38.2725 17.2174 38.4997 16.9556C38.7122 16.7049 38.9357 16.421 39.1373 16.1481C40.2293 14.7028 41.182 13.4897 42.2483 11.9596C44.1135 9.28641 46.3194 5.8537 47.8181 2.89663C47.9867 2.56479 48.1479 2.25138 48.3128 1.93798C48.4338 1.70938 48.7379 1.14893 48.8002 0.905583C48.1223 0.772847 47.9134 0.625362 47.0779 0.55162L46.7848 0.5Z" fill="#201E1E"/>
<path fill-rule="evenodd" clip-rule="evenodd" d="M4.63648 49.2216C4.94062 49.5018 6.41369 49.9 6.95968 49.9812C7.89775 50.1176 8.97141 50.0697 9.94246 50.0697H52.984C54.6989 50.0697 54.4314 50.1692 54.4314 48.3515V12.7117C54.4314 9.61087 54.7502 6.97826 53.1086 4.3899C52.8191 3.9327 52.0093 2.83025 51.6538 2.66064L50.6755 4.62957C49.7227 6.54687 48.5721 8.49367 47.4801 10.2819C45.9704 12.7597 44.3251 15.0752 42.6872 17.2469C42.2584 17.8147 41.8517 18.3457 41.412 18.8987C41.1921 19.179 40.9906 19.437 40.7744 19.7062C40.3859 20.1855 39.1657 21.7009 38.7773 22.1102L37.7513 23.3048C37.6377 23.4413 37.5168 23.5519 37.3995 23.692L33.9074 27.4787C33.6618 27.7441 33.4273 27.9654 33.1745 28.2198C32.6688 28.7212 31.8407 29.5951 31.346 30.0449C31.2141 30.1629 31.1078 30.2919 30.9759 30.4099L28.9092 32.3641C28.0517 33.1937 26.5713 34.4547 25.6149 35.2954C23.4529 37.1942 21.3936 38.7613 19.1363 40.4831C18.037 41.3201 16.8974 42.0981 15.7468 42.9019C13.1451 44.716 8.58665 47.4813 5.62585 48.7607C5.38401 48.864 4.81603 49.0889 4.63281 49.2142L4.63648 49.2216Z" fill="#201E1E"/>
</g>
<defs>
<clipPath id="clip0_1145_1809">
<rect width="217" height="56" fill="white" transform="translate(0 0.5)"/>
</clipPath>
</defs>
</svg>
