<svg width="169" height="53" viewBox="0 0 169 53" fill="none" xmlns="http://www.w3.org/2000/svg">
<g clip-path="url(#clip0_1145_1836)">
<path fill-rule="evenodd" clip-rule="evenodd" d="M0.0678511 12.9935C0.0678511 20.4031 -0.892749 26.0021 4.41484 31.307C13.7726 40.6675 29.5955 33.838 29.5955 21.1964V13.1878C29.5955 11.8009 29.1719 12.1463 26.4412 12.149L16.0662 12.1301C14.4876 12.1732 14.887 12.2812 14.887 16.898C14.887 18.5278 16.0581 18.0691 19.2151 18.0691C24.4633 18.0691 23.7078 17.2542 23.7078 21.3907C23.7078 27.3486 16.6949 31.906 10.7235 28.722C5.05973 25.7026 5.89082 19.8877 5.96907 13.9622C6.00145 11.5931 6.17414 12.014 1.04734 12.014C0.386252 12.014 0.0705495 12.3297 0.0705495 12.9908L0.0678511 12.9935Z" fill="#201E1E"/>
<path fill-rule="evenodd" clip-rule="evenodd" d="M105.149 6.72249C104.874 7.86657 104.855 25.268 105.135 26.0829C105.807 26.5659 108.527 26.5092 109.393 26.2043C110.173 23.9836 108.954 15.6188 109.661 13.4224C110.376 13.6626 113.004 17.1488 113.759 18.0797C114.075 18.4683 114.28 18.6032 114.593 18.9998L117.863 22.9636C118.179 23.3522 118.384 23.4871 118.697 23.8838C120.993 26.7953 120.519 26.3392 123.341 26.377C124.844 26.3959 124.752 26.4364 125.071 26.0289C125.397 25.5082 125.419 8.23354 125.143 6.69281C124.21 6.52551 121.741 6.40409 120.869 6.81423C120.246 9.23192 121.012 16.4067 120.705 19.5422C120.087 19.5395 119.909 19.0079 119.018 17.8935C118.433 17.1596 117.877 16.6361 117.302 15.9022L109.928 7.05708C109.142 6.18013 106.182 6.47154 105.146 6.71979L105.149 6.72249Z" fill="#201E1E"/>
<path fill-rule="evenodd" clip-rule="evenodd" d="M86.9469 10.3519C91.2075 9.73939 95.2846 11.3665 96.0618 15.0713C97.9641 24.1268 82.9048 25.5272 81.0483 18.1689C79.8638 13.4766 82.9399 10.9293 86.9469 10.3546V10.3519ZM88.1719 26.8629C103.369 26.8629 104.324 10.4221 93.439 6.94663C88.8114 5.46796 83.3068 6.24237 80.0041 8.73562C72.9993 14.0243 75.6976 26.8656 88.1719 26.8656V26.8629Z" fill="#201E1E"/>
<path fill-rule="evenodd" clip-rule="evenodd" d="M152.341 6.75497C152.055 7.66161 152.006 25.0954 152.325 26.2044C154.848 26.8304 164.421 26.4338 167.673 26.4284C168.782 26.4257 168.558 25.8213 168.558 24.1267C168.558 22.9557 168.652 22.9287 166.318 22.953L157.694 22.9772C156.701 22.9692 156.334 23.8191 156.599 18.8542L156.645 18.4333C157.565 18.0258 163.477 18.2471 165.344 18.2714C166.971 18.2903 167.8 18.946 167.263 15.0118C166.275 14.6826 160.301 14.8364 158.498 14.858C156.788 14.8769 156.329 15.7215 156.599 10.6486L156.645 10.2277C157.643 9.78518 164.035 10.0496 166.124 10.0631C168.223 10.0766 168.817 10.7674 168.428 6.83592C166.615 6.41498 154.578 6.49054 152.341 6.75227V6.75497Z" fill="#201E1E"/>
<path fill-rule="evenodd" clip-rule="evenodd" d="M131.153 6.7306C130.708 7.45645 130.783 25.1682 131.032 26.2043C132.079 26.5443 146.056 26.5443 147.1 26.2043L147.273 23.9243C147.243 23.6814 147.224 23.2875 146.981 23.1013C145.254 22.37 137.262 23.533 135.398 22.8126C135.014 21.8196 135.114 19.5611 135.346 18.3603C137.381 17.9421 144.688 18.7759 145.751 18.0473C146.339 17.5508 146.188 15.2249 145.805 14.92C144.14 14.2994 137.405 15.2789 135.349 14.6556C135.109 13.498 135.006 11.1046 135.427 10.2033C137.68 9.55574 145.414 10.743 147.025 9.91461C147.397 9.54764 147.232 7.3701 147.1 6.81155C146.28 6.42569 132.47 6.42569 131.153 6.7279V6.7306Z" fill="#201E1E"/>
<path fill-rule="evenodd" clip-rule="evenodd" d="M51.8374 26.4285H59.2605C60.2669 26.4285 60.5233 26.4231 60.5233 25.3006V17.4862C60.5233 16.2639 60.2454 16.2612 59.0851 16.2477C58.2729 16.2369 57.2367 16.1829 56.6701 16.4609C55.8876 17.7318 56.5891 20.565 56.3706 22.2191C54.8298 22.5591 53.2109 22.3756 51.6377 22.3702C46.1629 22.3486 43.8099 15.9347 46.7592 12.6104C49.4386 9.59096 52.4148 10.2116 57.3042 10.2143C60.5611 10.2143 60.5233 10.8996 60.5233 7.32707C60.5233 6.37457 60.1806 6.15601 59.2605 6.15601H52.226C46.26 6.15601 41.5406 10.2359 41.4543 16.1155C41.3679 21.987 46.0738 26.4285 51.8347 26.4285H51.8374Z" fill="#201E1E"/>
<path fill-rule="evenodd" clip-rule="evenodd" d="M66.8574 6.72271C66.593 7.78315 66.5606 25.2601 66.8412 26.0831C67.648 26.6606 70.4651 26.5499 71.2665 26.1749C71.7171 24.9552 71.4338 9.26723 71.369 6.73351C70.2195 6.47447 67.961 6.46098 66.8574 6.72271Z" fill="#201E1E"/>
<path fill-rule="evenodd" clip-rule="evenodd" d="M44.1167 40.7835C45.1772 42.3215 47.4977 50.2438 48.712 52.4321L49.9775 52.4564C50.3714 51.029 54.0978 41.6254 54.6779 40.7835V52.4564H55.992C55.992 50.7673 55.8625 39.4073 56.0649 38.7328L54.0519 38.7571L49.3002 50.5244C48.712 49.7176 46.4697 43.3118 45.7897 41.512C45.5873 40.9805 45.3687 40.4462 45.1988 39.9497C44.6969 38.4845 44.7077 38.7301 42.9268 38.7301C42.4357 40.9589 42.8053 49.5584 42.8053 52.4537H44.1194V40.7808L44.1167 40.7835Z" fill="#201E1E"/>
<path fill-rule="evenodd" clip-rule="evenodd" d="M93.5514 42.2972C93.5514 44.9307 95.3053 45.3355 97.6475 45.9156C99.6874 46.4229 102.48 46.7305 102.483 48.9404C102.483 50.0333 101.663 50.8589 100.831 51.2475C99.1342 52.0381 96.0285 51.6577 94.9545 50.1655C93.6054 48.2929 95.7424 47.9124 93.1602 47.9124C93.1952 51.377 95.1839 52.7262 98.7241 52.7181C101.733 52.7127 104.655 51.2637 103.837 47.9259C102.79 43.6625 94.2071 46.0371 94.8979 41.8007C95.3134 39.2535 99.3042 38.9918 101.058 40.546C101.919 41.3069 101.765 41.5633 102.016 42.138C102.31 42.818 102.032 42.7343 103.414 42.7343C103.209 36.9114 93.5541 37.138 93.5541 42.2945L93.5514 42.2972Z" fill="#201E1E"/>
<path fill-rule="evenodd" clip-rule="evenodd" d="M106.925 52.4536C106.925 49.2372 106.051 43.7084 109.502 43.2928C111.787 43.0176 112.006 44.6933 112.009 46.5902C112.011 48.5438 112.006 50.5 112.003 52.4536H113.226C113.226 50.5162 113.177 48.5168 113.223 46.5848C113.269 44.7337 113.935 43.3684 115.724 43.2766C118.037 43.1579 118.263 44.4585 118.261 46.5875C118.261 48.5411 118.258 50.4973 118.258 52.4509H119.478C119.478 50.3435 119.847 45.2194 119.022 43.676C118.061 41.8762 114.882 41.8034 113.479 43.3711L112.983 43.9161C112.389 43.1768 112.602 43.0527 111.688 42.6048C109.799 41.6792 107.988 42.4671 106.806 44.1509L106.736 42.5265H105.759L105.754 52.4455H106.925V52.4536Z" fill="#201E1E"/>
<path fill-rule="evenodd" clip-rule="evenodd" d="M78.9207 46.7898C79.1608 44.9496 80.2645 43.1903 82.3071 43.2793C84.3605 43.3684 84.9002 45.0062 85.3481 46.7736L78.9207 46.7898ZM85.2671 49.1778C83.5753 53.8945 78.4755 51.4228 78.918 47.8638L86.4625 47.8584C86.4571 44.8902 85.3616 42.4968 82.5095 42.2756C79.5845 42.0489 77.9385 43.8757 77.6336 46.6064C76.762 54.3694 85.7636 54.2885 86.3923 49.1778H85.2698H85.2671Z" fill="#201E1E"/>
<path fill-rule="evenodd" clip-rule="evenodd" d="M129.682 46.7899C130.316 42.057 135.602 42.0921 136.085 46.7899H129.682ZM136.058 49.1779C134.541 53.5141 129.425 51.9652 129.685 47.8584H137.253C137.245 44.9064 136.158 42.5022 133.311 42.2756C130.381 42.0435 128.71 43.8811 128.449 46.6118C127.685 54.6339 136.603 54.051 137.162 49.2103L136.055 49.1779H136.058Z" fill="#201E1E"/>
<path fill-rule="evenodd" clip-rule="evenodd" d="M64.8794 47.1568C64.8794 48.8945 64.7418 50.2625 63.6894 51.0234C62.6829 51.7493 60.7617 52.0974 59.7337 51.2042C58.541 50.1654 59.1778 48.5086 60.7213 48.058C62.1568 47.6425 63.4628 47.6559 64.8794 47.1568ZM59.2642 45.616C59.99 45.2652 59.4585 45.071 60.0548 44.2507C61.0613 42.8583 63.8864 43.1713 64.5394 44.0591C65.2571 45.0305 65.0089 46.3365 63.7623 46.6063C62.5885 46.8599 61.3527 46.8141 60.2113 47.1595C56.6387 48.2415 58.1147 51.5442 58.8756 52.0596C60.9048 53.4303 64.0537 52.6182 64.7121 50.84C64.9441 51.1395 64.7283 50.8022 64.9468 51.2717C65.1384 51.6845 65.2814 52.6586 66.4822 52.4643C67.5183 52.2971 66.841 52.5804 67.1298 52.065C66.949 50.6106 66.8383 52.2053 66.0612 50.8939C65.6349 49.3397 67.1621 44.078 64.561 42.6695C63.4196 42.0515 61.5577 42.1514 60.3408 42.5912C58.9755 43.0877 58.5761 43.9161 58.3926 45.6187H59.2669L59.2642 45.616Z" fill="#201E1E"/>
<path fill-rule="evenodd" clip-rule="evenodd" d="M72.7261 46.2044C73.166 45.8347 73.2901 45.6107 73.7488 45.2653C74.3181 44.8363 74.2561 44.893 74.8011 44.3641C75.3975 43.784 76.3014 43.1175 76.7871 42.5589C74.7768 42.4969 75.3516 42.4537 74.7688 42.9556L72.5534 44.8525C72.0812 45.206 70.2653 47.03 69.7094 47.2567L69.7067 38.8245L68.4844 38.8272V52.4644L69.704 52.5076C69.704 49.1779 69.3182 49.0916 70.6133 47.9987L71.8033 47.1407C72.1406 47.9529 73.1606 49.1509 73.7191 49.9172C75.7401 52.6992 75.2329 52.5076 77.0839 52.5076C76.5928 51.3662 73.5815 47.8881 72.7261 46.2071V46.2044Z" fill="#201E1E"/>
<path fill-rule="evenodd" clip-rule="evenodd" d="M0.0661 1.27191C0.0661 7.17583 -0.940371 6.18555 5.14433 6.18555C6.39905 6.18555 5.95652 4.35609 5.95652 1.46619C5.95652 -0.174383 4.96354 0.295124 1.04289 0.295124C0.381803 0.295124 0.0661 0.610826 0.0661 1.27191Z" fill="#201E1E"/>
<path fill-rule="evenodd" clip-rule="evenodd" d="M23.7067 1.27191C23.7067 7.17583 22.7003 6.18555 28.785 6.18555C30.0397 6.18555 29.5971 4.35609 29.5971 1.46619C29.5971 -0.174383 28.6042 0.295124 24.6835 0.295124C24.0224 0.295124 23.7067 0.610826 23.7067 1.27191Z" fill="#201E1E"/>
<path fill-rule="evenodd" clip-rule="evenodd" d="M139.355 49.2805L138.497 49.3075C138.243 51.8736 140.928 53.1472 143.632 52.6345C146.193 52.1488 147.596 49.4748 145.429 47.7533C144.042 46.6523 139.574 46.995 139.979 44.688C140.167 43.6086 141.535 43.1904 142.814 43.3361C144.976 43.5817 144.164 44.7662 145.219 45.4705L146.125 45.4219C145.891 42.7938 143.54 41.6874 140.918 42.4969C138.265 43.3145 137.847 46.307 140.356 47.3485C141.722 47.9152 146.74 48.2093 144.911 50.77C144.137 51.8547 140.901 52.5455 139.784 50.0684L139.361 49.2778L139.355 49.2805Z" fill="#201E1E"/>
<path fill-rule="evenodd" clip-rule="evenodd" d="M125.336 52.4293L126.556 52.4536V38.73H125.684L125.336 38.7759V52.4293Z" fill="#201E1E"/>
<path fill-rule="evenodd" clip-rule="evenodd" d="M121.773 52.4537H122.996L123.004 43.274L122.953 42.5347H121.809L121.776 43.274L121.773 52.4537Z" fill="#201E1E"/>
<path fill-rule="evenodd" clip-rule="evenodd" d="M121.773 39.9523L121.806 40.6917L122.95 40.689L123.001 39.9523L122.993 38.73H121.773V39.9523Z" fill="#201E1E"/>
</g>
<defs>
<clipPath id="clip0_1145_1836">
<rect width="168.575" height="52.5335" fill="white" transform="translate(0 0.233154)"/>
</clipPath>
</defs>
</svg>
