<svg width="210" height="87" viewBox="0 0 210 87" fill="none" xmlns="http://www.w3.org/2000/svg">
<path fill-rule="evenodd" clip-rule="evenodd" d="M98.0508 34.2688C98.2088 35.1403 98.1352 34.8315 99.1607 35.1462C101.917 35.992 101.192 39.1714 101.144 43.1395C101.12 45.0796 101.397 50.2419 100.677 51.4006C99.9479 52.5728 98.6782 51.7855 98.1944 52.8546C98.7375 53.2426 104.584 53.0963 104.598 53.0941C104.6 53.0936 104.46 53.3957 105.289 52.8546C103.858 50.9077 102.401 54.765 102.391 46.8604C102.387 43.9952 102.344 40.9392 102.466 38.0911C103.68 38.9099 109.405 52.4531 110.577 53.0212C111.521 52.1794 115.708 39.3915 117.174 37.5711L117.097 50.7294C116.749 52.8015 115.263 51.6964 114.724 52.8546C115.609 53.5213 118.186 53.0738 119.44 53.0743C120.415 53.0747 123.594 53.402 124.313 52.7952C123.603 51.1963 121.314 54.2123 121.312 47.4803C121.311 44.9693 121.188 39.1377 121.547 36.9738C122.089 33.7084 124.038 35.9303 124.408 34.1658L117.097 34.1595C116.242 35.6913 112.6 45.7697 111.609 46.7731C110.663 45.6932 108.896 42.0141 108.19 40.57C107.118 38.3796 106.018 36.4075 104.907 34.1482C103.81 34.1356 98.4296 33.8389 98.0512 34.2693L98.0508 34.2688Z" fill="black"/>
<path fill-rule="evenodd" clip-rule="evenodd" d="M147.36 33.6316C148.039 34.5318 148.304 33.6577 148.95 34.6822C149.439 35.7504 149.171 40.0745 149.183 41.5884C146.869 40.319 145.483 39.9017 143.013 41.5681C137.419 45.3413 140.646 54.5973 146.618 53.2716C147.955 52.9749 148.27 52.0589 149.14 51.4296L149.185 52.9983C150.429 53.1523 153.56 53.3044 154.422 52.8358C153.932 51.7483 153.614 52.8102 152.853 51.755C152.099 50.8678 152.585 35.8548 152.594 33.406C151.518 33.3471 148.06 33.0747 147.36 33.632V33.6316Z" fill="black"/>
<path fill-rule="evenodd" clip-rule="evenodd" d="M169.583 41.3521C172.867 40.8124 172.372 44.3726 171.286 45.3215C170.161 46.3033 167.679 46.6026 166.381 47.6366C164.999 48.7359 164.558 51.4206 166.153 52.7152C167.882 54.1174 170.504 53.1141 171.523 51.7893C171.561 51.8298 171.608 51.8451 171.623 51.9239L172.392 53.0843C172.892 53.4467 173.642 53.3877 174.26 53.3535C175.28 53.2977 177.232 53.2802 177.516 52.2529C175.363 51.3468 175.401 54.0166 175.419 45.62C175.427 42.1403 175.311 40.8947 171.9 40.337C169.651 39.9692 166.07 40.653 165.693 42.6103C165.293 44.6904 168.127 45.4809 168.837 42.8772C169.077 41.9976 169.154 41.8873 169.583 41.3516V41.3521Z" fill="black"/>
<path fill-rule="evenodd" clip-rule="evenodd" d="M137.849 50.1725C136.707 50.3013 136.58 50.9787 135.411 51.5198C134.488 51.947 133.314 52.1311 132.329 51.7044C130.32 50.8329 129.997 48.4197 129.976 46.4746C132.167 46.3629 136.241 46.6096 138.109 46.159C138.368 44.4358 137.545 42.9791 136.748 42.1072C133.699 38.7725 127.419 40.5713 126.311 45.4851C125.505 49.0647 127.267 51.9236 129.698 52.9031C132.689 54.1086 137.799 52.7947 137.849 50.173V50.1725Z" fill="black"/>
<path fill-rule="evenodd" clip-rule="evenodd" d="M155.739 40.8426C155.946 41.4521 155.442 41.096 156.364 41.4624C156.78 41.6276 156.903 41.5313 157.469 41.7928C157.963 43.1487 158.226 50.8435 157.575 51.8136C156.827 52.7409 156.284 51.7726 155.743 52.8543C156.395 53.3387 159.827 53.0601 161.488 53.106L162.887 53.0542C163.329 52.9426 163.082 53.0439 163.343 52.8543C162.758 51.7974 161.695 52.7387 161.313 51.3634C161.151 50.7801 161.257 48.4478 161.262 47.6866C161.278 45.2185 161.241 42.7512 161.239 40.2835C160.189 40.2803 156.555 40.5774 155.738 40.8421L155.739 40.8426Z" fill="black"/>
<path fill-rule="evenodd" clip-rule="evenodd" d="M149.163 46.8604C149.167 44.7974 149.111 41.3028 146.453 41.5005C144.274 41.6625 143.998 44.692 144.016 46.8613C144.077 53.7508 149.149 53.7036 149.163 46.8604Z" fill="#F7F7F7"/>
<path fill-rule="evenodd" clip-rule="evenodd" d="M19.1562 43.7248L25.1062 49.506C25.7619 50.1547 26.4158 50.883 27.0962 51.5178C31.1114 55.2607 35.1058 59.4197 39.1097 63.2568L51.1406 74.9633L54.8654 71.0542C55.6104 70.3128 56.1158 69.8303 56.7917 69.115L60.6434 65.0943C61.3135 64.3871 61.7605 63.8663 62.5397 63.1253C64.0239 61.7136 64.8888 60.4852 66.4062 59.1235C67.0498 58.5455 67.6858 57.7757 68.284 57.1316L81.744 43.0752C81.4572 42.5584 80.2616 41.5357 79.7993 41.1166C79.1131 40.495 78.5193 39.8409 77.834 39.2161L66.8995 28.7492C66.5265 28.3751 66.2114 28.1131 65.8245 27.753C64.4817 26.503 63.1501 25.2425 61.8449 23.9979L49.8566 12.5798C49.2942 12.9413 48.3732 13.9492 47.9186 14.4399L42.1693 20.2922C39.6222 22.9247 37.4293 25.2448 34.4671 28.0555C33.0139 29.4343 19.3555 43.3174 19.1562 43.7252V43.7248Z" fill="#201E1E"/>
<path fill-rule="evenodd" clip-rule="evenodd" d="M57.8281 13.9772C58.2303 14.6798 60.8298 16.9346 61.5578 17.6477C67.5988 23.5613 74.4401 29.7171 80.4763 35.7329C81.9367 37.1882 82.8828 37.9706 84.2988 39.3701C84.8387 39.904 87.7821 42.5504 88.0379 43.0753C87.7026 43.6641 85.1143 46.2299 84.4999 46.8457C78.5001 52.862 72.2697 59.6525 66.2241 65.8506C65.2466 66.8531 59.2845 72.9877 58.9605 73.5256C59.4492 74.0694 59.9636 74.497 60.4555 75.017C61.034 74.71 82.9165 51.7483 83.517 51.1149C84.8266 49.7339 86.0936 48.4424 87.3674 47.0937C88.6752 45.7086 90.1123 44.4 91.1971 43.0753C90.9319 42.5756 89.8628 41.7815 89.2923 41.1356C88.7623 40.536 87.9109 39.8139 87.2938 39.2647L73.3181 25.903C70.8779 23.69 67.8399 20.5511 65.3521 18.2684L61.372 14.5137C61.0093 14.1748 60.7014 13.9249 60.3931 13.563C59.9766 13.0742 59.6777 12.9292 59.3949 12.5056C58.8012 12.8059 58.1876 13.4752 57.8286 13.9772H57.8281Z" fill="black"/>
<path fill-rule="evenodd" clip-rule="evenodd" d="M58.9605 73.526C59.2846 72.9881 65.2462 66.8534 66.2242 65.8509C72.2693 59.6528 78.5002 52.8623 84.4999 46.8461C85.1144 46.2303 87.7027 43.6644 88.038 43.0756C87.7826 42.5508 84.8392 39.9043 84.2989 39.3704C82.8829 37.9705 81.9363 37.1886 80.4763 35.7332C74.4402 29.717 67.5989 23.5617 61.5578 17.648C60.8294 16.935 58.2303 14.6802 57.8282 13.9775C57.0638 13.6548 56.8273 12.8855 56.0244 12.5046C55.6151 13.0444 54.9962 13.4126 54.6914 14.0351L72.5556 31.0963C72.8972 31.4199 73.1503 31.7719 73.4905 32.0906C74.1529 32.7105 74.8082 33.2345 75.4388 33.8755C76.3966 34.8491 84.4008 42.3149 84.929 43.0761L61.2459 67.7744C59.6086 69.562 57.1397 71.9324 55.835 73.4864C56.2362 73.9347 56.957 74.7121 57.4682 75.0137L58.961 73.5269L58.9605 73.526Z" fill="#848688"/>
<path fill-rule="evenodd" clip-rule="evenodd" d="M47.3758 37.9584C47.3758 39.1774 47.4938 46.6188 47.2048 47.4664C46.9261 48.2857 46.4665 48.0219 46.0441 48.2339C45.7407 48.3861 45.8274 48.256 45.7188 48.6066C46.2905 48.9353 47.8538 48.6877 48.8923 48.6872C49.8479 48.6868 51.2598 48.9132 52.052 48.6373C51.9497 48.1511 52.1027 48.2938 51.5166 48.1786C51.149 48.1065 50.934 48.1678 50.6252 47.9769C49.8299 47.4853 50.0898 44.6255 50.1109 43.2134L50.127 42.68C52.4959 42.6975 55.6816 42.8888 56.7928 40.6237C57.5118 39.1576 57.173 36.9671 55.077 36.183C52.9528 35.3885 49.5265 35.9057 47.0975 35.7828C46.6586 35.7607 45.5796 35.5721 45.7731 36.1218C46.0289 36.8483 47.3753 35.8211 47.3753 37.9584H47.3758Z" fill="#F7F7F7"/>
<path fill-rule="evenodd" clip-rule="evenodd" d="M33.2475 36.2992C34.0397 37.1405 35.0603 35.651 35.2089 38.3784L35.1869 46.392C35.0316 49.1487 33.6775 47.5156 33.3476 48.5977C33.7686 48.8197 39.6288 48.8332 40.2024 48.6392C40.017 47.3351 38.1867 49.0591 38.0009 46.6742C37.9004 45.3846 37.9906 43.688 37.9969 42.3569C41.0547 42.2718 40.6696 43.7469 40.9335 44.2817C41.1696 44.7598 40.7827 44.4537 41.3083 44.613C41.3303 44.582 41.3545 44.4933 41.3612 44.5122L41.5223 43.3503C41.5363 42.252 41.731 40.0161 41.4649 39.3571C40.3002 39.7095 41.7203 41.7348 38.0175 41.6654C37.9646 40.8475 37.9956 40.0228 38.0009 39.2031C38.0045 38.6508 37.9062 37.3638 38.3209 37.0064C39.1867 36.437 41.3365 36.7503 42.2728 37.1293C43.9267 37.7991 43.9917 39.1995 44.8822 39.3368L44.3418 35.9967L33.848 35.9751C32.8216 36.102 33.4701 36.0854 33.2475 36.2988V36.2992Z" fill="#F7F7F7"/>
<path fill-rule="evenodd" clip-rule="evenodd" d="M58.2645 35.9932C58.4804 37.4859 60.2398 35.0776 60.2402 39.4801C60.2402 41.4067 60.299 44.7788 60.1518 46.5051C60.0971 47.1466 59.905 47.666 59.5244 47.9303C58.7879 48.4416 58.4028 47.8551 58.1523 48.6339L69.3085 48.7495C69.4984 47.8844 70.2255 45.1848 69.8507 44.4556C68.6816 44.6599 68.5402 48.6181 63.7993 48.0181C62.693 47.8781 62.939 46.646 62.9363 45.5643C62.9349 44.2877 62.7944 38.2777 63.132 37.3027C63.5942 35.9685 64.8253 37.097 65.0394 35.959C64.2755 35.955 58.4616 35.8523 58.265 35.9923L58.2645 35.9932Z" fill="#F7F7F7"/>
<path fill-rule="evenodd" clip-rule="evenodd" d="M50.1094 36.6934L50.1534 41.885C54.5284 42.3266 54.7102 37.9061 52.9836 36.9009C52.454 36.5926 50.6578 36.3319 50.1094 36.6934Z" fill="#201E1E"/>
<path fill-rule="evenodd" clip-rule="evenodd" d="M130.066 45.4025C130.907 45.4187 133.735 45.5046 134.308 45.2233C136.834 43.98 130.907 36.9685 130.066 45.4025Z" fill="#F7F7F7"/>
<path fill-rule="evenodd" clip-rule="evenodd" d="M172.006 46.0061C171.463 46.2901 169.61 47.3511 169.155 47.7311C166.864 49.6483 169.671 53.6893 171.617 50.4113C172.302 49.2566 172.023 47.4317 172.005 46.0061H172.006Z" fill="#F7F7F7"/>
<path fill-rule="evenodd" clip-rule="evenodd" d="M158.386 33.5798C155.522 34.6525 157.114 38.4805 159.734 37.4803C161.979 36.6228 160.922 32.6304 158.386 33.5798Z" fill="black"/>
</svg>
