<svg width="150" height="79" viewBox="0 0 150 79" fill="none" xmlns="http://www.w3.org/2000/svg">
<g clip-path="url(#clip0_1705_1018)">
<path fill-rule="evenodd" clip-rule="evenodd" d="M23.3789 37.8807V40.9849C24.8493 44.2466 23.4104 45.7946 30.1097 52.1903C37.3223 59.0758 52.5945 63.1948 62.9845 64.37C64.7421 64.5686 70.096 64.6964 71.1726 65.0346H78.1936C79.2256 64.6922 84.6032 64.5282 86.3294 64.3237C89.0167 64.0044 91.5517 63.5943 94.091 63.0486C99.1956 61.9512 103.332 60.7141 107.881 58.8339C114.706 56.0126 122.213 50.9235 124.765 44.2003C125.152 43.1826 125.338 41.5229 125.665 40.7679V38.0007C124.255 34.8365 125.215 32.4563 118.926 26.7745C111.053 19.6625 97.0882 16.0036 86.3401 14.6174C84.5235 14.3832 79.6521 14.3041 78.491 13.9219H71.1726C69.2454 14.527 37.3336 14.4783 25.8973 31.5515C25.1217 32.7101 24.8076 33.2362 24.3431 34.497C23.9987 35.4315 23.6733 37.2327 23.3789 37.8813V37.8807ZM65.6439 18.3464C54.6103 19.5347 47.3001 21.2158 38.5648 25.563C31.9161 28.8717 22.997 36.9551 29.8504 46.3522C38.3941 58.0682 64.2966 62.4268 83.5945 60.5917C94.1647 59.5865 102.234 57.5219 110.483 53.3953C116.916 50.1775 126.205 41.7969 119.163 32.6328C110.193 20.9614 85.1409 16.2474 65.6439 18.3464Z" fill="black"/>
<path fill-rule="evenodd" clip-rule="evenodd" d="M49.0273 48.0093H53.0066L52.9947 38.5498L56.1864 42.966L59.164 43.0022C59.7326 41.506 60.999 39.7215 61.9887 38.595V48.0093L66.0352 47.9629L66.0316 31.0787C59.1301 30.1365 61.7918 33.5796 57.4736 37.6385C51.9568 31.2684 56.1584 30.9468 49.0279 30.9468V48.0099L49.0273 48.0093Z" fill="black"/>
<path fill-rule="evenodd" clip-rule="evenodd" d="M84.4922 48.0095L88.538 47.9002L88.5321 38.172C89.5748 38.9471 89.8425 39.6331 90.5711 40.6395C91.3247 41.681 95.2314 47.7985 96.3942 48.0089H99.9125L99.9375 30.9458H95.9118L95.9273 40.8571C95.2879 40.4921 89.1091 31.8684 88.698 30.9535L84.4928 30.9458V48.0089L84.4922 48.0095Z" fill="black"/>
<path fill-rule="evenodd" clip-rule="evenodd" d="M82.2673 30.9321L68.1014 30.9934L68.0586 34.956L73.1019 34.9542L73.2435 48.0095L77.1121 48.0143C77.152 47.9465 77.2204 47.7706 77.2305 47.811L77.4166 41.8891C77.4166 39.6111 77.4339 37.3332 77.403 35.0558L82.4558 35.0576L82.6765 31.9052C82.5135 30.8144 82.6664 31.3875 82.2673 30.9321Z" fill="black"/>
</g>
<defs>
<clipPath id="clip0_1705_1018">
<rect width="149.039" height="78.9554" fill="white"/>
</clipPath>
</defs>
</svg>
