<svg width="155" height="103" viewBox="0 0 155 103" fill="none" xmlns="http://www.w3.org/2000/svg">
<path d="M44.2109 56.571H46.2701V68.0612H44.2109V56.571Z" fill="black"/>
<path d="M57.7647 56.571V68.0612H55.6226L50.8136 60.1155V68.0612H48.7539V56.571H50.8794L55.7056 64.4841V56.571H57.7647Z" fill="black"/>
<path d="M60.2539 56.571H68.3896V58.467H62.3119V61.2032H67.6651V63.0991H62.3119V68.0612H60.2539V56.571Z" fill="black"/>
<path d="M69.8047 56.571H71.8638V68.0612H69.8047V56.571Z" fill="black"/>
<path d="M83.3606 56.571V68.0612H81.2197L76.4107 60.1155V68.0612H74.3516V56.571H76.4759L81.3021 64.4841V56.571H83.3606Z" fill="black"/>
<path d="M85.8438 56.571H87.9029V68.0612H85.8438V56.571Z" fill="black"/>
<path d="M92.6609 58.467H89.0703V56.571H98.326V58.467H94.7355V68.0612H92.6609V58.467Z" fill="black"/>
<path d="M99.5 56.571H107.142V58.467H101.559V61.2032H106.747V63.0991H101.559V66.1653H107.142V68.0612H99.5V56.571Z" fill="black"/>
<path d="M48.0536 80.067V86.2818H46.5879L46.3407 85.0944C45.6648 86.0183 44.4292 86.5287 42.9475 86.5287C39.7358 86.5287 37.2812 84.155 37.2812 80.5115C37.2812 77.0994 39.4388 74.5276 42.8817 74.5276C45.2201 74.5276 47.0978 75.7144 47.9385 77.8904L46.0442 78.6322C45.5337 77.2145 44.3977 76.4888 42.8485 76.4888C40.6429 76.4888 39.3409 77.9724 39.3409 80.4943C39.3409 83.116 40.7402 84.5663 43.0797 84.5663C44.9242 84.5663 46.0116 83.6602 46.0116 82.1102V81.9618H43.4426V80.0665H48.0541L48.0536 80.067Z" fill="black"/>
<path d="M50.043 74.7915H57.686V76.6874H52.1027V79.4237H57.2911V81.3196H52.1027V84.3857H57.686V86.2811H50.043V74.7915Z" fill="black"/>
<path d="M58.4928 83.0342L60.5353 82.5233C60.6824 83.8917 61.5889 84.6667 62.9223 84.6667C64.0761 84.6667 64.8166 84.0899 64.8166 83.1167C64.8166 82.3257 64.2243 81.8314 62.5274 81.1555C60.1227 80.2155 59.2659 79.342 59.2659 77.6769C59.2659 75.8142 60.699 74.5449 62.8405 74.5449C64.3885 74.5449 65.607 75.254 66.3315 76.6385L64.6186 77.6935C64.2243 76.8367 63.5484 76.3744 62.7735 76.3744C61.9506 76.3744 61.325 76.9191 61.325 77.6277C61.325 78.386 61.8848 78.8145 63.6137 79.4904C66.0682 80.4303 66.8752 81.3038 66.8752 82.9357C66.8752 85.0785 65.2441 86.4962 62.8891 86.4962C60.5999 86.4962 58.8207 85.1278 58.4922 83.0342H58.4928Z" fill="black"/>
<path d="M70.5314 76.6874H66.9414V74.7915H76.1971V76.6874H72.6066V86.2817H70.5314V76.6874Z" fill="black"/>
<path d="M77.1016 82.1272V74.7915H79.1595V81.8958C79.1595 83.841 79.7851 84.5335 81.4825 84.5335C83.1793 84.5335 83.8215 83.8244 83.8215 81.8958V74.7915H85.8794V82.0447C85.8794 85.0284 84.3812 86.5285 81.4825 86.5285C78.5998 86.5285 77.1016 85.0611 77.1016 82.1272Z" fill="black"/>
<path d="M97.5664 74.7915H105.208V76.6874H99.625V79.4237H104.813V81.3196H99.625V84.3857H105.208V86.2811H97.5664V74.7915Z" fill="black"/>
<path d="M105.688 83.0342L107.73 82.5233C107.878 83.8917 108.784 84.6667 110.118 84.6667C111.271 84.6667 112.012 84.0899 112.012 83.1167C112.012 82.3257 111.42 81.8314 109.723 81.1555C107.318 80.2155 106.461 79.342 106.461 77.6769C106.461 75.8142 107.894 74.5449 110.036 74.5449C111.584 74.5449 112.803 75.254 113.527 76.6385L111.814 77.6935C111.42 76.8367 110.743 76.3744 109.969 76.3744C109.146 76.3744 108.52 76.9191 108.52 77.6277C108.52 78.386 109.079 78.8145 110.809 79.4904C113.264 80.4303 114.071 81.3038 114.071 82.9357C114.071 85.0785 112.441 86.4962 110.085 86.4962C107.796 86.4962 106.017 85.1278 105.688 83.0342Z" fill="black"/>
<path d="M91.302 80.7577H89.7608V76.5219H91.2969C92.8632 76.5219 93.8327 77.3279 93.8327 78.6252C93.8327 79.5852 93.3937 80.7337 91.302 80.7577ZM94.0347 82.8083C93.8802 82.6491 93.7217 82.4944 93.5471 82.3352L93.253 82.0706L93.6341 81.9594C95.2589 81.4869 96.0154 80.4249 96.0154 78.6258C96.0154 76.2086 94.1646 74.6506 91.2963 74.6506H87.6914V86.3877H89.7603V82.2487H90.2559C91.6437 82.2487 92.1782 83.1216 92.7425 84.053C93.4218 85.1676 94.1263 86.3155 96.4298 86.3831V84.1303C95.2926 84.0576 94.6803 83.4498 94.0347 82.8083Z" fill="black"/>
<path d="M64.9122 23.7846L71.7511 30.63H57.0352V12.791H73.4772V26.1359L68.0198 20.6738L64.9122 23.7846Z" fill="black"/>
<path d="M79.6019 32.2654L86.4408 39.1108L83.3321 42.2216L77.8741 36.7595V50.1044H94.3156V32.2648H79.6019V32.2654ZM68.0198 42.2216L64.9116 39.1108L71.7506 32.2654H57.0352V50.1049H73.4772V36.7601L68.0198 42.2222V42.2216ZM77.8736 12.7905V26.136L83.3315 20.6738L86.4402 23.7847L79.6013 30.6306H94.315V12.7911H77.8736V12.7905Z" fill="black"/>
</svg>
