<svg width="60" height="83" viewBox="0 0 60 83" fill="none" xmlns="http://www.w3.org/2000/svg">
<path d="M8.25 48.25V20.75L22.25 7.75V46.25H29.25V0.75" stroke="#201E1E" stroke-width="4"/>
<path d="M8.25 48.25V20.75L22.25 7.75V46.25H29.25V0.75" stroke="#201E1E" stroke-width="4"/>
<path d="M15.25 14.75V45.75" stroke="#201E1E" stroke-width="4"/>
<path d="M15.25 14.75V45.75" stroke="#201E1E" stroke-width="4"/>
<path d="M49.75 40.75V21.25L36.25 8.75V46.25H51.75" stroke="#201E1E" stroke-width="4"/>
<path d="M49.75 40.75V21.25L36.25 8.75V46.25H51.75" stroke="#201E1E" stroke-width="4"/>
<path d="M42.75 40.75V14.75" stroke="#201E1E" stroke-width="4"/>
<path d="M42.75 40.75V14.75" stroke="#201E1E" stroke-width="4"/>
<path d="M21.4206 55.795V66.25H19.1706V55.795H21.4206ZM25.0956 55.735V56.365H15.4956V55.735H25.0956ZM25.0956 56.32V58.09L24.9456 58.075V57.91C24.9456 57.44 24.8056 57.07 24.5256 56.8C24.2556 56.52 23.8856 56.375 23.4156 56.365V56.32H25.0956ZM25.0956 55.465V55.9L23.2656 55.735C23.4856 55.735 23.7156 55.72 23.9556 55.69C24.2056 55.66 24.4356 55.625 24.6456 55.585C24.8556 55.545 25.0056 55.505 25.0956 55.465ZM19.2156 65.155V66.25H18.0156V66.1C18.0156 66.1 18.0456 66.1 18.1056 66.1C18.1756 66.1 18.2106 66.1 18.2106 66.1C18.4706 66.1 18.6906 66.01 18.8706 65.83C19.0606 65.64 19.1606 65.415 19.1706 65.155H19.2156ZM21.3756 65.155H21.4206C21.4306 65.415 21.5256 65.64 21.7056 65.83C21.8956 66.01 22.1206 66.1 22.3806 66.1C22.3806 66.1 22.4106 66.1 22.4706 66.1C22.5406 66.1 22.5756 66.1 22.5756 66.1V66.25H21.3756V65.155ZM17.1606 56.32V56.365C16.7006 56.375 16.3306 56.52 16.0506 56.8C15.7806 57.07 15.6456 57.44 15.6456 57.91V58.075L15.4956 58.09V56.32H17.1606ZM15.4956 55.465C15.5956 55.505 15.7456 55.545 15.9456 55.585C16.1556 55.625 16.3856 55.66 16.6356 55.69C16.8856 55.72 17.1156 55.735 17.3256 55.735L15.4956 55.9V55.465ZM29.4455 55.54C29.6455 55.54 29.8905 55.55 30.1805 55.57C30.4805 55.59 30.7855 55.62 31.0955 55.66C31.4155 55.69 31.6905 55.725 31.9205 55.765C32.1605 55.795 32.3255 55.83 32.4155 55.87L32.2355 57.895H32.0855C32.0855 57.375 31.8905 56.96 31.5005 56.65C31.1205 56.33 30.6105 56.17 29.9705 56.17C29.3905 56.17 28.9205 56.31 28.5605 56.59C28.2105 56.87 28.0255 57.21 28.0055 57.61C27.9955 57.91 28.0905 58.17 28.2905 58.39C28.4905 58.61 28.7455 58.815 29.0555 59.005L31.9205 60.865C32.3805 61.125 32.7255 61.465 32.9555 61.885C33.1955 62.305 33.3005 62.795 33.2705 63.355C33.2205 64.335 32.8455 65.1 32.1455 65.65C31.4455 66.19 30.4955 66.46 29.2955 66.46C28.8555 66.46 28.4255 66.42 28.0055 66.34C27.5955 66.27 27.2305 66.17 26.9105 66.04C26.5905 65.9 26.3355 65.735 26.1455 65.545C26.0655 65.325 26.0305 65.06 26.0405 64.75C26.0505 64.44 26.0955 64.125 26.1755 63.805C26.2655 63.485 26.3755 63.22 26.5055 63.01H26.6405C26.6005 63.52 26.6905 63.995 26.9105 64.435C27.1405 64.865 27.4705 65.21 27.9005 65.47C28.3405 65.72 28.8605 65.84 29.4605 65.83C30.1205 65.82 30.6305 65.655 30.9905 65.335C31.3505 65.005 31.5305 64.61 31.5305 64.15C31.5305 63.84 31.4355 63.56 31.2455 63.31C31.0655 63.06 30.7655 62.82 30.3455 62.59L27.7205 60.85C27.1905 60.55 26.8055 60.165 26.5655 59.695C26.3255 59.225 26.2305 58.715 26.2805 58.165C26.3305 57.645 26.4855 57.19 26.7455 56.8C27.0055 56.4 27.3605 56.09 27.8105 55.87C28.2705 55.65 28.8155 55.54 29.4455 55.54ZM32.4305 55.69L32.4005 56.005H30.6305V55.69H32.4305ZM39.2724 55.45L44.1774 66.16H41.4774L38.3574 58.345L39.2724 55.45ZM36.0474 65.155C35.9674 65.355 35.9524 65.525 36.0024 65.665C36.0524 65.805 36.1374 65.915 36.2574 65.995C36.3774 66.065 36.4974 66.1 36.6174 66.1H36.7524V66.25H33.5424V66.1C33.5424 66.1 33.5674 66.1 33.6174 66.1C33.6574 66.1 33.6774 66.1 33.6774 66.1C33.9074 66.1 34.1424 66.03 34.3824 65.89C34.6324 65.74 34.8374 65.495 34.9974 65.155H36.0474ZM39.2724 55.45L39.3324 57.28L35.6124 66.205H34.5174L38.4024 57.415C38.4324 57.355 38.4824 57.245 38.5524 57.085C38.6324 56.915 38.7124 56.725 38.7924 56.515C38.8824 56.305 38.9624 56.105 39.0324 55.915C39.1024 55.715 39.1374 55.56 39.1374 55.45H39.2724ZM40.8474 62.68V63.31H36.4374V62.68H40.8474ZM41.0724 65.155H43.6974C43.8674 65.495 44.0724 65.74 44.3124 65.89C44.5524 66.03 44.7874 66.1 45.0174 66.1C45.0174 66.1 45.0374 66.1 45.0774 66.1C45.1174 66.1 45.1374 66.1 45.1374 66.1V66.25H40.3674V66.1H40.5024C40.7024 66.1 40.8774 66.02 41.0274 65.86C41.1774 65.69 41.1924 65.455 41.0724 65.155Z" fill="#201E1E"/>
<path d="M0.21875 80.25V79.5664L0.824219 79.4492V75.3672L0.21875 75.25V74.5625H2.57422V75.25L1.96484 75.3672V77.0078H4.28516V75.3672L3.67578 75.25V74.5625H4.28516H5.42188H6.03125V75.25L5.42188 75.3672V79.4492L6.03125 79.5664V80.25H3.67578V79.5664L4.28516 79.4492V77.8867H1.96484V79.4492L2.57422 79.5664V80.25H0.21875ZM9.07422 80.332C8.69141 80.332 8.34245 80.2604 8.02734 80.1172C7.71224 79.974 7.4401 79.7734 7.21094 79.5156C6.98438 79.2552 6.8099 78.9505 6.6875 78.6016C6.5651 78.25 6.50391 77.8659 6.50391 77.4492V77.3633C6.50391 76.9492 6.5651 76.5677 6.6875 76.2188C6.8099 75.8672 6.98438 75.5612 7.21094 75.3008C7.4375 75.0404 7.70833 74.8385 8.02344 74.6953C8.33854 74.5521 8.6875 74.4805 9.07031 74.4805C9.45573 74.4805 9.80729 74.5521 10.125 74.6953C10.4427 74.8385 10.7161 75.0404 10.9453 75.3008C11.1745 75.5612 11.3503 75.8672 11.4727 76.2188C11.5977 76.5677 11.6602 76.9492 11.6602 77.3633V77.4492C11.6602 77.8659 11.5977 78.25 11.4727 78.6016C11.3503 78.9505 11.1745 79.2552 10.9453 79.5156C10.7161 79.7734 10.4427 79.974 10.125 80.1172C9.8099 80.2604 9.45964 80.332 9.07422 80.332ZM9.07422 79.4453C9.39714 79.4453 9.66536 79.362 9.87891 79.1953C10.0924 79.0286 10.2526 78.7956 10.3594 78.4961C10.4688 78.1966 10.5234 77.8477 10.5234 77.4492V77.3555C10.5234 76.9622 10.4688 76.6172 10.3594 76.3203C10.25 76.0208 10.0872 75.7878 9.87109 75.6211C9.65755 75.4544 9.39062 75.3711 9.07031 75.3711C8.7526 75.3711 8.48828 75.4544 8.27734 75.6211C8.06641 75.7852 7.90755 76.0156 7.80078 76.3125C7.69661 76.6094 7.64453 76.957 7.64453 77.3555V77.4492C7.64453 77.8477 7.69661 78.1966 7.80078 78.4961C7.90755 78.7956 8.06641 79.0286 8.27734 79.1953C8.49089 79.362 8.75651 79.4453 9.07422 79.4453ZM13.3164 80.25V79.5664L13.9258 79.4492V75.4414H12.8906L12.8281 76.1211H11.9648V74.5625H17.0391V76.1211H16.1719L16.1094 75.4414H15.0664V79.4492L15.6797 79.5664V80.25H13.3164ZM17.4375 80.25V79.5664L18.043 79.4492V75.3672L17.4375 75.25V74.5625H21.8516V76.0977H20.9766L20.9258 75.4414H19.1836V76.8711H21.1094V77.75H19.1836V79.375H21.0195L21.0703 78.6953H21.9375V80.25H17.4375ZM22.5469 80.25V79.5664L23.1523 79.4492V75.3672L22.5469 75.25V74.5625H23.1523H24.293H24.9805V75.25L24.293 75.3672V79.375H25.8984L25.9531 78.543H26.8242V80.25H22.5469ZM31.5156 80.332C31.0964 80.332 30.7148 80.2852 30.3711 80.1914C30.0273 80.0977 29.6888 79.9349 29.3555 79.7031V78.3281H30.2383L30.3594 79.1367C30.4766 79.2357 30.638 79.3164 30.8438 79.3789C31.0495 79.4388 31.2734 79.4688 31.5156 79.4688C31.7214 79.4688 31.8945 79.4401 32.0352 79.3828C32.1784 79.3255 32.2865 79.2448 32.3594 79.1406C32.4349 79.0339 32.4727 78.9089 32.4727 78.7656C32.4727 78.6302 32.4388 78.5104 32.3711 78.4062C32.306 78.2995 32.1966 78.2031 32.043 78.1172C31.8919 78.0286 31.6862 77.944 31.4258 77.8633C30.9753 77.7305 30.6016 77.5859 30.3047 77.4297C30.0104 77.2708 29.7891 77.082 29.6406 76.8633C29.4948 76.6419 29.4219 76.3763 29.4219 76.0664C29.4219 75.7591 29.5065 75.4883 29.6758 75.2539C29.8477 75.0169 30.0846 74.8307 30.3867 74.6953C30.6888 74.5599 31.0378 74.4896 31.4336 74.4844C31.8711 74.4792 32.2578 74.5312 32.5938 74.6406C32.9323 74.75 33.224 74.9023 33.4688 75.0977V76.3789H32.6133L32.4648 75.5977C32.3659 75.5352 32.2318 75.4805 32.0625 75.4336C31.8958 75.3867 31.7057 75.3633 31.4922 75.3633C31.3099 75.3633 31.1484 75.3906 31.0078 75.4453C30.8698 75.5 30.7604 75.5794 30.6797 75.6836C30.599 75.7878 30.5586 75.9141 30.5586 76.0625C30.5586 76.1901 30.5938 76.3021 30.6641 76.3984C30.7344 76.4922 30.8516 76.582 31.0156 76.668C31.1823 76.7513 31.4115 76.8411 31.7031 76.9375C32.3307 77.112 32.806 77.3424 33.1289 77.6289C33.4544 77.9154 33.6172 78.2917 33.6172 78.7578C33.6172 79.0807 33.5299 79.3607 33.3555 79.5977C33.181 79.832 32.9362 80.013 32.6211 80.1406C32.306 80.2682 31.9375 80.332 31.5156 80.332ZM36.8828 80.332C36.4323 80.332 36.0352 80.2539 35.6914 80.0977C35.3503 79.9414 35.0846 79.7148 34.8945 79.418C34.7044 79.1211 34.6094 78.7604 34.6094 78.3359V75.3672L34.0039 75.25V74.5625H36.3594V75.25L35.75 75.3672V78.3359C35.75 78.5859 35.7956 78.7943 35.8867 78.9609C35.9779 79.1276 36.1081 79.2526 36.2773 79.3359C36.4466 79.4167 36.6484 79.457 36.8828 79.457C37.1224 79.457 37.3268 79.4167 37.4961 79.3359C37.668 79.2526 37.7995 79.1276 37.8906 78.9609C37.9818 78.7943 38.0273 78.5859 38.0273 78.3359V75.3672L37.4219 75.25V74.5625H39.7773V75.25L39.168 75.3672V78.3359C39.168 78.7604 39.0716 79.1224 38.8789 79.4219C38.6888 79.7188 38.4219 79.9453 38.0781 80.1016C37.737 80.2552 37.3385 80.332 36.8828 80.332ZM40.1484 80.25V79.5664L40.7539 79.4492V75.3672L40.1484 75.25V74.5625H40.7539H42.8555C43.2904 74.5625 43.6654 74.6393 43.9805 74.793C44.2956 74.944 44.5378 75.1562 44.707 75.4297C44.8763 75.7005 44.9609 76.0169 44.9609 76.3789C44.9609 76.7409 44.8763 77.0586 44.707 77.332C44.5378 77.6029 44.2956 77.8138 43.9805 77.9648C43.6654 78.1133 43.2904 78.1875 42.8555 78.1875H41.8945V79.4492L42.5039 79.5664V80.25H40.1484ZM41.8945 77.3086H42.8555C43.1732 77.3086 43.4128 77.2227 43.5742 77.0508C43.7383 76.8763 43.8203 76.6549 43.8203 76.3867C43.8203 76.1133 43.7383 75.888 43.5742 75.7109C43.4128 75.5312 43.1732 75.4414 42.8555 75.4414H41.8945V77.3086ZM45.3281 80.25V79.5664L45.9336 79.4492V75.3672L45.3281 75.25V74.5625H45.9336H48.0352C48.4701 74.5625 48.8451 74.6393 49.1602 74.793C49.4753 74.944 49.7174 75.1562 49.8867 75.4297C50.056 75.7005 50.1406 76.0169 50.1406 76.3789C50.1406 76.7409 50.056 77.0586 49.8867 77.332C49.7174 77.6029 49.4753 77.8138 49.1602 77.9648C48.8451 78.1133 48.4701 78.1875 48.0352 78.1875H47.0742V79.4492L47.6836 79.5664V80.25H45.3281ZM47.0742 77.3086H48.0352C48.3529 77.3086 48.5924 77.2227 48.7539 77.0508C48.918 76.8763 49 76.6549 49 76.3867C49 76.1133 48.918 75.888 48.7539 75.7109C48.5924 75.5312 48.3529 75.4414 48.0352 75.4414H47.0742V77.3086ZM50.5078 80.25V79.5664L51.1133 79.4492V75.3672L50.5078 75.25V74.5625H51.1133H52.2539H52.9414V75.25L52.2539 75.3672V79.375H53.8594L53.9141 78.543H54.7852V80.25H50.5078ZM55.6484 80.25V79.5664L56.2578 79.4492V78.3008L54.5703 75.3281L54.0234 75.25V74.5625H56.293V75.25L55.8281 75.3164L56.7734 77.1328L56.8594 77.3164L56.8828 77.3125L56.9688 77.1406L58.0195 75.3164L57.3945 75.25V74.5625H59.6211V75.25L59.0586 75.3281L57.3945 78.2109V79.4492L58.0039 79.5664V80.25H55.6484Z" fill="#201E1E"/>
</svg>
