<svg width="91" height="77" viewBox="0 0 91 77" fill="none" xmlns="http://www.w3.org/2000/svg">
<g clip-path="url(#clip0_1145_1901)">
<path fill-rule="evenodd" clip-rule="evenodd" d="M51.3209 45.6326C50.2623 46.7971 49.7992 47.7763 49.8256 48.61C50.6858 48.4512 51.5194 48.2394 52.3266 48.0012C52.9089 45.0106 53.9013 43.8462 56.4817 43.9653C55.6348 45.143 55.3569 46.0825 55.4892 46.8368C56.217 46.5192 56.9184 46.1619 57.5932 45.7781C57.6329 43.2904 58.202 41.8348 60.3456 40.6703C59.8296 42.2053 59.8693 43.2507 60.3192 43.9388C60.4515 43.8329 60.5838 43.7271 60.7162 43.6212C60.9411 43.436 61.1661 43.2375 61.391 43.039C60.7823 40.538 60.9411 38.9765 62.7408 37.4283C62.6217 39.0956 62.9657 40.1278 63.6009 40.7232C63.9053 40.3395 64.1964 39.9425 64.4743 39.5455C63.3627 37.1769 63.2039 35.6022 64.6728 33.6834C64.8712 35.2581 65.3609 36.1977 66.049 36.6608C66.3136 36.0521 66.5386 35.4302 66.7106 34.795C64.8977 32.9953 64.2228 31.5794 64.9506 29.2637C65.6784 30.6928 66.4592 31.3809 67.2796 31.5662C67.3061 31.2089 67.3193 30.8516 67.3193 30.4811C67.3193 30.2694 67.3193 30.0577 67.3061 29.8327C65.5196 28.8535 64.7124 27.9404 64.8315 26.154C65.6652 27.0141 66.4062 27.3847 67.0679 27.4244C66.962 26.8024 66.8297 26.1805 66.6709 25.5718C64.7257 24.844 63.7729 24.0632 63.6538 22.2636C64.514 22.9385 65.255 23.2163 65.8769 23.2031C65.7049 22.7797 65.5196 22.3562 65.3079 21.9328L65.2682 21.8401C63.0584 21.6549 61.8542 21.0991 61.1528 19.1274C62.3173 19.6567 63.1775 19.7097 63.7994 19.4053C63.4553 18.9289 63.0848 18.4526 62.7011 18.0159C60.9676 18.1085 59.9619 17.7909 59.1944 16.3221C59.9884 16.5471 60.5971 16.5603 61.047 16.3883C60.7426 16.1236 60.4118 15.8722 60.081 15.6208C57.805 15.5414 56.3361 14.4431 55.3966 12.6699C57.3948 12.1406 59.0885 12.6963 60.2927 15.0385C60.306 15.0385 60.306 15.0518 60.3192 15.0518C60.7559 15.3693 61.1793 15.7002 61.5763 16.0442C62.0394 15.5811 62.2115 14.7871 62.2247 13.8211C63.4686 14.6548 63.5215 15.8987 63.0319 17.4866C63.4818 17.9894 63.9053 18.5187 64.3022 19.0745C64.8183 18.5584 65.1094 17.7115 65.255 16.6794C66.618 17.91 66.4856 19.4186 65.6255 21.2314C65.7049 21.377 65.7843 21.5358 65.8505 21.6814C66.0754 22.1445 66.2871 22.6209 66.4856 23.1105C67.2134 22.8591 67.7824 22.171 68.2588 21.2579C69.2645 22.7003 68.6426 23.9838 67.2267 25.3468C67.4119 26.0217 67.5575 26.7098 67.6633 27.3847C68.3514 27.1994 68.9602 26.6172 69.5159 25.8364C70.3231 27.4244 69.5159 28.6153 67.9015 29.7665C67.9148 30.018 67.9148 30.2562 67.9148 30.4943C67.9148 30.8649 67.9015 31.2486 67.8751 31.6191C68.7352 31.553 69.6086 30.9707 70.4951 30.1238C70.9054 32.4131 69.5821 33.7231 67.3325 34.7817C67.134 35.5228 66.8694 36.2374 66.565 36.9519C67.3987 37.2166 68.4308 37.0048 69.5689 36.5152C69.1851 38.8045 67.5046 39.5588 65.0697 39.7308C64.7654 40.1939 64.4346 40.6438 64.0773 41.0938C64.8315 41.4775 65.8505 41.4643 67.0017 41.2393C66.1813 43.4227 64.3552 43.7932 61.8806 43.4359C61.616 43.6741 61.3513 43.8991 61.0867 44.1241C60.9676 44.2299 60.8353 44.3225 60.7162 44.4284C61.3646 44.9445 62.3835 45.1297 63.6141 45.1165C62.2379 47.0882 60.3192 47.1014 57.9373 46.2942C57.2095 46.7177 56.4552 47.1014 55.6613 47.4455C56.0847 48.2791 57.1036 48.8614 58.4004 49.2584C56.5214 50.714 54.6159 50.092 52.578 48.5835C51.7179 48.8349 50.8313 49.0599 49.9183 49.2319C50.2094 50.0391 51.0166 50.6875 52.2472 51.2036C50.1432 52.5533 48.1054 51.7064 46.094 49.8274C46.1072 49.7744 46.1205 49.7347 46.1337 49.6818C45.6441 49.7083 45.1545 49.7215 44.6516 49.7215C44.3341 49.7215 44.0297 49.7215 43.7121 49.7083C43.7253 49.748 43.7386 49.8009 43.7518 49.8406C41.7404 51.7196 39.7026 52.5533 37.5986 51.2168C38.7763 50.7139 39.5835 50.092 39.8879 49.3245C38.9483 49.1657 38.022 48.954 37.1222 48.7026C35.1373 50.1449 33.2715 50.6875 31.4321 49.2716C32.6363 48.8878 33.5891 48.3718 34.0655 47.6307C33.2053 47.2602 32.3717 46.8632 31.5645 46.4133C29.3414 47.1146 27.5285 47.0088 26.2185 45.1297C27.2771 45.143 28.1901 45.0106 28.8385 44.6269C28.6268 44.4681 28.4151 44.2961 28.2034 44.1241C27.9652 43.9256 27.7137 43.7138 27.4888 43.5021C25.2525 43.7535 23.5984 43.2904 22.8309 41.2526C23.7969 41.451 24.657 41.4775 25.3451 41.2658C24.9349 40.7629 24.5379 40.2336 24.1806 39.6911C22.0501 39.4397 20.5945 38.6325 20.2505 36.5285C21.1636 36.9255 22.0237 37.1372 22.7515 37.071C22.381 36.2241 22.0766 35.3375 21.8517 34.4377C20.0255 33.5643 18.9669 32.3602 19.2051 30.3356C19.9594 30.9707 20.7004 31.4339 21.4017 31.6059C21.3753 31.2486 21.362 30.8913 21.362 30.5208C21.362 30.3753 21.362 30.2297 21.362 30.0709C19.6683 28.8932 18.7949 27.689 19.6286 26.0482C20.2108 26.8818 20.8592 27.4773 21.6135 27.6228C21.7458 26.8818 21.9178 26.1408 22.1428 25.3998C20.793 24.0765 20.224 22.8194 21.2032 21.4035C21.6664 22.3033 22.2222 22.9782 22.9367 23.2428C23.1352 22.7797 23.347 22.3298 23.5851 21.8798C23.6645 21.7211 23.7572 21.5623 23.8366 21.4035C22.9103 19.5112 22.7118 17.9365 24.1277 16.6662C24.2997 17.8042 24.6305 18.7305 25.2657 19.2201C25.7288 18.5981 26.2317 18.0027 26.7742 17.4336C26.3111 15.8987 26.3772 14.668 27.6079 13.8608C27.6079 14.8003 27.7799 15.5943 28.2298 16.0574C28.6136 15.7399 29.0106 15.4223 29.4208 15.1312C30.6646 12.7096 32.3981 12.1538 34.4227 12.7228C33.47 14.4563 32.0144 15.5149 29.8178 15.5943C29.4605 15.859 29.1032 16.1236 28.7591 16.4015C29.209 16.5868 29.831 16.5868 30.6382 16.3486C29.8575 17.8571 28.8253 18.1614 27.0256 18.0424C26.589 18.5055 26.192 18.9951 25.8082 19.498C26.4037 19.6964 27.1977 19.6038 28.2298 19.1274C27.555 21.0462 26.4037 21.6284 24.2997 21.8269C24.2468 21.9328 24.1806 22.0386 24.1277 22.1445C23.916 22.5415 23.7307 22.9385 23.5454 23.3354C24.1806 23.3619 24.9216 23.0708 25.8082 22.3959C25.6891 24.2353 24.7099 25.016 22.6721 25.757C22.4868 26.379 22.3413 27.0009 22.2354 27.6361C22.8706 27.5567 23.5587 27.1729 24.3394 26.379C24.4585 28.1125 23.691 29.0255 21.984 29.9915C21.984 30.1635 21.9707 30.3356 21.9707 30.5076C21.9707 30.8913 21.984 31.2751 22.0104 31.6588C23.0161 31.6324 23.9292 30.9178 24.6967 29.1446C25.5965 31.4736 24.9613 32.9556 23.1352 34.9538C22.9367 34.8876 22.7515 34.8082 22.5662 34.7421C22.7779 35.4963 23.0426 36.2241 23.3602 36.9255C24.2865 36.5814 24.9349 35.6154 25.1863 33.7231C26.6948 35.6816 26.4963 37.296 25.2922 39.7705C25.1863 39.7705 25.0672 39.7573 24.9613 39.7573C25.2657 40.1807 25.5833 40.6041 25.9141 41.0144C26.7742 40.4983 27.2374 39.4 27.105 37.4812C28.9576 39.0824 29.0767 40.71 28.3754 43.383L28.2695 43.3963C28.3754 43.4889 28.4812 43.5683 28.5871 43.6609C28.8253 43.8594 29.0767 44.0579 29.3281 44.2431C29.9501 43.5683 30.0956 42.4567 29.5002 40.7232C31.7233 41.9274 32.2526 43.4492 32.2658 46.1222C32.9274 46.4795 33.6155 46.7971 34.3169 47.1014C34.5418 46.3074 34.2904 45.3018 33.3641 44.0182C35.9842 43.8991 36.9634 45.1033 37.5457 48.1997C38.3529 48.4115 39.1733 48.5967 40.0202 48.7423C40.0863 47.8954 39.6232 46.8765 38.5381 45.6723C40.9994 45.2224 42.6138 46.453 43.5269 49.0996C43.8974 49.1128 44.2679 49.126 44.6516 49.126C45.2074 49.126 45.7764 49.1128 46.319 49.0731C47.2188 46.4398 48.8332 45.2091 51.2945 45.659L51.3209 45.6326Z" fill="black"/>
<path fill-rule="evenodd" clip-rule="evenodd" d="M36.4086 13.3182L32.5447 3.83031C32.4388 3.87001 32.3197 3.89647 32.1874 3.89647C31.6978 3.89647 31.3008 3.53919 31.3008 3.08927C31.3008 2.63936 31.6978 2.28208 32.1874 2.28208C32.677 2.28208 33.074 2.63936 33.074 3.08927C33.074 3.301 32.9813 3.49949 32.8358 3.64505L37.0438 7.76043C37.3217 7.87952 37.8245 7.65456 38.1156 7.5487L38.0627 2.82462C37.5863 2.81139 37.1893 2.4541 37.1893 2.01742C37.1893 1.56751 37.5863 1.21023 38.0759 1.21023C38.5655 1.21023 38.9625 1.56751 38.9625 2.01742C38.9625 2.29531 38.817 2.5335 38.592 2.67906L41.887 7.38991C42.1913 7.5487 42.4957 7.53547 42.7868 7.38991L44.5732 1.8057C44.2027 1.71307 43.938 1.39549 43.938 1.02497C43.938 0.575057 44.335 0.217773 44.8246 0.217773C45.3142 0.217773 45.7112 0.575057 45.7112 1.02497C45.7112 1.39549 45.4466 1.69984 45.076 1.8057L46.9154 7.509C47.3785 7.61487 47.8417 7.64133 48.3313 7.52224L51.5998 2.85109C51.3219 2.71876 51.1234 2.44087 51.1234 2.13652C51.1234 1.68661 51.5204 1.32932 52.01 1.32932C52.4996 1.32932 52.8966 1.68661 52.8966 2.13652C52.8966 2.58643 52.4996 2.94371 52.01 2.94371H51.9968L51.8512 8.07801C52.0629 8.26327 52.3673 8.28973 52.751 8.17064L56.9326 4.09496C56.6944 3.9494 56.5224 3.69798 56.5224 3.42009C56.5224 2.97018 56.9193 2.6129 57.4089 2.6129C57.8986 2.6129 58.2955 2.97018 58.2955 3.42009C58.2955 3.87001 57.8986 4.22729 57.4089 4.22729C57.3295 4.22729 57.2502 4.21406 57.184 4.20082L53.2274 13.3182C47.1933 11.3862 41.6355 11.5847 36.4218 13.3182H36.4086ZM45.301 9.07047L45.9626 9.94383C46.1347 10.1688 46.095 10.4864 45.87 10.6584L45.1422 11.2142C44.9173 11.3862 44.5997 11.3465 44.4276 11.1215L43.766 10.2482C43.594 10.0232 43.6337 9.70564 43.8586 9.53361L44.5864 8.97784C44.8114 8.80581 45.129 8.84551 45.301 9.07047ZM39.161 9.91736L39.5315 10.3937C39.6242 10.5128 39.5977 10.6981 39.4786 10.7907L39.0684 11.0951C38.9493 11.1877 38.764 11.1612 38.6714 11.0421L38.3009 10.5658C38.2083 10.4467 38.2347 10.2614 38.3538 10.1688L38.764 9.86443C38.8831 9.7718 39.0684 9.79827 39.161 9.91736ZM51.2822 10.1555L51.6527 10.6319C51.7453 10.751 51.7189 10.9363 51.5998 11.0289L51.1896 11.3333C51.0705 11.4259 50.8852 11.3994 50.7926 11.2803L50.4221 10.804C50.3294 10.6849 50.3559 10.4996 50.475 10.407L50.8852 10.1026C51.0043 10.01 51.1896 10.0365 51.2822 10.1555Z" fill="black"/>
<path d="M5.31051 67.5327C5.31051 68.234 5.25757 68.803 5.15171 69.2397C5.04585 69.6764 4.86059 70.0734 4.60917 70.4042C4.30482 70.8144 3.90784 71.1849 3.40499 71.4893C2.80952 71.8598 2.08172 72.1774 1.20836 72.442L0.71875 71.2379C1.11573 71.0658 1.40685 70.8938 1.60534 70.735C1.7906 70.5762 1.93616 70.4042 2.02879 70.2322C2.12142 70.0469 2.17435 69.822 2.21405 69.5573C2.25375 69.2927 2.26698 68.8957 2.26698 68.3796V57.714C2.26698 57.4097 2.25375 57.145 2.24051 56.9465C2.22728 56.7348 2.17435 56.5628 2.10819 56.4304C2.04202 56.2981 1.93616 56.1923 1.7906 56.1129C1.64504 56.0335 1.45978 55.9541 1.20836 55.8879V55.2395H6.34266V55.8879C6.06477 55.9673 5.86628 56.0335 5.74719 56.1261C5.61486 56.2055 5.52223 56.3114 5.4693 56.4304C5.40313 56.5495 5.36344 56.6951 5.33697 56.8804C5.31051 57.0656 5.29727 57.3435 5.29727 57.714V67.5195L5.31051 67.5327Z" fill="black"/>
<path d="M13.0104 64.5552H8.37891L8.94791 62.5042H13.5794L13.0104 64.5552Z" fill="black"/>
<path d="M22.4589 58.7329C22.5648 58.455 22.631 58.2036 22.6839 57.9522C22.7368 57.714 22.7633 57.4626 22.7633 57.1847C22.7633 56.8671 22.6839 56.6157 22.5119 56.4569C22.3531 56.2849 22.0884 56.1923 21.7444 56.1658V55.5174H25.9656V56.1658C25.7142 56.2055 25.5025 56.2849 25.3304 56.404C25.1584 56.5231 24.9996 56.6951 24.8673 56.9201C24.7217 57.145 24.563 57.5155 24.3777 58.0184L20.2755 68.9354H18.0128L14.784 57.9787C14.6384 57.4891 14.5193 57.145 14.4267 56.9333C14.3341 56.7348 14.2017 56.5628 14.0429 56.4304C13.8841 56.2981 13.6724 56.2055 13.3945 56.1526V55.5042H18.8067V56.1526C18.4627 56.1922 18.2112 56.2849 18.0525 56.4304C17.8937 56.576 17.8143 56.801 17.8143 57.0656C17.8143 57.2773 17.8407 57.4891 17.8672 57.7008C17.9069 57.8993 17.9863 58.2301 18.1186 58.68L20.0506 65.7066L22.4589 58.7065V58.7329Z" fill="black"/>
<path d="M30.9288 66.4211C30.9288 66.6461 30.942 66.8578 30.9552 67.0563C30.9685 67.2548 30.9949 67.4136 31.0346 67.5326C31.0743 67.6517 31.1272 67.7576 31.2066 67.837C31.286 67.9296 31.3919 67.9958 31.511 68.062C31.6433 68.1281 31.8021 68.1811 31.9874 68.2208V68.8692H26.8531V68.2208C27.0913 68.1546 27.2898 68.0884 27.4221 68.009C27.5676 67.9296 27.6603 67.8238 27.7264 67.6914C27.7926 67.5591 27.8455 67.3871 27.8588 67.1886C27.8852 66.9769 27.8852 66.7255 27.8852 66.4079V57.9654C27.8852 57.661 27.872 57.3964 27.8588 57.1979C27.8455 56.9994 27.8058 56.8274 27.7264 56.695C27.6603 56.5627 27.5544 56.4569 27.4221 56.3775C27.2765 56.2981 27.0913 56.2319 26.8398 56.1657V55.5173H31.9741V56.1657C31.7095 56.2451 31.511 56.3113 31.3787 56.3907C31.2463 56.4701 31.1537 56.576 31.0875 56.695C31.0214 56.8141 30.9685 56.9597 30.9552 57.1582C30.9288 57.3435 30.9155 57.6213 30.9155 57.9919V66.4211H30.9288Z" fill="black"/>
<path d="M43.5655 55.8216V58.6534H42.2422C42.0834 57.9124 41.832 57.3698 41.5012 57.0258C41.1704 56.6685 40.7205 56.4965 40.1779 56.4965C39.1458 56.4965 38.365 56.9861 37.8357 57.9785C37.3064 58.971 37.0418 60.4398 37.0418 62.3718C37.0418 64.1847 37.28 65.5477 37.7696 66.4739C38.2592 67.4002 38.9605 67.8634 39.9 67.8634C40.3764 67.8634 40.7602 67.784 41.0645 67.6252C41.3556 67.4664 41.6071 67.2282 41.7791 66.9106C41.9643 66.593 42.1099 66.1431 42.2422 65.5609H43.5787V68.525C42.8642 68.697 42.2025 68.8161 41.6203 68.8955C41.0248 68.9749 40.4029 69.0146 39.7677 69.0146C38.418 69.0146 37.3064 68.7764 36.4463 68.2736C35.5862 67.784 34.951 67.0429 34.554 66.0637C34.1438 65.0713 33.9453 63.8274 33.9453 62.3056C33.9453 60.8897 34.1835 59.6591 34.6599 58.6137C35.1363 57.5683 35.8508 56.7611 36.7771 56.1921C37.7166 55.6231 38.8282 55.3452 40.125 55.3452C40.7866 55.3452 41.3821 55.3849 41.9114 55.4511C42.454 55.5305 43.0097 55.6363 43.5787 55.8084L43.5655 55.8216Z" fill="black"/>
<path d="M48.1051 68.8692V68.2208C48.383 68.1678 48.5948 68.1149 48.7535 68.0355C48.9123 67.9561 49.0314 67.8502 49.1108 67.7179C49.1902 67.5856 49.2432 67.4136 49.2564 67.1886C49.2829 66.9769 49.2829 66.7122 49.2829 66.4079V56.6553H48.4889C48.0919 56.6553 47.8008 56.695 47.5891 56.7877C47.3773 56.8803 47.1921 57.0259 47.0465 57.2244C46.901 57.4228 46.7686 57.6875 46.6495 58.0051C46.5437 58.3359 46.4511 58.6403 46.3717 58.9446H45.0352V55.5173H56.5476V58.9446H55.2111C55.092 58.4947 54.9862 58.1771 54.92 57.9654C54.8538 57.7537 54.7744 57.5816 54.6818 57.4361C54.5892 57.2905 54.4966 57.1714 54.4039 57.0656C54.3113 56.9729 54.2054 56.8935 54.0863 56.8274C53.9805 56.7744 53.8349 56.7215 53.6761 56.695C53.5041 56.6686 53.2924 56.6553 53.0277 56.6553H52.3264V66.4079C52.3264 66.7519 52.3396 67.0166 52.3529 67.1886C52.3661 67.3739 52.4058 67.5194 52.4587 67.6253C52.5116 67.7311 52.5778 67.8238 52.644 67.8899C52.7234 67.9561 52.8292 68.0223 52.9616 68.0752C53.0939 68.1281 53.2791 68.1811 53.5041 68.2075V68.8559H48.1051V68.8692Z" fill="black"/>
<path fill-rule="evenodd" clip-rule="evenodd" d="M62.8739 64.7405H58.6923L58.3747 65.6668C58.2821 65.9314 58.2027 66.1829 58.1498 66.4211C58.0969 66.6592 58.0572 66.9239 58.0572 67.2018C58.0572 67.837 58.388 68.181 59.0761 68.2339V68.8823H54.8945V68.2339C55.1327 68.2075 55.3444 68.1148 55.5297 67.9825C55.715 67.837 55.8738 67.6385 56.0325 67.4003C56.1781 67.1489 56.3369 66.7916 56.5089 66.3284L60.3729 56.0334C59.9494 55.8613 59.4863 55.8084 58.9967 55.8481L59.0496 55.5041L60.5978 55.4644H60.7302H63.2179L66.4467 66.4211C66.5923 66.9107 66.7114 67.2547 66.804 67.4664C66.8966 67.6649 67.0289 67.837 67.1877 67.9693C67.3465 68.1016 67.5715 68.1942 67.8494 68.2472V68.8956H62.4504V68.2472C62.7945 68.2075 63.0459 68.1148 63.2047 67.9693C63.3635 67.8237 63.4429 67.5988 63.4429 67.3341C63.4429 67.1356 63.4164 66.9107 63.3767 66.6592C63.3238 66.4078 63.2576 66.1035 63.1518 65.7197L62.8871 64.767L62.8739 64.7405ZM59.0761 63.5893H62.596L61.0345 58.0844L59.0761 63.5893Z" fill="black"/>
<path d="M76.8473 57.9787C76.8473 57.4891 76.8208 57.145 76.7811 56.9597C76.7414 56.7745 76.662 56.6157 76.5297 56.4966C76.3974 56.3775 76.1592 56.2716 75.8019 56.179V55.5306H80.1025V56.179C79.8643 56.2452 79.6791 56.3113 79.5468 56.3907C79.4144 56.4701 79.3086 56.576 79.2292 56.7083C79.163 56.8407 79.1101 57.0127 79.0968 57.2112C79.0704 57.4229 79.0704 57.6743 79.0704 57.9919V64.1054C79.0704 64.9126 79.0042 65.5875 78.8719 66.13C78.7396 66.6726 78.5411 67.1357 78.2632 67.5062C77.9853 67.8767 77.6545 68.1811 77.2443 68.4061C76.834 68.631 76.3841 68.803 75.8681 68.8957C75.3652 68.9883 74.783 69.0412 74.161 69.0412C73.2347 69.0412 72.454 68.9486 71.8056 68.7501C71.1704 68.5648 70.6411 68.2737 70.2441 67.8767C69.8472 67.4798 69.5428 67.0166 69.3576 66.4608C69.1591 65.9051 69.0664 65.1905 69.0664 64.3171V57.9787C69.0664 57.6743 69.0532 57.4097 69.04 57.2112C69.0267 56.9994 68.9738 56.8274 68.9076 56.6951C68.8415 56.5628 68.7356 56.4569 68.5901 56.3775C68.4445 56.2981 68.2592 56.2187 68.0078 56.1526V55.5042H73.1421V56.1526C72.8775 56.2319 72.679 56.2981 72.5466 56.3775C72.4143 56.4569 72.3217 56.5628 72.2555 56.6819C72.1894 56.801 72.1497 56.9465 72.1232 57.145C72.0967 57.3303 72.0835 57.6082 72.0835 57.9787V64.4362C72.0835 64.9523 72.1232 65.4155 72.1894 65.8521C72.2555 66.2756 72.3746 66.6461 72.5466 66.9372C72.7187 67.2416 72.9569 67.4798 73.2612 67.6386C73.5656 67.7973 73.9625 67.8767 74.4389 67.8767C75.1006 67.8767 75.6034 67.7444 75.9342 67.4798C76.2518 67.2151 76.49 66.8446 76.6223 66.355C76.7546 65.8786 76.8208 65.164 76.8208 64.2113V57.9654L76.8473 57.9787Z" fill="black"/>
<path d="M83.0117 65.5741C83.1704 66.3548 83.4483 66.9239 83.8321 67.3076C84.2158 67.6913 84.7716 67.8766 85.5126 67.8766C85.8964 67.8766 86.2404 67.8104 86.5448 67.6781C86.8491 67.5458 87.1006 67.3341 87.2858 67.0429C87.4711 66.7518 87.5637 66.3945 87.5637 65.9446C87.5637 65.5344 87.4843 65.1904 87.3388 64.8992C87.1932 64.6081 86.9418 64.317 86.611 64.0524C86.2801 63.7877 85.817 63.4966 85.2215 63.2055C84.7054 62.954 84.2555 62.6894 83.8453 62.4115C83.4351 62.1336 83.0778 61.8425 82.7999 61.5117C82.5088 61.1809 82.2839 60.8236 82.1251 60.4266C81.9663 60.0296 81.8869 59.5929 81.8869 59.1033C81.8869 58.2961 82.0854 57.6212 82.4823 57.0655C82.8793 56.5097 83.4616 56.073 84.2026 55.7819C84.9569 55.4908 85.8302 55.3452 86.8227 55.3452C87.4049 55.3452 87.9607 55.3717 88.49 55.4378C89.0193 55.504 89.628 55.6099 90.3029 55.7687V58.6137H88.9664C88.8473 58.0976 88.6885 57.6874 88.49 57.3831C88.2915 57.0787 88.0533 56.8537 87.7622 56.7082C87.4711 56.5626 87.1138 56.4965 86.6771 56.4965C86.3066 56.4965 85.9758 56.5626 85.6847 56.695C85.3935 56.8273 85.1554 57.0258 84.9966 57.2772C84.8245 57.5286 84.7451 57.8462 84.7451 58.2167C84.7451 58.6005 84.8245 58.9181 84.9701 59.1959C85.1157 59.4738 85.3671 59.7385 85.7111 60.0031C86.0552 60.2678 86.558 60.5721 87.2197 60.903C88.0269 61.3264 88.662 61.7366 89.1119 62.1336C89.5751 62.5306 89.9191 62.9673 90.1309 63.4436C90.3426 63.92 90.4617 64.4626 90.4617 65.0977C90.4617 65.9049 90.2764 66.593 89.9059 67.1885C89.5354 67.7707 88.9928 68.2339 88.2783 68.5515C87.5637 68.8691 86.7433 69.0279 85.817 69.0279C85.1554 69.0279 84.454 68.9882 83.7395 68.9088C83.0117 68.8294 82.3368 68.7235 81.7148 68.5779V65.5609H83.0514L83.0117 65.5741Z" fill="black"/>
<path d="M5.54862 73.633L5.04578 75.0489H6.025L5.54862 73.633ZM5.64125 72.6273H6.14409L7.45413 76.1869C7.49383 76.2928 7.54676 76.3722 7.61293 76.4119C7.66586 76.4516 7.77172 76.478 7.90405 76.478V76.7427C7.65262 76.7294 7.45413 76.7294 7.32181 76.7162C7.18948 76.7162 7.07038 76.7162 6.99099 76.7162C6.91159 76.7162 6.7925 76.7162 6.66017 76.7162C6.52784 76.7162 6.31612 76.7294 6.05147 76.7427V76.478C6.21026 76.4648 6.31612 76.4516 6.36905 76.4251C6.42198 76.3986 6.44845 76.3589 6.44845 76.2928C6.44845 76.2531 6.44845 76.2266 6.44845 76.2134C6.44845 76.2001 6.44845 76.1869 6.43521 76.1737L6.14409 75.34H4.96638L4.71496 76.0413V76.0546C4.67526 76.1604 4.66203 76.2398 4.66203 76.2928C4.66203 76.3589 4.68849 76.3986 4.72819 76.4251C4.76789 76.4516 4.86052 76.4648 5.00608 76.478V76.7427C4.84729 76.7294 4.72819 76.7294 4.6488 76.7162C4.5694 76.7162 4.50324 76.7162 4.45031 76.7162C4.39737 76.7162 4.33121 76.7162 4.25181 76.7162C4.17242 76.7162 4.05332 76.7294 3.89453 76.7427V76.478C4.02686 76.478 4.10625 76.4516 4.17242 76.4119C4.22535 76.3722 4.27828 76.2928 4.33121 76.1604L5.65448 72.6273H5.64125ZM9.41258 74.6651C9.43904 74.6651 9.49197 74.6651 9.57137 74.6784C9.63753 74.6784 9.69046 74.6916 9.73016 74.6916C10.008 74.6916 10.2065 74.6254 10.3389 74.4799C10.4712 74.3343 10.5374 74.1094 10.5374 73.805C10.5374 73.5139 10.4712 73.2889 10.3389 73.1566C10.2065 73.0243 9.99482 72.9581 9.7037 72.9581H9.43904V74.6784L9.41258 74.6651ZM7.99668 72.667C8.129 72.6802 8.26133 72.6802 8.40689 72.6802C8.55245 72.6802 8.71124 72.6802 8.87004 72.6802C9.02883 72.6802 9.22732 72.6802 9.45228 72.667C9.67723 72.6538 9.82279 72.6538 9.88896 72.6538C10.4447 72.6538 10.8549 72.7464 11.1064 72.9184C11.371 73.0904 11.4901 73.3683 11.4901 73.7388C11.4901 74.1491 11.371 74.4534 11.1196 74.6519C10.8682 74.8504 10.4844 74.943 9.98158 74.943C9.90219 74.943 9.82279 74.943 9.73016 74.943C9.63753 74.943 9.53167 74.9298 9.39934 74.9166V75.9487C9.39934 76.1604 9.42581 76.2928 9.47874 76.3589C9.53167 76.4119 9.664 76.4516 9.84926 76.4516H9.96835V76.7162C9.7434 76.703 9.5449 76.703 9.37288 76.6897C9.20085 76.6897 9.05529 76.6765 8.94943 76.6765C8.8568 76.6765 8.72448 76.6765 8.56568 76.6897C8.40689 76.6897 8.2084 76.703 7.98344 76.7162V76.4516C8.19517 76.4516 8.32749 76.4251 8.38042 76.3722C8.43336 76.3192 8.45982 76.1737 8.45982 75.9619V73.4213C8.45982 73.2095 8.43336 73.0772 8.38042 73.011C8.32749 72.9581 8.19517 72.9317 7.98344 72.9184V72.6538L7.99668 72.667ZM12.8663 73.6198L12.3635 75.0357H13.3427L12.8663 73.6198ZM12.9589 72.6141H13.4618L14.7718 76.1737C14.8115 76.2795 14.8645 76.3589 14.9306 76.3986C14.9836 76.4383 15.0894 76.4648 15.2217 76.4648V76.7294C14.9703 76.7162 14.7718 76.7162 14.6395 76.703C14.5072 76.703 14.3881 76.703 14.3087 76.703C14.2293 76.703 14.1102 76.703 13.9779 76.703C13.8455 76.703 13.6338 76.7162 13.3692 76.7294V76.4648C13.528 76.4516 13.6338 76.4383 13.6867 76.4119C13.7397 76.3854 13.7661 76.3457 13.7661 76.2795C13.7661 76.2398 13.7661 76.2134 13.7661 76.2001C13.7661 76.1869 13.7661 76.1737 13.7529 76.1604L13.4618 75.3268H12.2841L12.0327 76.0281V76.0413C11.993 76.1472 11.9797 76.2266 11.9797 76.2795C11.9797 76.3457 12.0062 76.3854 12.0459 76.4119C12.0856 76.4383 12.1782 76.4516 12.3238 76.4648V76.7294C12.165 76.7162 12.0459 76.7162 11.9665 76.703C11.8871 76.703 11.8209 76.703 11.768 76.703C11.7151 76.703 11.6489 76.703 11.5695 76.703C11.4901 76.703 11.371 76.7162 11.2122 76.7294V76.4648C11.3446 76.4648 11.424 76.4383 11.4901 76.3986C11.543 76.3589 11.596 76.2795 11.6489 76.1472L12.9722 72.6141H12.9589ZM16.7303 74.546H16.7964H16.9155C17.2464 74.546 17.4713 74.4799 17.6169 74.3608C17.7492 74.2285 17.8154 74.0167 17.8154 73.7124C17.8154 73.4477 17.7492 73.2492 17.6301 73.1301C17.4978 73.011 17.2993 72.9449 17.0214 72.9449C16.9949 72.9449 16.9552 72.9449 16.8891 72.9449C16.8229 72.9449 16.77 72.9581 16.7435 72.9581V74.546H16.7303ZM15.3144 72.667C15.4467 72.6802 15.5658 72.6802 15.7114 72.6802C15.8437 72.6802 15.9892 72.6802 16.1348 72.6802C16.2804 72.6802 16.4789 72.6802 16.7435 72.667C17.0082 72.6538 17.1934 72.6538 17.3125 72.6538C17.7889 72.6538 18.1462 72.7332 18.3976 72.9052C18.649 73.0772 18.7681 73.3286 18.7681 73.6594C18.7681 73.977 18.6623 74.2152 18.4638 74.3873C18.2653 74.546 17.9477 74.6519 17.5242 74.6784C17.8948 74.7048 18.1726 74.7842 18.3447 74.9166C18.5167 75.0489 18.6226 75.2474 18.6623 75.5253C18.6755 75.6047 18.6887 75.7238 18.6887 75.8693C18.702 76.1604 18.7813 76.306 18.9137 76.306C18.9798 76.306 19.046 76.2795 19.0857 76.2266C19.1254 76.1737 19.1651 76.081 19.1916 75.9619L19.3901 75.9884C19.3636 76.2531 19.271 76.4516 19.1254 76.5706C18.9798 76.703 18.7813 76.7691 18.5299 76.7691C18.2653 76.7691 18.08 76.703 17.9609 76.5574C17.8418 76.4119 17.7889 76.1869 17.7889 75.8693V75.5782C17.7889 75.2606 17.736 75.0489 17.6169 74.9563C17.511 74.8636 17.286 74.8107 16.9685 74.8107H16.7303V75.9487C16.7303 76.1604 16.7567 76.306 16.8097 76.3589C16.8626 76.4119 16.9949 76.4383 17.2067 76.4383V76.703C17.0082 76.6897 16.8229 76.6897 16.6773 76.6765C16.5185 76.6765 16.3862 76.6633 16.2804 76.6633C16.1745 76.6633 16.0422 76.6633 15.8834 76.6765C15.7246 76.6765 15.5393 76.6897 15.3276 76.703V76.4383C15.5393 76.4383 15.6717 76.4119 15.7246 76.3589C15.7775 76.306 15.804 76.1737 15.804 75.9487V73.3948C15.804 73.1831 15.7775 73.0507 15.7246 72.9846C15.6717 72.9316 15.5393 72.9052 15.3276 72.892V72.6273L15.3144 72.667ZM19.3768 72.667H23.1349L23.254 73.7918H23.0158C22.9629 73.461 22.8835 73.236 22.7776 73.1169C22.6718 72.9978 22.4733 72.9449 22.1822 72.9449H21.7322V75.9752C21.7322 76.2001 21.7587 76.3457 21.8116 76.3854C21.8646 76.4383 21.9969 76.4648 22.2086 76.4648H22.2748V76.7294C22.0631 76.7162 21.8778 76.7162 21.7058 76.703C21.5338 76.703 21.4014 76.6897 21.2823 76.6897C21.1632 76.6897 21.0177 76.6897 20.8457 76.703C20.6736 76.703 20.4751 76.7162 20.2502 76.7294V76.4648H20.3031C20.5148 76.4648 20.6472 76.4383 20.7001 76.3854C20.753 76.3325 20.7927 76.2001 20.7927 75.9752V72.9449H20.3428C20.0649 72.9449 19.8664 72.9978 19.7473 73.1169C19.6282 73.236 19.5488 73.461 19.5091 73.7918H19.271L19.3901 72.667H19.3768ZM23.5451 72.667C23.7172 72.6802 23.8495 72.6802 23.9686 72.6935C24.0877 72.6935 24.1803 72.7067 24.2729 72.7067C24.3391 72.7067 24.4317 72.7067 24.5508 72.6935C24.6699 72.6935 24.8287 72.6802 25.0537 72.667L26.1123 75.6444L27.1577 72.667C27.3297 72.6802 27.4752 72.6802 27.5943 72.6935C27.7134 72.6935 27.8061 72.7067 27.8855 72.7067C27.9649 72.7067 28.0707 72.7067 28.1766 72.6935C28.2957 72.6935 28.4412 72.6802 28.6265 72.667V72.9316C28.428 72.9316 28.2957 72.9581 28.2427 73.011C28.1898 73.064 28.1633 73.1963 28.1633 73.408V75.9619C28.1633 76.1869 28.1898 76.3192 28.2427 76.3722C28.2957 76.4251 28.428 76.4516 28.6265 76.4516V76.7162C28.4148 76.703 28.2295 76.703 28.084 76.6897C27.9252 76.6897 27.8061 76.6765 27.7002 76.6765C27.5811 76.6765 27.4488 76.6765 27.3032 76.6897C27.1444 76.6897 26.9724 76.703 26.7871 76.7162V76.4516C26.9989 76.4516 27.118 76.4251 27.1841 76.3722C27.2371 76.3192 27.2635 76.1737 27.2635 75.9619V73.1831H27.2371L25.9799 76.7162L25.5433 76.6765L24.3126 73.1698H24.2862L24.2597 75.8561V75.9222C24.2597 76.134 24.2862 76.2795 24.3523 76.3457C24.4185 76.3986 24.5376 76.4383 24.7228 76.4383V76.703C24.6037 76.6897 24.4846 76.6897 24.3788 76.6897C24.2729 76.6897 24.1935 76.6897 24.1274 76.6897C24.0347 76.6897 23.8495 76.6897 23.5981 76.703C23.5451 76.703 23.4922 76.703 23.4657 76.703V76.4383C23.6907 76.4383 23.823 76.3986 23.8892 76.3457C23.9553 76.2928 23.9818 76.134 23.9818 75.8958L24.0215 73.2095V73.1831C24.0215 73.064 23.995 72.9978 23.9421 72.9581C23.8892 72.9184 23.7569 72.9052 23.5451 72.9052V72.6405V72.667ZM32.4375 72.6405C32.4508 72.8523 32.4508 73.0507 32.464 73.236C32.4772 73.408 32.4904 73.5933 32.5037 73.7521H32.2655C32.239 73.4345 32.1596 73.2228 32.0405 73.1169C31.9214 73.011 31.6833 72.9449 31.3392 72.9449H30.4923V74.4402H30.8496C31.0878 74.4402 31.2466 74.4005 31.2995 74.3343C31.3524 74.2682 31.3921 74.0961 31.4186 73.8182H31.6568C31.6568 73.8579 31.6568 73.9109 31.6568 73.977C31.6436 74.2814 31.6436 74.4931 31.6436 74.6122C31.6436 74.7313 31.6568 74.9563 31.6568 75.2738C31.6568 75.3532 31.6568 75.4062 31.6568 75.4459H31.4186C31.4054 75.1547 31.3657 74.9563 31.2863 74.8636C31.2069 74.771 31.0613 74.7181 30.8496 74.7181H30.4923V76.4648H31.5112C31.8685 76.4648 32.1067 76.3986 32.239 76.2663C32.3714 76.134 32.4508 75.8825 32.4904 75.512H32.7286C32.7154 75.7105 32.7022 75.9222 32.6889 76.1207C32.6757 76.3192 32.6625 76.531 32.6625 76.7294H29.0632V76.4648C29.2749 76.4648 29.4072 76.4383 29.4602 76.3854C29.5131 76.3325 29.5396 76.1869 29.5396 75.9752V73.4345C29.5396 73.2228 29.5131 73.0904 29.4602 73.0243C29.4072 72.9713 29.2749 72.9449 29.0632 72.9316V72.667H29.8307C30.3071 72.667 30.757 72.667 31.1936 72.667C31.6171 72.667 32.0405 72.6538 32.4375 72.6538V72.6405ZM33.0859 72.667C33.2447 72.6802 33.3903 72.6802 33.4961 72.6935C33.602 72.6935 33.7079 72.7067 33.7873 72.7067C33.8667 72.7067 33.9725 72.7067 34.0916 72.6935C34.2107 72.6935 34.3563 72.6802 34.5283 72.667L36.6323 75.512V73.4874C36.6323 73.236 36.6058 73.0904 36.5397 73.0243C36.4735 72.9581 36.3544 72.9316 36.1559 72.9316H36.1294V72.667C36.2882 72.6802 36.4206 72.6802 36.5264 72.6935C36.6323 72.6935 36.7117 72.7067 36.7911 72.7067C36.844 72.7067 36.9234 72.7067 37.016 72.6935C37.1087 72.6935 37.241 72.6802 37.3998 72.667V72.9316C37.2013 72.9316 37.069 72.9581 37.0028 73.0243C36.9499 73.0904 36.9102 73.236 36.9102 73.4874V75.1415C36.9102 75.3665 36.9102 75.6179 36.9102 75.8958C36.9102 76.1737 36.8969 76.4648 36.8969 76.7691L36.4073 76.7294L33.8931 73.3419V75.909C33.8931 76.1604 33.9196 76.3192 33.9857 76.3722C34.0519 76.4251 34.1842 76.4648 34.4092 76.4648V76.7294C34.2239 76.7162 34.0784 76.7162 33.9725 76.703C33.8799 76.703 33.8005 76.703 33.7476 76.703C33.6946 76.703 33.6285 76.703 33.5491 76.703C33.4697 76.703 33.3241 76.7162 33.1124 76.7294V76.4648C33.3241 76.4648 33.4564 76.4383 33.5226 76.3722C33.5888 76.306 33.6152 76.1604 33.6152 75.909V73.4213C33.6152 73.2095 33.5888 73.064 33.5226 73.011C33.4697 72.9581 33.3241 72.9316 33.0992 72.9316V72.667H33.0859ZM37.7306 72.667H41.4887L41.6078 73.7918H41.3696C41.3167 73.461 41.2373 73.236 41.1314 73.1169C41.0256 72.9978 40.8271 72.9449 40.5359 72.9449H40.086V75.9752C40.086 76.2001 40.1125 76.3457 40.1654 76.3854C40.2184 76.4383 40.3507 76.4648 40.5624 76.4648H40.6286V76.7294C40.4169 76.7162 40.2316 76.7162 40.0596 76.703C39.8875 76.703 39.7552 76.6897 39.6361 76.6897C39.517 76.6897 39.3715 76.6897 39.1994 76.703C39.0274 76.703 38.8289 76.7162 38.604 76.7294V76.4648H38.6569C38.8686 76.4648 39.0009 76.4383 39.0539 76.3854C39.1068 76.3325 39.1465 76.2001 39.1465 75.9752V72.9449H38.6966C38.4187 72.9449 38.2202 72.9978 38.1011 73.1169C37.982 73.236 37.9026 73.461 37.8629 73.7918H37.6247L37.7438 72.667H37.7306ZM44.6381 72.9581L44.6778 72.7199H44.8763V73.2757V73.6991V73.9373H44.6513C44.6249 73.6065 44.519 73.3551 44.347 73.1698C44.1749 72.9846 43.9368 72.892 43.6589 72.892C43.4471 72.892 43.2751 72.9449 43.156 73.064C43.0237 73.1831 42.9708 73.3286 42.9708 73.5271C42.9708 73.6859 43.0105 73.8182 43.1031 73.9109C43.1957 74.0035 43.4207 74.1226 43.7647 74.2549C44.3073 74.4534 44.6646 74.6519 44.8234 74.8239C44.9821 75.0092 45.0748 75.2474 45.0748 75.5517C45.0748 75.9222 44.9424 76.2134 44.6646 76.4383C44.3867 76.6633 44.0294 76.7691 43.5662 76.7691C43.3281 76.7691 43.1031 76.7294 42.9046 76.6633C42.7061 76.5971 42.5209 76.478 42.3488 76.3325L42.2827 76.6368H42.0842V76.3457V75.909V75.5517V75.2606H42.3224C42.3488 75.6444 42.4679 75.9487 42.6796 76.1737C42.8914 76.3986 43.156 76.5045 43.5001 76.5045C43.7118 76.5045 43.8706 76.4516 43.9897 76.3325C44.1088 76.2266 44.1617 76.0678 44.1617 75.8825C44.1617 75.7105 44.1088 75.5782 44.0162 75.4723C43.9235 75.3665 43.7383 75.2738 43.4604 75.168C43.4207 75.1547 43.3545 75.1283 43.2619 75.1018C42.9046 74.9695 42.6532 74.8504 42.4944 74.7445C42.3356 74.6254 42.2165 74.4931 42.1371 74.3475C42.0577 74.202 42.0312 74.03 42.0312 73.8315C42.0312 73.461 42.1636 73.1566 42.4282 72.9449C42.6929 72.7332 43.0502 72.6141 43.5133 72.6141C43.725 72.6141 43.9103 72.6405 44.0955 72.7067C44.2808 72.7596 44.4528 72.8523 44.5984 72.9581H44.6381ZM49.0446 74.2152C49.1769 74.1623 49.2695 74.0829 49.3357 73.977C49.4019 73.8712 49.4283 73.7521 49.4283 73.6065C49.4283 73.3948 49.3754 73.2228 49.2828 73.0904C49.1769 72.9581 49.0578 72.8787 48.9123 72.8787C48.7932 72.8787 48.6873 72.9184 48.6079 73.011C48.5285 73.1037 48.4888 73.2228 48.4888 73.3683C48.4888 73.5536 48.5417 73.7124 48.6344 73.8579C48.7402 74.0035 48.8726 74.1226 49.0446 74.202V74.2152ZM48.5947 74.7313C48.4888 74.7842 48.3962 74.8769 48.3433 74.996C48.2903 75.115 48.2639 75.2606 48.2639 75.4459C48.2639 75.737 48.33 75.9619 48.4623 76.134C48.5947 76.306 48.7667 76.3854 48.9917 76.3854C49.124 76.3854 49.2563 76.3589 49.3754 76.306C49.4945 76.2531 49.6136 76.1737 49.7062 76.0678C49.4548 75.5782 49.2563 75.2474 49.1107 75.0886C48.9652 74.9298 48.7932 74.8107 48.5947 74.7445V74.7313ZM49.296 74.374C49.4813 74.4402 49.6533 74.5593 49.8121 74.7313C49.9576 74.8901 50.1297 75.1547 50.3017 75.512C50.4076 75.3797 50.487 75.2474 50.5399 75.115C50.5928 74.9827 50.6325 74.8636 50.6325 74.771C50.6325 74.6916 50.606 74.6387 50.5663 74.6122C50.5266 74.5857 50.4076 74.5725 50.2223 74.5593V74.3079C50.3414 74.3211 50.4605 74.3211 50.5796 74.3211C50.6987 74.3211 50.8045 74.3211 50.9236 74.3211C51.003 74.3211 51.1089 74.3211 51.2015 74.3079C51.3074 74.3079 51.4132 74.2946 51.5323 74.2946V74.546C51.3339 74.546 51.2015 74.5593 51.1486 74.5857C51.0957 74.6122 51.0427 74.6651 51.0163 74.7313C51.003 74.7578 50.9766 74.8107 50.9501 74.8769C50.8178 75.2209 50.6457 75.512 50.4473 75.737C50.5267 75.909 50.6193 76.0413 50.7119 76.1207C50.8045 76.2001 50.9236 76.2398 51.0427 76.2398C51.1486 76.2398 51.2412 76.2001 51.3338 76.134C51.4132 76.0546 51.4926 75.9487 51.5588 75.8032L51.7573 75.8825C51.6514 76.1737 51.5059 76.3854 51.3206 76.531C51.1354 76.6765 50.9236 76.7559 50.6722 76.7559C50.5134 76.7559 50.3679 76.7162 50.2223 76.6368C50.09 76.5574 49.9576 76.4383 49.8518 76.2795C49.6798 76.4383 49.4945 76.5574 49.2828 76.6368C49.0711 76.7162 48.8461 76.7559 48.6079 76.7559C48.2506 76.7559 47.9595 76.65 47.7345 76.4516C47.5096 76.2531 47.4037 75.9884 47.4037 75.6576C47.4037 75.4062 47.4831 75.1812 47.6287 74.996C47.7875 74.8107 48.0124 74.6519 48.33 74.5328C48.1448 74.4137 47.9992 74.2814 47.9066 74.1358C47.8139 73.9903 47.7742 73.8182 47.7742 73.633C47.7742 73.3286 47.8933 73.0772 48.1315 72.892C48.3697 72.7067 48.6741 72.6008 49.0578 72.6008C49.4019 72.6008 49.6665 72.667 49.865 72.8126C50.0503 72.9581 50.1429 73.1566 50.1429 73.4213C50.1429 73.633 50.0767 73.8182 49.9444 73.977C49.8121 74.1358 49.6004 74.2549 49.3357 74.3608L49.296 74.374ZM56.4417 72.9581L56.4814 72.7199H56.6799V73.2757V73.6991V73.9373H56.4549C56.4284 73.6065 56.3226 73.3551 56.1506 73.1698C55.9785 72.9846 55.7403 72.892 55.4625 72.892C55.2507 72.892 55.0787 72.9449 54.9596 73.064C54.8273 73.1831 54.7744 73.3286 54.7744 73.5271C54.7744 73.6859 54.8141 73.8182 54.9067 73.9109C54.9993 74.0035 55.2243 74.1226 55.5683 74.2549C56.1109 74.4534 56.4681 74.6519 56.6269 74.8239C56.7857 75.0092 56.8784 75.2474 56.8784 75.5517C56.8784 75.9222 56.746 76.2134 56.4681 76.4383C56.1903 76.6633 55.833 76.7691 55.3698 76.7691C55.1316 76.7691 54.9067 76.7294 54.7082 76.6633C54.5097 76.5971 54.3244 76.478 54.1524 76.3325L54.0863 76.6368H53.8878V76.3457V75.909V75.5517V75.2606H54.126C54.1524 75.6444 54.2715 75.9487 54.4832 76.1737C54.695 76.3986 54.9596 76.5045 55.3037 76.5045C55.5154 76.5045 55.6742 76.4516 55.7933 76.3325C55.9124 76.2266 55.9653 76.0678 55.9653 75.8825C55.9653 75.7105 55.9256 75.5782 55.8197 75.4723C55.7271 75.3665 55.5419 75.2738 55.264 75.168C55.2243 75.1547 55.1581 75.1283 55.0655 75.1018C54.7082 74.9695 54.4568 74.8504 54.298 74.7445C54.1392 74.6254 54.0201 74.4931 53.9407 74.3475C53.8613 74.202 53.8348 74.03 53.8348 73.8315C53.8348 73.461 53.9672 73.1566 54.2318 72.9449C54.4965 72.7332 54.8537 72.6141 55.3169 72.6141C55.5286 72.6141 55.7139 72.6405 55.8991 72.7067C56.0844 72.7596 56.2564 72.8523 56.402 72.9581H56.4417ZM57.4209 72.667C57.6062 72.6802 57.7782 72.6935 57.937 72.6935C58.0958 72.6935 58.2281 72.7067 58.3604 72.7067C58.4795 72.7067 58.6251 72.7067 58.7839 72.6935C58.9427 72.6935 59.1147 72.6802 59.3132 72.667V72.9316C59.1015 72.9449 58.9691 72.9581 58.9162 73.011C58.8633 73.0507 58.8368 73.1698 58.8368 73.3551V74.4269H60.3983V73.4213C60.3983 73.2095 60.3718 73.064 60.3189 73.011C60.2659 72.9581 60.1336 72.9317 59.9219 72.9184V72.6538C60.1071 72.667 60.2792 72.6802 60.438 72.6802C60.5968 72.6802 60.7423 72.6935 60.8614 72.6935C60.9805 72.6935 61.1128 72.6935 61.2716 72.6802C61.4304 72.6802 61.6157 72.667 61.8142 72.6538V72.9184C61.6024 72.9184 61.4701 72.9449 61.4172 72.9978C61.3643 73.0507 61.3378 73.1963 61.3378 73.408V75.9487C61.3378 76.1604 61.3643 76.306 61.4172 76.3589C61.4701 76.4119 61.6024 76.4383 61.8142 76.4383V76.703C61.6157 76.6897 61.4304 76.6897 61.2716 76.6765C61.1128 76.6765 60.9805 76.6633 60.8746 76.6633C60.7688 76.6633 60.6365 76.6633 60.4777 76.6765C60.3189 76.6765 60.1336 76.6897 59.9219 76.703V76.4383C60.1336 76.4383 60.2527 76.4119 60.3189 76.3589C60.3718 76.306 60.3983 76.1604 60.3983 75.9487V74.6784H58.8368V75.9752C58.8368 76.2001 58.8633 76.3325 58.9162 76.3722C58.9691 76.4119 59.1015 76.4383 59.3132 76.4383V76.703C59.1147 76.6897 58.9294 76.6897 58.7839 76.6765C58.6251 76.6765 58.4928 76.6633 58.3869 76.6633C58.281 76.6633 58.1487 76.6633 57.9899 76.6765C57.8311 76.6765 57.6459 76.6897 57.4341 76.703V76.4383C57.6326 76.4383 57.7649 76.4119 57.8311 76.3589C57.884 76.306 57.9237 76.1737 57.9237 75.9752V73.3154C57.9237 73.1301 57.8973 73.0243 57.8443 72.9846C57.7914 72.9449 57.6591 72.9184 57.4474 72.9184V72.6538L57.4209 72.667ZM64.3152 72.892C63.9843 72.892 63.7329 73.0507 63.5344 73.3683C63.3492 73.6859 63.2565 74.1226 63.2565 74.6916C63.2565 75.2606 63.3492 75.7105 63.5344 76.0281C63.7197 76.3457 63.9843 76.5045 64.3284 76.5045C64.6592 76.5045 64.9106 76.3457 65.0959 76.0281C65.2811 75.7105 65.3738 75.2606 65.3738 74.6916C65.3738 74.1226 65.2811 73.6727 65.0959 73.3551C64.9106 73.0375 64.646 72.8787 64.3019 72.8787L64.3152 72.892ZM64.3284 72.6141C64.6063 72.6141 64.8577 72.6538 65.0959 72.7464C65.3341 72.839 65.5458 72.9713 65.7443 73.1434C65.956 73.3286 66.1148 73.5668 66.2339 73.8182C66.3398 74.0829 66.3927 74.374 66.3927 74.6916C66.3927 75.0092 66.3398 75.3003 66.2207 75.565C66.1016 75.8296 65.9428 76.0678 65.7178 76.2531C65.5193 76.4251 65.3076 76.5442 65.0694 76.6368C64.8312 76.7294 64.5798 76.7691 64.3152 76.7691C64.0373 76.7691 63.7858 76.7294 63.5477 76.6368C63.3095 76.5442 63.0977 76.4251 62.8993 76.2531C62.6875 76.0678 62.5155 75.8428 62.4096 75.5782C62.3038 75.3135 62.2376 75.0224 62.2376 74.6916C62.2376 74.374 62.2905 74.0829 62.4096 73.8182C62.5287 73.5536 62.6875 73.3286 62.9125 73.1434C63.111 72.9713 63.3227 72.839 63.5609 72.7596C63.7991 72.667 64.0505 72.6273 64.3284 72.6273V72.6141ZM68.2453 74.546H68.3114H68.4305C68.7613 74.546 68.9863 74.4799 69.1319 74.3608C69.2642 74.2285 69.3304 74.0167 69.3304 73.7124C69.3304 73.4477 69.2642 73.2492 69.1451 73.1301C69.0128 73.011 68.8143 72.9449 68.5364 72.9449C68.5099 72.9449 68.4702 72.9449 68.4041 72.9449C68.3379 72.9449 68.285 72.9581 68.2585 72.9581V74.546H68.2453ZM66.8294 72.667C66.9617 72.6802 67.094 72.6802 67.2263 72.6802C67.3587 72.6802 67.5042 72.6802 67.6498 72.6802C67.7954 72.6802 67.9939 72.6802 68.2585 72.667C68.5232 72.6538 68.7084 72.6538 68.8275 72.6538C69.3039 72.6538 69.6612 72.7332 69.9126 72.9052C70.164 73.0772 70.2831 73.3286 70.2831 73.6594C70.2831 73.977 70.1772 74.2152 69.9788 74.3873C69.7803 74.546 69.4627 74.6519 69.026 74.6784C69.3965 74.7048 69.6744 74.7842 69.8464 74.9166C70.0185 75.0489 70.1243 75.2474 70.164 75.5253C70.1772 75.6047 70.1905 75.7238 70.1905 75.8693C70.2037 76.1604 70.2831 76.306 70.4154 76.306C70.4816 76.306 70.5478 76.2795 70.5875 76.2266C70.6272 76.1737 70.6669 76.081 70.6933 75.9619L70.8918 75.9884C70.8521 76.2531 70.7727 76.4516 70.6272 76.5706C70.4816 76.703 70.2831 76.7691 70.0317 76.7691C69.767 76.7691 69.5818 76.703 69.4627 76.5574C69.3436 76.4119 69.2907 76.1869 69.2907 75.8693V75.5782C69.2907 75.2606 69.2377 75.0489 69.1186 74.9563C69.0128 74.8636 68.7878 74.8107 68.4702 74.8107H68.232V75.9487C68.232 76.1604 68.2585 76.306 68.3114 76.3589C68.3644 76.4119 68.4967 76.4383 68.7084 76.4383V76.703C68.5099 76.6897 68.3247 76.6897 68.1791 76.6765C68.0203 76.6765 67.888 76.6633 67.7821 76.6633C67.6763 76.6633 67.5439 76.6633 67.3851 76.6765C67.2264 76.6765 67.0411 76.6897 66.8294 76.703V76.4383C67.0411 76.4383 67.1734 76.4119 67.2263 76.3589C67.2793 76.306 67.3057 76.1737 67.3057 75.9487V73.3948C67.3057 73.1831 67.2793 73.0507 67.2263 72.9846C67.1734 72.9316 67.0411 72.9052 66.8294 72.892V72.6273V72.667ZM70.8918 72.667H74.6499L74.769 73.7918H74.5308C74.4779 73.461 74.3985 73.236 74.2926 73.1169C74.1868 72.9978 73.9883 72.9449 73.6972 72.9449H73.2472V75.9752C73.2472 76.2001 73.2737 76.3457 73.3266 76.3854C73.3796 76.4383 73.5119 76.4648 73.7236 76.4648H73.7898V76.7294C73.5781 76.7162 73.3928 76.7162 73.2208 76.703C73.0488 76.703 72.9164 76.6897 72.7973 76.6897C72.6782 76.6897 72.5327 76.6897 72.3606 76.703C72.1886 76.703 71.9901 76.7162 71.7652 76.7294V76.4648H71.8181C72.0298 76.4648 72.1622 76.4383 72.2151 76.3854C72.268 76.3325 72.3077 76.2001 72.3077 75.9752V72.9449H71.8578C71.5799 72.9449 71.3814 72.9978 71.2623 73.1169C71.1432 73.236 71.0638 73.461 71.0241 73.7918H70.7859L70.905 72.667H70.8918ZM75.0601 72.667H75.1131C75.5894 72.6935 75.8938 72.7067 76.0261 72.7067C76.1187 72.7067 76.2246 72.7067 76.3569 72.6935C76.4893 72.6935 76.7142 72.6802 77.0186 72.667V72.9316H76.9656C76.7539 72.9316 76.6216 72.9581 76.5686 73.011C76.5025 73.064 76.476 73.2095 76.476 73.4213V76.4119H77.2832C77.6273 76.4119 77.8787 76.3325 78.0243 76.1869C78.1698 76.0413 78.2492 75.7635 78.2889 75.34H78.5403C78.5271 75.6047 78.5139 75.8561 78.4874 76.081C78.4609 76.3192 78.4477 76.531 78.408 76.7427C77.9581 76.7294 77.5876 76.7294 77.3097 76.7162C77.0186 76.7162 76.8068 76.703 76.6745 76.703C76.2246 76.703 75.8938 76.703 75.6688 76.703C75.4439 76.703 75.2454 76.703 75.0469 76.7162V76.4516C75.2586 76.4516 75.3909 76.4251 75.4439 76.3722C75.4968 76.3192 75.5233 76.1869 75.5233 75.9619V73.4213C75.5233 73.2095 75.4968 73.0772 75.4439 73.011C75.3909 72.9581 75.2586 72.9317 75.0469 72.9184V72.6538L75.0601 72.667ZM82.1926 72.6405C82.2058 72.8523 82.2058 73.0507 82.219 73.236C82.2323 73.408 82.2455 73.5933 82.2587 73.7521H82.0205C81.9941 73.4345 81.9147 73.2228 81.7956 73.1169C81.6765 73.011 81.4383 72.9449 81.0942 72.9449H80.2473V74.4402H80.6046C80.8428 74.4402 81.0016 74.4005 81.0545 74.3343C81.1075 74.2682 81.1472 74.0961 81.1736 73.8182H81.4118C81.4118 73.8579 81.4118 73.9109 81.4118 73.977C81.3986 74.2814 81.3986 74.4931 81.3986 74.6122C81.3986 74.7313 81.4118 74.9563 81.4118 75.2738C81.4118 75.3532 81.4118 75.4062 81.4118 75.4459H81.1736C81.1604 75.1547 81.1207 74.9563 81.0413 74.8636C80.9619 74.771 80.8164 74.7181 80.6046 74.7181H80.2473V76.4648H81.2663C81.6236 76.4648 81.8617 76.3986 81.9941 76.2663C82.1264 76.134 82.2058 75.8825 82.2455 75.512H82.4837C82.4705 75.7105 82.4572 75.9222 82.444 76.1207C82.4307 76.3192 82.4175 76.531 82.4175 76.7294H78.8182V76.4648C79.0299 76.4648 79.1623 76.4383 79.2152 76.3854C79.2681 76.3325 79.2946 76.1869 79.2946 75.9752V73.4345C79.2946 73.2228 79.2681 73.0904 79.2152 73.0243C79.1623 72.9713 79.0299 72.9449 78.8182 72.9316V72.667H79.5857C80.0621 72.667 80.512 72.667 80.9487 72.667C81.3721 72.667 81.7956 72.6538 82.1926 72.6538V72.6405ZM82.8807 72.667H86.6388L86.7578 73.7918H86.5197C86.4667 73.461 86.3873 73.236 86.2815 73.1169C86.1756 72.9978 85.9771 72.9449 85.686 72.9449H85.2361V75.9752C85.2361 76.2001 85.2626 76.3457 85.3155 76.3854C85.3684 76.4383 85.5007 76.4648 85.7125 76.4648H85.7786V76.7294C85.5669 76.7162 85.3816 76.7162 85.2096 76.703C85.0376 76.703 84.9053 76.6897 84.7862 76.6897C84.6671 76.6897 84.5215 76.6897 84.3495 76.703C84.1775 76.703 83.979 76.7162 83.754 76.7294V76.4648H83.807C84.0187 76.4648 84.151 76.4383 84.2039 76.3854C84.2569 76.3325 84.2966 76.2001 84.2966 75.9752V72.9449H83.8466C83.5688 72.9449 83.3703 72.9978 83.2512 73.1169C83.1321 73.236 83.0527 73.461 83.013 73.7918H82.7748L82.8939 72.667H82.8807ZM89.7881 72.9581L89.8278 72.7199H90.0263V73.2757V73.6991V73.9373H89.8014C89.7749 73.6065 89.669 73.3551 89.497 73.1698C89.325 72.9846 89.0868 72.892 88.8089 72.892C88.5972 72.892 88.4252 72.9449 88.3061 73.064C88.1738 73.1831 88.1208 73.3286 88.1208 73.5271C88.1208 73.6859 88.1605 73.8182 88.2532 73.9109C88.3458 74.0035 88.5707 74.1226 88.9148 74.2549C89.4573 74.4534 89.8146 74.6519 89.9734 74.8239C90.1322 75.0092 90.2248 75.2474 90.2248 75.5517C90.2248 75.9222 90.0925 76.2134 89.8146 76.4383C89.5367 76.6633 89.1794 76.7691 88.7163 76.7691C88.4781 76.7691 88.2532 76.7294 88.0547 76.6633C87.8562 76.5971 87.6709 76.478 87.4989 76.3325L87.4327 76.6368H87.2342V76.3457V75.909V75.5517V75.2606H87.4724C87.4989 75.6444 87.618 75.9487 87.8297 76.1737C88.0414 76.3986 88.3061 76.5045 88.6501 76.5045C88.8618 76.5045 89.0206 76.4516 89.1397 76.3325C89.2588 76.2266 89.3118 76.0678 89.3118 75.8825C89.3118 75.7105 89.2588 75.5782 89.1662 75.4723C89.0736 75.3665 88.8883 75.2738 88.6104 75.168C88.5707 75.1547 88.5046 75.1283 88.4119 75.1018C88.0547 74.9695 87.8032 74.8504 87.6444 74.7445C87.4857 74.6254 87.3666 74.4931 87.2872 74.3475C87.2078 74.202 87.1813 74.03 87.1813 73.8315C87.1813 73.461 87.3136 73.1566 87.5783 72.9449C87.8429 72.7332 88.2002 72.6141 88.6634 72.6141C88.8751 72.6141 89.0603 72.6405 89.2456 72.7067C89.4309 72.7596 89.6029 72.8523 89.7484 72.9581H89.7881Z" fill="black"/>
<path fill-rule="evenodd" clip-rule="evenodd" d="M44.9421 12.5508C53.9006 12.5508 61.1654 19.9479 61.1654 29.0652C61.1654 38.1958 53.9006 45.5797 44.9421 45.5797C35.9835 45.5797 28.7188 38.1826 28.7188 29.0652C28.7188 19.9479 35.9835 12.5508 44.9421 12.5508ZM44.9421 14.6416C52.7626 14.6416 59.1011 21.0991 59.1011 29.0652C59.1011 37.0313 52.7626 43.4889 44.9421 43.4889C37.1215 43.4889 30.7831 37.0313 30.7831 29.0652C30.7831 21.0991 37.1215 14.6416 44.9421 14.6416Z" fill="black"/>
<path d="M46.9677 20.7815L50.8714 20.6492C51.2948 20.6492 51.5198 20.7815 51.5198 21.0329C51.5198 21.2711 51.308 21.4034 50.9111 21.4167C50.3288 21.4564 49.8921 21.6416 49.6143 21.9592C49.3364 22.29 49.1776 23.2428 49.1246 24.8042C49.0717 26.3657 49.0452 27.8345 49.0452 29.224L49.0717 32.0028C49.0717 33.776 48.86 35.0861 48.4365 35.9065C48.0131 36.7402 47.3382 37.415 46.4119 37.9576C45.4856 38.5001 44.4535 38.7648 43.3022 38.7648C42.0716 38.7648 41.0791 38.4736 40.3381 37.8649C39.5971 37.2695 39.2266 36.5549 39.2266 35.708C39.2266 35.1655 39.4118 34.6759 39.8088 34.2656C40.1926 33.8422 40.7219 33.6305 41.3703 33.6305C41.9525 33.6305 42.4156 33.7893 42.7465 34.1333C43.0773 34.4641 43.2493 34.8347 43.2493 35.2713C43.2493 35.5228 43.117 35.8933 42.8656 36.3696C42.6671 36.7137 42.5744 36.9651 42.5744 37.1371C42.5744 37.3621 42.6538 37.5341 42.7862 37.64C42.9317 37.7591 43.1434 37.812 43.4213 37.812C44.1227 37.812 44.6387 37.468 44.9431 36.7931C45.2474 36.1182 45.393 34.4377 45.393 31.7647C45.393 26.2334 45.3136 23.1369 45.1681 22.4621C45.0225 21.8004 44.3476 21.4431 43.1567 21.4167C42.7862 21.4034 42.6009 21.2843 42.6009 21.0462C42.6009 20.7815 42.7994 20.6492 43.1831 20.6492C43.2758 20.6492 43.5934 20.6624 44.1491 20.7021C45.3136 20.755 46.2531 20.7947 46.9677 20.7947V20.7815Z" fill="black"/>
</g>
<defs>
<clipPath id="clip0_1145_1901">
<rect width="89.7101" height="76.591" fill="white" transform="translate(0.714844 0.20459)"/>
</clipPath>
</defs>
</svg>
