<svg width="173" height="57" viewBox="0 0 173 57" fill="none" xmlns="http://www.w3.org/2000/svg">
<g clip-path="url(#clip0_1145_1867)">
<path fill-rule="evenodd" clip-rule="evenodd" d="M0.574219 36.2917C1.24522 36.1127 0.956091 36.1891 1.3456 35.6818C2.39739 34.3136 5.32144 31.4659 6.66017 29.946C6.96239 29.6024 6.96458 29.5151 7.2668 29.1725L13.9136 22.0064C14.4809 21.4478 14.6882 21.0713 15.2043 20.5345C16.3248 19.3704 21.2782 13.8027 21.9842 13.3292L33.4261 25.3679C35.7992 27.8337 38.4625 30.9335 40.9337 33.4004L41.9506 34.4554C42.2223 34.6987 41.9659 34.5962 42.3587 34.738V0.896484H0.57531V36.2917H0.574219Z" fill="#373435"/>
<path fill-rule="evenodd" clip-rule="evenodd" d="M130.413 21.0976C128.713 21.0976 128.184 21.0005 126.511 20.3371C125.134 19.7916 124.543 19.4687 124.543 18.1616C124.543 16.6657 125.321 14.9746 126.053 14.1464C128.509 11.3653 134.904 11.9992 134.904 15.9172C134.904 18.7987 133.267 21.0976 130.414 21.0976H130.413ZM117.118 16.0907C117.323 16.4137 117.312 15.7056 117.261 16.4366C117.235 16.8043 117.24 16.5904 117.118 16.7825V16.0918V16.0907ZM124.715 21.7882C126.009 23.2776 127.41 24.4254 130.066 24.553C133.162 24.7014 134.907 24.1395 136.7 22.8946C140.37 20.347 142.028 15.2353 140.256 11.254C137.584 5.251 126.149 3.71479 121.949 11.7701C121.709 12.2305 121.531 12.6451 121.309 13.2016L120.744 14.7083C120.744 11.6032 121.898 9.40141 123.805 7.41022C124.107 7.09599 124.365 6.82541 124.69 6.56901C125.171 6.19041 125.22 6.2646 125.578 5.72998C120.784 6.12931 117.463 12.6822 117.463 15.9172L117.291 12.464C116.367 13.1416 115.756 15.8038 115.586 17.3236C115.417 18.8511 116.059 21.8777 116.449 22.9731C117.468 25.8328 119.935 28.8005 122.582 30.1349C131.204 34.4828 141.092 30.544 139.736 24.7221C138.833 25.3266 138.371 26.3587 136.229 27.4312C130.208 30.448 124.99 25.1007 124.714 21.7861L124.715 21.7882Z" fill="#727376"/>
<path fill-rule="evenodd" clip-rule="evenodd" d="M3.33594 36.4642H40.4583C40.275 35.7801 36.7868 32.4752 35.9271 31.4987L26.688 21.5722C26.1588 21.0474 26.0279 20.8456 25.5587 20.2848L21.9833 16.6079C21.2927 17.0705 11.9412 27.1159 10.2838 28.9075L3.33703 36.4631L3.33594 36.4642Z" fill="#727376"/>
<path fill-rule="evenodd" clip-rule="evenodd" d="M99.8542 17.8168H95.5379V10.0473C98.0856 10.0473 102.523 9.62509 103.825 11.948C105.213 14.4258 103.736 17.8168 99.8553 17.8168H99.8542ZM91.9112 7.9754V30.939C92.5157 30.9892 95.5368 31.6078 95.5368 30.4208V20.5794C97.7343 20.5794 100.012 20.2968 101.623 21.9181C102.377 22.6775 102.939 23.9813 103.424 24.9513C103.99 26.0816 104.367 27.1421 104.919 28.291C105.203 28.8813 105.382 29.3635 105.647 29.98C106.246 31.37 106.389 31.1103 108.833 31.1103C109.298 31.1103 109.308 31.0274 109.696 30.9379C109.696 29.3722 109.112 28.8594 108.635 27.6811C107.746 25.4859 105.941 21.3769 104.13 20.0993C103.749 19.8309 103.82 19.8331 103.306 19.7142C103.703 19.173 104.283 19.1653 104.979 18.7966C105.613 18.4616 105.981 18.167 106.461 17.6891C109.171 14.9888 108.447 10.5885 105.783 8.94972C104.515 8.1707 102.844 7.45605 100.889 7.45605H93.1191C92.4851 7.45605 92.2844 7.72337 91.9102 7.97431L91.9112 7.9754Z" fill="#373435"/>
<path fill-rule="evenodd" clip-rule="evenodd" d="M53.0604 19.0257L45.9401 29.6952C44.7836 31.4562 46.1736 31.1114 48.3983 31.1114C49.3901 31.1114 49.6792 30.2342 50.4713 29.0416C50.7605 28.6074 50.9448 28.243 51.2623 27.7596C51.5875 27.2632 51.7751 27.0199 52.0796 26.5049C52.6655 25.5121 55.1378 21.989 55.3047 21.27C55.7477 21.5951 58.2113 25.5764 58.6848 26.35L61.0972 30.1523C61.8315 31.4082 61.8533 31.1103 64.8003 31.1103C66.3976 31.1103 64.5766 28.962 64.0747 28.2103L57.8938 19.0246C58.6358 17.9172 65.0501 8.77841 65.145 7.62843C64.1751 7.11563 63.8849 7.28366 62.3825 7.28366C61.6755 7.28366 61.4911 7.5597 61.1987 7.9983C60.9237 8.41073 60.7273 8.73041 60.4491 9.14828L55.8219 16.4344C55.1967 16.2675 54.4166 14.7934 54.0609 14.2239L50.8848 9.28467C49.3792 6.98362 49.7676 7.28366 46.4977 7.28366C45.5092 7.28366 45.8638 8.17397 46.1714 8.63439L53.0593 19.0246L53.0604 19.0257Z" fill="#373435"/>
<path fill-rule="evenodd" clip-rule="evenodd" d="M77.4062 19.3716H73.6083V10.0473C76.5781 10.0473 82.5866 9.51054 82.5866 14.0188C82.5866 15.6805 82.5964 17.0378 80.9664 18.2685C80.1099 18.9155 78.8443 19.3716 77.4073 19.3716H77.4062ZM69.9816 8.66606V30.4219C69.9816 31.4409 73.6072 31.4409 73.6072 30.4219V22.1341C77.2775 22.1341 80.506 22.2749 83.4202 20.3786C88.6344 16.9876 87.564 7.45825 78.4417 7.45825H71.017C70.6373 7.45825 69.9805 7.84231 69.9805 8.66606H69.9816Z" fill="#373435"/>
<path fill-rule="evenodd" clip-rule="evenodd" d="M137.667 13.5005C137.667 21.0474 149.581 20.4615 149.581 24.7232V25.5862C149.581 28.352 146.806 29.2118 144.228 29.2118C139.913 29.2118 136.977 25.4182 136.977 28.5211C136.977 30.8222 139.771 31.5052 141.905 31.8805C144.121 32.27 145.63 32.2057 147.719 31.6678C150.615 30.9226 153.379 28.7175 153.379 25.4138C153.379 23.5153 153.164 21.9813 151.525 20.5346C149.658 18.8871 146.486 17.9226 143.994 16.67C143.448 16.3951 142.764 15.9259 142.366 15.5353C139.973 13.1819 142.112 8.24264 148.614 10.4957C150.366 11.1023 151.997 12.8688 151.997 10.0484C151.997 6.21654 137.666 5.23458 137.666 13.5016L137.667 13.5005Z" fill="#373435"/>
<path fill-rule="evenodd" clip-rule="evenodd" d="M157.005 12.9822C157.005 14.8217 157.132 16.563 158.874 18.0196C159.839 18.8292 161.152 19.63 162.431 20.1603C164.213 20.9 168.919 22.4013 168.919 25.0668C168.919 29.946 162.478 29.8325 159.189 28.2352C158.576 27.9363 158.191 27.7082 157.58 27.406C156.141 26.6946 156.315 28.0377 156.315 29.0372C156.315 29.8838 156.759 30.305 157.341 30.6006C163.989 33.9851 172.717 31.5401 172.717 24.8933C172.717 17.2995 160.631 18.6622 160.631 13.1535C160.631 9.69042 165.398 9.49621 168.059 10.56C168.966 10.9222 169.89 11.5998 170.991 11.5998C171.149 9.69151 172.082 8.46843 167.813 7.52684C166.102 7.14934 164.642 7.05114 162.795 7.37519C159.858 7.89235 157.005 9.86717 157.005 12.9811V12.9822Z" fill="#373435"/>
<path d="M0.621586 44.2468V39.7293H2.57702C2.98145 39.7293 3.32994 39.796 3.62251 39.9294C3.91507 40.0584 4.14094 40.2456 4.30013 40.4908C4.45932 40.7361 4.53892 41.0286 4.53892 41.3685C4.53892 41.7041 4.45932 41.9945 4.30013 42.2398C4.14094 42.485 3.91507 42.6743 3.62251 42.8077C3.32994 42.9367 2.98145 43.0013 2.57702 43.0013H1.20241L1.66707 42.5302V44.2468H0.621586ZM1.66707 42.6463L1.20241 42.1494H2.51894C2.84162 42.1494 3.08256 42.0806 3.24174 41.9429C3.40093 41.8052 3.48053 41.6138 3.48053 41.3685C3.48053 41.119 3.40093 40.9254 3.24174 40.7877C3.08256 40.65 2.84162 40.5812 2.51894 40.5812H1.20241L1.66707 40.0843V42.6463ZM4.4647 44.2468L6.47822 39.7293H7.51079L9.53077 44.2468H8.43366L6.78154 40.2585H7.19457L5.536 44.2468H4.4647ZM5.47146 43.2788L5.74896 42.485H8.07226L8.35621 43.2788H5.47146ZM10.8451 44.2468V42.4011L11.0839 43.0336L9.09616 39.7293H10.2062L11.7292 42.2656H11.0903L12.6198 39.7293H13.6459L11.6582 43.0336L11.8906 42.4011V44.2468H10.8451ZM14.0456 44.2468V39.7293H14.9103L16.8335 42.9174H16.3753L18.2662 39.7293H19.1245L19.1374 44.2468H18.1565L18.15 41.233H18.3307L16.8206 43.7693H16.3495L14.8071 41.233H15.0265V44.2468H14.0456ZM21.1708 41.5492H23.3457V42.3624H21.1708V41.5492ZM21.2483 43.4079H23.7071V44.2468H20.2092V39.7293H23.6232V40.5683H21.2483V43.4079ZM24.5389 44.2468V39.7293H25.4037L28.0691 42.9819H27.6496V39.7293H28.6822V44.2468H27.8238L25.152 40.9942H25.5715V44.2468H24.5389ZM30.6867 44.2468V40.5812H29.2411V39.7293H33.1778V40.5812H31.7322V44.2468H30.6867ZM37.0524 44.3243C36.691 44.3243 36.3446 44.2769 36.0133 44.1823C35.682 44.0833 35.4153 43.9564 35.2131 43.8015L35.568 43.0142C35.7616 43.1519 35.9897 43.2659 36.2521 43.3562C36.5189 43.4423 36.7878 43.4853 37.0588 43.4853C37.2653 43.4853 37.431 43.4659 37.5557 43.4272C37.6848 43.3842 37.7795 43.3261 37.8397 43.253C37.8999 43.1798 37.93 43.0959 37.93 43.0013C37.93 42.8808 37.8827 42.7862 37.7881 42.7173C37.6934 42.6442 37.5686 42.5861 37.4138 42.5431C37.2589 42.4958 37.0868 42.4527 36.8975 42.414C36.7125 42.371 36.5253 42.3194 36.336 42.2591C36.151 42.1989 35.9811 42.1214 35.8262 42.0268C35.6713 41.9321 35.5444 41.8074 35.4454 41.6525C35.3508 41.4976 35.3034 41.2997 35.3034 41.0588C35.3034 40.8006 35.3723 40.5661 35.5099 40.3553C35.6519 40.1402 35.8627 39.9702 36.1424 39.8455C36.4264 39.7164 36.7813 39.6519 37.2072 39.6519C37.4912 39.6519 37.7709 39.6863 38.0462 39.7551C38.3216 39.8197 38.5646 39.9186 38.7755 40.052L38.4528 40.8458C38.242 40.7253 38.0312 40.6371 37.8203 40.5812C37.6095 40.521 37.403 40.4908 37.2008 40.4908C36.9986 40.4908 36.8329 40.5145 36.7039 40.5618C36.5748 40.6092 36.4823 40.6715 36.4264 40.749C36.3704 40.8221 36.3425 40.9082 36.3425 41.0071C36.3425 41.1233 36.3898 41.2179 36.4844 41.2911C36.5791 41.3599 36.7039 41.4159 36.8587 41.4589C37.0136 41.5019 37.1836 41.5449 37.3686 41.5879C37.5579 41.631 37.745 41.6804 37.93 41.7364C38.1194 41.7923 38.2914 41.8676 38.4463 41.9623C38.6012 42.0569 38.726 42.1817 38.8206 42.3366C38.9196 42.4914 38.9691 42.6872 38.9691 42.9238C38.9691 43.1777 38.8981 43.41 38.7561 43.6208C38.6141 43.8316 38.4012 44.0016 38.1172 44.1307C37.8375 44.2597 37.4826 44.3243 37.0524 44.3243ZM41.8777 44.3243C41.5206 44.3243 41.1893 44.2662 40.8838 44.15C40.5827 44.0339 40.3202 43.8704 40.0965 43.6595C39.8771 43.4487 39.705 43.2013 39.5802 42.9174C39.4597 42.6334 39.3995 42.3237 39.3995 41.9881C39.3995 41.6525 39.4597 41.3427 39.5802 41.0588C39.705 40.7748 39.8792 40.5274 40.1029 40.3166C40.3267 40.1058 40.5891 39.9423 40.8903 39.8261C41.1914 39.71 41.5184 39.6519 41.8712 39.6519C42.2283 39.6519 42.5553 39.71 42.8522 39.8261C43.1533 39.9423 43.4136 40.1058 43.6331 40.3166C43.8568 40.5274 44.031 40.7748 44.1558 41.0588C44.2806 41.3384 44.3429 41.6482 44.3429 41.9881C44.3429 42.3237 44.2806 42.6356 44.1558 42.9238C44.031 43.2078 43.8568 43.4552 43.6331 43.666C43.4136 43.8725 43.1533 44.0339 42.8522 44.15C42.5553 44.2662 42.2305 44.3243 41.8777 44.3243ZM41.8712 43.4337C42.0734 43.4337 42.2584 43.3993 42.4262 43.3304C42.5983 43.2616 42.7489 43.1626 42.878 43.0336C43.0071 42.9045 43.106 42.7517 43.1748 42.5753C43.248 42.3989 43.2846 42.2032 43.2846 41.9881C43.2846 41.7729 43.248 41.5772 43.1748 41.4008C43.106 41.2244 43.0071 41.0717 42.878 40.9426C42.7532 40.8135 42.6048 40.7146 42.4327 40.6457C42.2606 40.5769 42.0734 40.5425 41.8712 40.5425C41.669 40.5425 41.4819 40.5769 41.3098 40.6457C41.142 40.7146 40.9935 40.8135 40.8645 40.9426C40.7354 41.0717 40.6343 41.2244 40.5611 41.4008C40.4923 41.5772 40.4579 41.7729 40.4579 41.9881C40.4579 42.1989 40.4923 42.3946 40.5611 42.5753C40.6343 42.7517 40.7332 42.9045 40.858 43.0336C40.9871 43.1626 41.1377 43.2616 41.3098 43.3304C41.4819 43.3993 41.669 43.4337 41.8712 43.4337ZM45.1287 44.2468V39.7293H46.1742V43.395H48.4394V44.2468H45.1287ZM50.9802 44.3243C50.3391 44.3243 49.8379 44.1457 49.4765 43.7886C49.1151 43.4315 48.9344 42.9217 48.9344 42.2591V39.7293H49.9799V42.2204C49.9799 42.6506 50.0681 42.9604 50.2445 43.1497C50.4209 43.339 50.6682 43.4337 50.9866 43.4337C51.305 43.4337 51.5524 43.339 51.7288 43.1497C51.9052 42.9604 51.9934 42.6506 51.9934 42.2204V39.7293H53.026V42.2591C53.026 42.9217 52.8453 43.4315 52.4839 43.7886C52.1225 44.1457 51.6212 44.3243 50.9802 44.3243ZM54.9192 44.2468V40.5812H53.4736V39.7293H57.4103V40.5812H55.9647V44.2468H54.9192ZM57.9728 44.2468V39.7293H59.0183V44.2468H57.9728ZM62.2846 44.3243C61.9275 44.3243 61.5963 44.2662 61.2908 44.15C60.9896 44.0339 60.7272 43.8704 60.5034 43.6595C60.284 43.4487 60.1119 43.2013 59.9872 42.9174C59.8667 42.6334 59.8065 42.3237 59.8065 41.9881C59.8065 41.6525 59.8667 41.3427 59.9872 41.0588C60.1119 40.7748 60.2862 40.5274 60.5099 40.3166C60.7336 40.1058 60.9961 39.9423 61.2972 39.8261C61.5984 39.71 61.9254 39.6519 62.2782 39.6519C62.6353 39.6519 62.9623 39.71 63.2591 39.8261C63.5603 39.9423 63.8206 40.1058 64.04 40.3166C64.2637 40.5274 64.438 40.7748 64.5628 41.0588C64.6875 41.3384 64.7499 41.6482 64.7499 41.9881C64.7499 42.3237 64.6875 42.6356 64.5628 42.9238C64.438 43.2078 64.2637 43.4552 64.04 43.666C63.8206 43.8725 63.5603 44.0339 63.2591 44.15C62.9623 44.2662 62.6374 44.3243 62.2846 44.3243ZM62.2782 43.4337C62.4804 43.4337 62.6654 43.3993 62.8332 43.3304C63.0053 43.2616 63.1559 43.1626 63.2849 43.0336C63.414 42.9045 63.513 42.7517 63.5818 42.5753C63.6549 42.3989 63.6915 42.2032 63.6915 41.9881C63.6915 41.7729 63.6549 41.5772 63.5818 41.4008C63.513 41.2244 63.414 41.0717 63.2849 40.9426C63.1602 40.8135 63.0117 40.7146 62.8396 40.6457C62.6675 40.5769 62.4804 40.5425 62.2782 40.5425C62.076 40.5425 61.8888 40.5769 61.7167 40.6457C61.5489 40.7146 61.4005 40.8135 61.2714 40.9426C61.1424 41.0717 61.0412 41.2244 60.9681 41.4008C60.8993 41.5772 60.8648 41.7729 60.8648 41.9881C60.8648 42.1989 60.8993 42.3946 60.9681 42.5753C61.0412 42.7517 61.1402 42.9045 61.265 43.0336C61.394 43.1626 61.5446 43.2616 61.7167 43.3304C61.8888 43.3993 62.076 43.4337 62.2782 43.4337ZM65.5356 44.2468V39.7293H66.4004L69.0657 42.9819H68.6463V39.7293H69.6788V44.2468H68.8205L66.1487 40.9942H66.5682V44.2468H65.5356ZM72.232 44.3243C71.8706 44.3243 71.5243 44.2769 71.193 44.1823C70.8617 44.0833 70.5949 43.9564 70.3927 43.8015L70.7477 43.0142C70.9413 43.1519 71.1693 43.2659 71.4317 43.3562C71.6985 43.4423 71.9674 43.4853 72.2384 43.4853C72.445 43.4853 72.6106 43.4659 72.7354 43.4272C72.8644 43.3842 72.9591 43.3261 73.0193 43.253C73.0796 43.1798 73.1097 43.0959 73.1097 43.0013C73.1097 42.8808 73.0624 42.7862 72.9677 42.7173C72.8731 42.6442 72.7483 42.5861 72.5934 42.5431C72.4385 42.4958 72.2664 42.4527 72.0771 42.414C71.8921 42.371 71.705 42.3194 71.5156 42.2591C71.3306 42.1989 71.1607 42.1214 71.0058 42.0268C70.8509 41.9321 70.724 41.8074 70.6251 41.6525C70.5304 41.4976 70.4831 41.2997 70.4831 41.0588C70.4831 40.8006 70.5519 40.5661 70.6896 40.3553C70.8316 40.1402 71.0424 39.9702 71.322 39.8455C71.606 39.7164 71.9609 39.6519 72.3869 39.6519C72.6708 39.6519 72.9505 39.6863 73.2258 39.7551C73.5012 39.8197 73.7443 39.9186 73.9551 40.052L73.6324 40.8458C73.4216 40.7253 73.2108 40.6371 73 40.5812C72.7892 40.521 72.5826 40.4908 72.3804 40.4908C72.1782 40.4908 72.0126 40.5145 71.8835 40.5618C71.7544 40.6092 71.6619 40.6715 71.606 40.749C71.5501 40.8221 71.5221 40.9082 71.5221 41.0071C71.5221 41.1233 71.5694 41.2179 71.6641 41.2911C71.7587 41.3599 71.8835 41.4159 72.0384 41.4589C72.1933 41.5019 72.3632 41.5449 72.5482 41.5879C72.7375 41.631 72.9247 41.6804 73.1097 41.7364C73.299 41.7923 73.4711 41.8676 73.626 41.9623C73.7809 42.0569 73.9056 42.1817 74.0003 42.3366C74.0992 42.4914 74.1487 42.6872 74.1487 42.9238C74.1487 43.1777 74.0777 43.41 73.9357 43.6208C73.7938 43.8316 73.5808 44.0016 73.2968 44.1307C73.0172 44.2597 72.6622 44.3243 72.232 44.3243ZM76.6908 44.2468V39.7293H77.7363V43.395H80.0015V44.2468H76.6908ZM80.5856 44.2468V39.7293H81.6311V44.2468H80.5856ZM82.7032 44.2468V39.7293H83.568L85.4911 42.9174H85.0329L86.9238 39.7293H87.7822L87.7951 44.2468H86.8141L86.8077 41.233H86.9884L85.4782 43.7693H85.0071L83.4647 41.233H83.6841V44.2468H82.7032ZM88.8669 44.2468V39.7293H89.9124V44.2468H88.8669ZM91.9202 44.2468V40.5812H90.4746V39.7293H94.4113V40.5812H92.9657V44.2468H91.9202ZM95.9354 41.5492H98.1103V42.3624H95.9354V41.5492ZM96.0129 43.4079H98.4717V44.2468H94.9738V39.7293H98.3878V40.5683H96.0129V43.4079ZM99.3035 44.2468V39.7293H101.356C101.846 39.7293 102.279 39.824 102.653 40.0133C103.027 40.1983 103.32 40.4586 103.531 40.7942C103.741 41.1297 103.847 41.5277 103.847 41.9881C103.847 42.4441 103.741 42.8421 103.531 43.182C103.32 43.5176 103.027 43.78 102.653 43.9693C102.279 44.1543 101.846 44.2468 101.356 44.2468H99.3035ZM100.349 43.3885H101.304C101.605 43.3885 101.866 43.3326 102.085 43.2207C102.309 43.1045 102.481 42.941 102.601 42.7302C102.726 42.5194 102.788 42.272 102.788 41.9881C102.788 41.6998 102.726 41.4524 102.601 41.2459C102.481 41.0351 102.309 40.8737 102.085 40.7619C101.866 40.6457 101.605 40.5876 101.304 40.5876H100.349V43.3885Z" fill="#373435"/>
<path d="M1.60984 53.6005H3.5908V54.3412H1.60984V53.6005ZM1.68038 55.2934H3.91998V56.0576H0.733985V51.9429H3.84356V52.707H1.68038V55.2934Z" fill="#201E1E"/>
<path d="M4.42756 56.0576L6.26157 51.9429H7.20208L9.04196 56.0576H8.04266L6.53784 52.4249H6.91405L5.40335 56.0576H4.42756ZM5.34457 55.1759L5.59733 54.4529H7.71348L7.97213 55.1759H5.34457Z" fill="#201E1E"/>
<path d="M11.2149 56.1282C10.8857 56.1282 10.5702 56.085 10.2685 55.9988C9.96674 55.9087 9.72377 55.7931 9.53959 55.652L9.86289 54.9349C10.0392 55.0603 10.2469 55.1641 10.486 55.2464C10.7289 55.3248 10.9739 55.364 11.2208 55.364C11.4089 55.364 11.5597 55.3464 11.6734 55.3111C11.7909 55.2719 11.8772 55.219 11.932 55.1524C11.9869 55.0858 12.0143 55.0093 12.0143 54.9231C12.0143 54.8134 11.9712 54.7272 11.885 54.6645C11.7988 54.5979 11.6851 54.545 11.5441 54.5058C11.403 54.4627 11.2462 54.4235 11.0738 54.3882C10.9053 54.349 10.7348 54.302 10.5624 54.2471C10.3939 54.1923 10.2391 54.1217 10.098 54.0355C9.95694 53.9493 9.84134 53.8357 9.75121 53.6946C9.66499 53.5535 9.62188 53.3732 9.62188 53.1538C9.62188 52.9187 9.68459 52.7051 9.80999 52.5131C9.93931 52.3171 10.1313 52.1623 10.3861 52.0487C10.6447 51.9311 10.968 51.8723 11.356 51.8723C11.6146 51.8723 11.8693 51.9037 12.1201 51.9664C12.3709 52.0252 12.5923 52.1153 12.7844 52.2368L12.4905 52.9598C12.2984 52.8501 12.1064 52.7697 11.9144 52.7188C11.7224 52.6639 11.5343 52.6365 11.3501 52.6365C11.1659 52.6365 11.015 52.6581 10.8975 52.7012C10.7799 52.7443 10.6956 52.8011 10.6447 52.8716C10.5937 52.9382 10.5683 53.0166 10.5683 53.1068C10.5683 53.2126 10.6114 53.2988 10.6976 53.3654C10.7838 53.4281 10.8975 53.479 11.0385 53.5182C11.1796 53.5574 11.3344 53.5966 11.5029 53.6358C11.6753 53.675 11.8458 53.72 12.0143 53.771C12.1867 53.8219 12.3435 53.8905 12.4846 53.9767C12.6257 54.0629 12.7393 54.1766 12.8255 54.3177C12.9156 54.4587 12.9607 54.637 12.9607 54.8526C12.9607 55.0838 12.896 55.2954 12.7667 55.4874C12.6374 55.6795 12.4434 55.8342 12.1848 55.9518C11.9301 56.0694 11.6068 56.1282 11.2149 56.1282Z" fill="#201E1E"/>
<path d="M14.9716 56.0576V54.3764L15.1891 54.9525L13.3786 51.9429H14.3897L15.777 54.253H15.195L16.5881 51.9429H17.5228L15.7123 54.9525L15.9239 54.3764V56.0576H14.9716Z" fill="#201E1E"/>
<path d="M18.1221 54.7703V54.0355H19.7856V54.7703H18.1221Z" fill="#606062"/>
<path d="M23.4595 53.7945H25.4345V54.5587H23.4595V53.7945ZM23.53 56.0576H22.5777V51.9429H25.6873V52.707H23.53V56.0576ZM25.6247 56.0576L27.4587 51.9429H28.3992L30.2391 56.0576H29.2398L27.735 52.4249H28.1112L26.6005 56.0576H25.6247ZM26.5417 55.1759L26.7945 54.4529H28.9106L29.1693 55.1759H26.5417ZM32.018 56.1282C31.6888 56.1282 31.3734 56.085 31.0716 55.9988C30.7699 55.9087 30.5269 55.7931 30.3427 55.652L30.666 54.9349C30.8424 55.0603 31.0501 55.1641 31.2891 55.2464C31.5321 55.3248 31.777 55.364 32.0239 55.364C32.212 55.364 32.3629 55.3464 32.4765 55.3111C32.5941 55.2719 32.6803 55.219 32.7351 55.1524C32.79 55.0858 32.8174 55.0093 32.8174 54.9231C32.8174 54.8134 32.7743 54.7272 32.6881 54.6645C32.6019 54.5979 32.4883 54.545 32.3472 54.5058C32.2061 54.4627 32.0494 54.4235 31.8769 54.3882C31.7084 54.349 31.5379 54.302 31.3655 54.2471C31.197 54.1923 31.0422 54.1217 30.9011 54.0355C30.7601 53.9493 30.6445 53.8357 30.5543 53.6946C30.4681 53.5535 30.425 53.3732 30.425 53.1538C30.425 52.9187 30.4877 52.7051 30.6131 52.5131C30.7424 52.3171 30.9345 52.1623 31.1892 52.0487C31.4478 51.9311 31.7711 51.8723 32.1591 51.8723C32.4177 51.8723 32.6724 51.9037 32.9232 51.9664C33.1741 52.0252 33.3955 52.1153 33.5875 52.2368L33.2936 52.9598C33.1016 52.8501 32.9095 52.7697 32.7175 52.7188C32.5255 52.6639 32.3374 52.6365 32.1532 52.6365C31.969 52.6365 31.8181 52.6581 31.7006 52.7012C31.583 52.7443 31.4988 52.8011 31.4478 52.8716C31.3969 52.9382 31.3714 53.0166 31.3714 53.1068C31.3714 53.2126 31.4145 53.2988 31.5007 53.3654C31.5869 53.4281 31.7006 53.479 31.8417 53.5182C31.9827 53.5574 32.1375 53.5966 32.306 53.6358C32.4785 53.675 32.6489 53.72 32.8174 53.771C32.9899 53.8219 33.1466 53.8905 33.2877 53.9767C33.4288 54.0629 33.5424 54.1766 33.6286 54.3177C33.7188 54.4587 33.7638 54.637 33.7638 54.8526C33.7638 55.0838 33.6992 55.2954 33.5699 55.4874C33.4405 55.6795 33.2465 55.8342 32.9879 55.9518C32.7332 56.0694 32.4099 56.1282 32.018 56.1282ZM35.2095 56.0576V52.7188H33.8927V51.9429H37.4784V52.7188H36.1617V56.0576H35.2095Z" fill="#606062"/>
<path d="M41.1416 54.7703V54.0355H42.8051V54.7703H41.1416Z" fill="#606062"/>
<path d="M46.9493 56.1282C46.6201 56.1282 46.3046 56.085 46.0029 55.9988C45.7011 55.9087 45.4581 55.7931 45.274 55.652L45.5973 54.9349C45.7736 55.0603 45.9813 55.1641 46.2204 55.2464C46.4633 55.3248 46.7082 55.364 46.9551 55.364C47.1432 55.364 47.2941 55.3464 47.4078 55.3111C47.5253 55.2719 47.6115 55.219 47.6664 55.1524C47.7213 55.0858 47.7487 55.0093 47.7487 54.9231C47.7487 54.8134 47.7056 54.7272 47.6194 54.6645C47.5332 54.5979 47.4195 54.545 47.2784 54.5058C47.1374 54.4627 46.9806 54.4235 46.8082 54.3882C46.6397 54.349 46.4692 54.302 46.2968 54.2471C46.1283 54.1923 45.9735 54.1217 45.8324 54.0355C45.6913 53.9493 45.5757 53.8357 45.4856 53.6946C45.3994 53.5535 45.3563 53.3732 45.3563 53.1538C45.3563 52.9187 45.419 52.7051 45.5444 52.5131C45.6737 52.3171 45.8657 52.1623 46.1204 52.0487C46.3791 51.9311 46.7024 51.8723 47.0903 51.8723C47.349 51.8723 47.6037 51.9037 47.8545 51.9664C48.1053 52.0252 48.3267 52.1153 48.5187 52.2368L48.2248 52.9598C48.0328 52.8501 47.8408 52.7697 47.6488 52.7188C47.4567 52.6639 47.2686 52.6365 47.0845 52.6365C46.9003 52.6365 46.7494 52.6581 46.6318 52.7012C46.5143 52.7443 46.43 52.8011 46.3791 52.8716C46.3281 52.9382 46.3027 53.0166 46.3027 53.1068C46.3027 53.2126 46.3458 53.2988 46.432 53.3654C46.5182 53.4281 46.6318 53.479 46.7729 53.5182C46.914 53.5574 47.0688 53.5966 47.2373 53.6358C47.4097 53.675 47.5802 53.72 47.7487 53.771C47.9211 53.8219 48.0779 53.8905 48.2189 53.9767C48.36 54.0629 48.4737 54.1766 48.5599 54.3177C48.65 54.4587 48.6951 54.637 48.6951 54.8526C48.6951 55.0838 48.6304 55.2954 48.5011 55.4874C48.3718 55.6795 48.1778 55.8342 47.9192 55.9518C47.6644 56.0694 47.3411 56.1282 46.9493 56.1282ZM50.2216 53.6005H52.2026V54.3412H50.2216V53.6005ZM50.2922 55.2934H52.5318V56.0576H49.3458V51.9429H52.4553V52.707H50.2922V55.2934ZM55.2587 56.1282C54.9412 56.1282 54.6454 56.0772 54.371 55.9753C54.1006 55.8695 53.8655 55.7206 53.6657 55.5286C53.4658 55.3366 53.309 55.1112 53.1954 54.8526C53.0857 54.5939 53.0308 54.3098 53.0308 54.0002C53.0308 53.6907 53.0857 53.4065 53.1954 53.1479C53.309 52.8893 53.4658 52.6639 53.6657 52.4719C53.8694 52.2799 54.1065 52.1329 54.3769 52.031C54.6473 51.9252 54.9432 51.8723 55.2645 51.8723C55.6211 51.8723 55.9425 51.935 56.2286 52.0604C56.5186 52.1819 56.7615 52.3622 56.9575 52.6012L56.3461 53.1655C56.205 53.0049 56.0483 52.8853 55.8759 52.807C55.7034 52.7247 55.5153 52.6835 55.3116 52.6835C55.1195 52.6835 54.9432 52.7149 54.7825 52.7776C54.6219 52.8403 54.4827 52.9304 54.3652 53.048C54.2476 53.1655 54.1555 53.3047 54.0889 53.4653C54.0262 53.626 53.9948 53.8043 53.9948 54.0002C53.9948 54.1962 54.0262 54.3745 54.0889 54.5352C54.1555 54.6958 54.2476 54.8349 54.3652 54.9525C54.4827 55.0701 54.6219 55.1602 54.7825 55.2229C54.9432 55.2856 55.1195 55.317 55.3116 55.317C55.5153 55.317 55.7034 55.2778 55.8759 55.1994C56.0483 55.1171 56.205 54.9937 56.3461 54.8291L56.9575 55.3934C56.7615 55.6324 56.5186 55.8147 56.2286 55.9401C55.9425 56.0655 55.6192 56.1282 55.2587 56.1282ZM59.4057 56.1282C58.8218 56.1282 58.3652 55.9655 58.0361 55.6403C57.7069 55.315 57.5423 54.8506 57.5423 54.2471V51.9429H58.4946V54.2119C58.4946 54.6037 58.5749 54.8859 58.7356 55.0583C58.8962 55.2307 59.1216 55.317 59.4116 55.317C59.7016 55.317 59.9269 55.2307 60.0876 55.0583C60.2482 54.8859 60.3286 54.6037 60.3286 54.2119V51.9429H61.2691V54.2471C61.2691 54.8506 61.1045 55.315 60.7753 55.6403C60.4461 55.9655 59.9896 56.1282 59.4057 56.1282ZM62.2101 56.0576V51.9429H63.9912C64.3596 51.9429 64.677 52.0036 64.9435 52.1251C65.2099 52.2427 65.4157 52.4131 65.5607 52.6365C65.7057 52.8599 65.7782 53.1263 65.7782 53.4359C65.7782 53.7416 65.7057 54.0061 65.5607 54.2295C65.4157 54.4489 65.2099 54.6175 64.9435 54.735C64.677 54.8526 64.3596 54.9114 63.9912 54.9114H62.7391L63.1624 54.494V56.0576H62.2101ZM64.8259 56.0576L63.7972 54.5646H64.8141L65.8546 56.0576H64.8259ZM63.1624 54.5998L62.7391 54.1531H63.9383C64.2322 54.1531 64.4517 54.0904 64.5967 53.965C64.7416 53.8357 64.8141 53.6593 64.8141 53.4359C64.8141 53.2086 64.7416 53.0323 64.5967 52.9069C64.4517 52.7815 64.2322 52.7188 63.9383 52.7188H62.7391L63.1624 52.2662V54.5998ZM67.4085 53.6005H69.3895V54.3412H67.4085V53.6005ZM67.479 55.2934H69.7186V56.0576H66.5327V51.9429H69.6422V52.707H67.479V55.2934Z" fill="#201E1E"/>
</g>
<defs>
<clipPath id="clip0_1145_1867">
<rect width="172.141" height="55.2068" fill="white" transform="translate(0.574219 0.896484)"/>
</clipPath>
</defs>
</svg>
