<svg width="54" height="54" viewBox="0 0 54 54" fill="none" xmlns="http://www.w3.org/2000/svg">
<path fill-rule="evenodd" clip-rule="evenodd" d="M1.09538 26.0765C1.54373 27.6777 2.82472 28.6385 4.36192 30.0476C5.96316 31.5207 6.60366 32.5455 8.26896 33.4422C7.30821 36.3885 3.01687 37.8616 2.18422 41.0001C1.67182 43.0497 -0.121571 51.184 0.00652883 53.0415C1.92802 53.0415 12.5603 51.2481 14.5458 49.1985C17.5562 46.1241 20.5665 42.8575 23.705 39.9753C31.7112 39.3348 35.1058 40.1674 41.8311 36.3245C45.1617 34.403 52.5915 28.7666 53.3601 26.1405C53.232 24.8595 46.4427 19.6074 45.546 18.1983C47.2753 16.0206 50.4138 13.843 51.8229 11.5372C54.0006 8.01442 52.6555 3.85118 50.3497 1.92968C43.4964 -3.89885 37.4116 4.74788 31.391 11.0248C27.9323 14.6756 27.0356 10.3843 15.6987 14.8037C10.3186 16.8533 4.49002 21.8492 1.22348 26.1405L1.09538 26.0765ZM5.06647 39.7191C9.03756 41.8968 11.3434 41.7046 13.7132 38.0538C14.2256 37.2852 13.7772 38.1819 14.0975 37.2211C12.6243 36.3885 11.0231 35.2997 9.54996 34.8513C8.26896 36.3245 5.89912 38.31 5.06647 39.7191ZM39.205 14.8037L43.9447 17.4297C45.4179 16.1487 47.7237 14.0992 48.4923 12.4339L45.2257 8.91112L39.205 14.8037ZM41.8311 2.89043C42.4716 4.36358 44.4571 6.02887 45.7381 7.24582C46.827 8.33467 48.6844 10.6405 50.0935 11.0888C53.5522 4.04333 46.5708 -0.69636 41.8311 2.89043ZM11.5355 42.5373C11.7917 44.0745 12.4322 46.7005 13.3289 47.7894C15.7628 46.1881 17.5562 43.6261 19.5417 41.7687C20.3744 41.0001 20.8868 40.5517 21.4632 39.4629L16.2111 38.0538L11.5355 42.5373ZM32.0315 12.8182L37.86 14.2273L43.8807 7.88632C43.3042 6.60532 41.4468 4.74788 40.1658 4.17143C38.5005 5.96482 32.736 11.2169 32.0315 12.8182ZM1.86397 50.9919L11.5996 49.0704C11.5355 48.0456 10.3186 43.9464 9.80616 43.3059C9.03756 42.4732 5.19457 41.5125 3.84952 41.3203L1.86397 50.9919ZM3.33712 26.0765C4.42597 28.1901 9.87021 32.8658 12.7524 34.5951C21.3351 39.655 32.736 39.5269 41.4468 34.7232C44.6493 32.9939 49.7092 28.5104 51.0543 26.1405C45.9943 20.7603 39.0769 14.3554 27.4199 14.2273C15.6987 14.1632 10.1905 19.2231 3.27307 26.1405L3.33712 26.0765Z" fill="#FF400A"/>
<path fill-rule="evenodd" clip-rule="evenodd" d="M24.9194 16.4689C11.7251 19.5433 16.5289 39.1426 29.4029 36.0682C34.0785 34.9793 38.2418 30.1756 36.8327 23.9628C35.8079 19.3512 30.6198 15.1239 24.8554 16.4689H24.9194ZM25.0475 18.2623C13.5826 21.8491 19.1549 37.2851 29.4669 34.4029C33.0537 33.3781 36.7046 29.0868 35.2314 24.0909C34.1426 20.3119 30.1715 16.7251 25.1116 18.3264L25.0475 18.2623Z" fill="#FF400A"/>
<path fill-rule="evenodd" clip-rule="evenodd" d="M25.4996 21.7211C19.3508 23.8347 22.4893 32.9298 28.7662 30.8802C34.0182 29.1509 31.9687 19.4794 25.4996 21.7211ZM25.6277 23.5145C22.2971 25.3719 24.4748 31.0083 28.6381 29.0868C32.0327 27.5496 29.6629 21.2727 25.6277 23.5145Z" fill="#FF400A"/>
<path fill-rule="evenodd" clip-rule="evenodd" d="M27.3554 47.7894C28.7645 46.7646 28.8286 44.0105 27.3554 43.1779C26.2025 43.8184 26.5868 42.9857 26.4587 45.1634C26.3947 46.9568 26.2666 47.0208 27.3554 47.8535V47.7894Z" fill="#FF400A"/>
<path fill-rule="evenodd" clip-rule="evenodd" d="M1.15625 13.7148C1.4765 14.9958 2.43725 15.7003 3.71824 16.2768C6.47239 17.4937 5.06329 14.3553 2.6294 13.5226C1.15625 13.0102 1.66865 13.3945 1.15625 13.7148Z" fill="#FF400A"/>
<path fill-rule="evenodd" clip-rule="evenodd" d="M52.4005 39.1427C52.5927 37.5414 52.5927 38.1179 51.1195 37.0931C50.0307 36.3885 49.9666 36.1323 48.6216 36.1323C48.2373 38.246 51.0555 39.3989 52.4646 39.1427H52.4005Z" fill="#FF400A"/>
<path fill-rule="evenodd" clip-rule="evenodd" d="M41.2544 45.0353C41.4466 43.5621 40.4858 41.1923 38.5003 41.0001C38.3722 42.7935 39.2689 45.0993 41.2544 45.0353Z" fill="#FF400A"/>
<path fill-rule="evenodd" clip-rule="evenodd" d="M16.0183 11.0888C16.0823 9.61566 14.9935 7.37391 13.2642 7.18176C12.8158 8.46276 13.9687 11.4731 16.0183 11.0888Z" fill="#FF400A"/>
<path fill-rule="evenodd" clip-rule="evenodd" d="M27.6116 9.03928C28.0599 6.79753 28.3161 5.83678 27.3554 4.55579C26.7789 4.74794 26.1384 3.85124 26.2665 7.11778C26.3306 8.59093 26.2665 8.91118 27.6116 9.03928Z" fill="#FF400A"/>
</svg>
