<svg width="77" height="49" viewBox="0 0 77 49" fill="none" xmlns="http://www.w3.org/2000/svg">
<g clip-path="url(#clip0_1197_1026)">
<path fill-rule="evenodd" clip-rule="evenodd" d="M52.0489 1.38371C49.3326 0.768703 44.6176 0.922454 41.8501 1.33246C38.6213 1.84496 35.8025 2.92121 33.445 4.35622C26.27 8.66125 23.1437 15.375 21.1962 23.1651C20.9912 23.8826 20.94 24.8051 20.735 25.4713C20.4275 26.3938 18.5312 26.9063 17.1987 27.5726L1.97736 34.9526C-1.91766 37.6176 0.388606 44.0752 5.10363 43.5114C6.89739 43.3064 8.58865 41.9227 10.2287 40.9489C12.4324 39.6164 10.9974 39.3089 16.3787 42.7939C17.1474 43.3064 17.9162 43.7164 18.685 44.1777C25.04 47.6115 28.4225 48.3802 36.0588 48.3802C42.6188 48.3802 48.1539 45.4077 53.1251 42.6402C53.8939 42.2302 57.2764 39.7702 57.9939 39.7702C64.7589 39.7702 71.2677 41.8714 71.6777 41.8714C73.1127 41.8714 73.7277 40.8464 74.1377 39.8214C76.1365 34.6964 76.5465 30.8014 76.5465 25.2663C76.5465 21.8838 75.3165 18.3475 74.2915 15.99C73.0102 13.0688 70.2427 9.9425 67.7315 7.99499C67.1165 7.53374 66.6552 7.12374 66.0402 6.71373C64.7589 5.84248 63.6314 5.27873 62.1964 4.61247C61.0689 4.04872 61.7352 3.89497 61.1714 2.86996C59.5314 -0.102551 52.6639 -0.871306 52.0489 1.48621V1.38371ZM9.61366 38.2327C8.5374 36.9514 1.66986 35.5676 2.74612 39.4114C3.20737 40.9489 4.79613 41.1539 6.23114 40.2827C7.35864 39.5652 8.5374 38.7964 9.56241 38.2327H9.61366ZM23.5537 25.2663C27.6025 25.7276 29.3963 26.5476 31.3438 26.8038C32.01 25.5738 32.3688 19.1676 36.8788 12.5563C38.9801 9.43 41.3376 7.22624 44.4126 5.38123C45.5401 4.71497 46.8214 4.35622 47.8464 3.68997C40.6713 3.17747 34.2138 6.30373 30.8313 9.68625C29.2425 11.275 27.3975 13.9913 26.1675 16.605C25.45 18.1938 23.4512 23.4726 23.5025 25.2663H23.5537ZM62.9139 7.94374L60.4539 6.61123C60.8127 8.40499 61.7864 9.43 62.3502 13.6838C63.0164 19.0138 62.2477 24.8563 61.0177 29.9814C60.7102 31.2114 60.4539 32.3901 60.0952 33.6201C59.7877 34.6451 59.2239 36.1826 59.0702 37.1051C62.0427 37.2076 64.5027 37.6689 67.3215 38.0789L71.4727 39.1039C72.3952 37.9764 73.5227 32.2364 73.7277 30.3401C74.5478 23.3701 73.164 18.1938 69.1152 13.0175C68.039 11.6338 64.8102 8.86625 62.8627 7.99499L62.9139 7.94374ZM8.58865 34.6964C9.3574 35.2089 10.6387 35.5676 11.5612 36.1826C15.3537 38.8477 15.2512 38.9502 19.8637 41.7177C27.8075 46.4839 37.1351 46.9452 45.7963 43.3577C48.2051 42.3839 52.9201 39.8214 54.5601 38.4889C53.6889 37.8739 45.0788 34.4914 43.4901 33.8764C38.7238 32.0314 30.575 29.0076 25.3987 28.1363C22.2212 27.6238 21.76 28.3414 19.3 29.5201C15.6612 31.2114 12.1249 33.0564 8.5374 34.6964H8.58865ZM33.7013 27.4701C34.4188 27.9313 38.3138 29.1101 39.4926 29.5201L50.8189 33.9276C52.1514 34.4914 55.2264 35.9776 56.4052 36.2339C58.0452 33.3639 59.8389 22.7038 59.9414 18.7063C60.0439 14.4525 59.4289 9.3275 56.8664 5.99623C55.7389 4.50997 55.4827 4.56122 53.0739 4.81747C46.6164 5.53498 42.5163 9.02 39.6976 12.505C37.34 15.375 34.06 22.5501 33.7013 27.4701Z" fill="#FF400A"/>
</g>
<defs>
<clipPath id="clip0_1197_1026">
<rect width="76.6291" height="48.3803" fill="white"/>
</clipPath>
</defs>
</svg>
