<svg width="35" height="64" viewBox="0 0 35 64" fill="none" xmlns="http://www.w3.org/2000/svg">
<g clip-path="url(#clip0_1197_1043)">
<path fill-rule="evenodd" clip-rule="evenodd" d="M18.5603 62.3098V61.6509C20.3177 61.2115 19.7685 60.6624 22.075 60.6624C21.416 61.541 20.098 62.2 18.5603 62.3098ZM3.9526 59.7837C4.2821 59.4542 4.39193 59.4542 4.94109 59.1247C5.92959 58.5755 7.46724 58.1362 8.78523 58.1362C7.79674 59.4542 5.70992 59.7837 3.9526 59.7837ZM2.63461 53.7429C4.72143 53.7429 3.6231 54.6216 5.27059 55.1707L27.1273 58.7952C27.8961 58.905 28.4453 59.1247 28.9944 59.0149C30.6419 58.905 29.3239 58.4657 30.6419 58.4657C32.1796 58.4657 31.0812 59.3444 30.9714 60.6624C33.2779 60.0034 30.5321 59.3444 33.1681 59.0149C33.4976 62.6393 32.7287 61.6509 26.2486 60.5525L7.35741 57.1477C3.73294 56.3789 0.877288 56.5986 1.09695 54.9511C1.20679 54.2921 1.86578 53.5232 2.52478 53.5232L2.63461 53.7429ZM4.83126 53.4134V6.29524C4.83126 5.08708 5.81975 5.41658 7.02791 5.30675L29.3239 3.1101V58.246C27.0174 58.246 11.4212 55.3904 7.35741 54.7314C6.25908 54.5117 4.83126 54.6216 4.83126 53.4134ZM3.51327 4.64775C4.6116 3.11009 6.58858 3.43959 9.3344 3.1101L29.9829 1.13311C29.9829 2.89043 31.0812 1.7921 24.4913 2.67076L6.80825 4.42809C5.49026 4.53792 4.50176 5.19691 3.6231 4.64775H3.51327ZM2.85427 4.31825C2.85427 6.40507 4.17226 4.97725 4.17226 6.5149V53.0839C3.2936 53.0839 0.328125 51.8758 0.328125 55.6101C0.328125 57.9165 4.2821 56.5986 5.38042 58.1362C4.06243 58.4657 3.18377 58.4657 2.85427 59.7837C4.83126 62.4197 8.45574 58.7952 10.2131 58.7952C13.3982 58.7952 16.0342 60.1132 19.1095 60.1132V60.7722C17.5718 61.2115 16.0342 62.9688 19.439 62.9688C20.757 62.9688 21.5258 61.9803 22.734 61.4312C25.5896 60.1132 34.1566 65.0557 34.1566 60.4427C34.1566 57.9165 32.0697 58.0264 29.9829 57.587V3.76909C30.2026 2.67076 30.8616 2.7806 30.8616 1.7921C30.8616 -0.624212 26.7978 0.693779 24.8208 0.803611L9.44423 2.34127C7.24758 2.56093 2.85427 2.34127 2.85427 4.31825Z" stroke="#FF400A" stroke-width="0.658995" stroke-miterlimit="2.61313"/>
<path fill-rule="evenodd" clip-rule="evenodd" d="M18.5603 62.3098V61.6509C20.3177 61.2115 19.7685 60.6624 22.075 60.6624C21.416 61.541 20.098 62.2 18.5603 62.3098ZM3.9526 59.7837C4.2821 59.4542 4.39193 59.4542 4.94109 59.1247C5.92959 58.5755 7.46724 58.1362 8.78523 58.1362C7.79674 59.4542 5.70992 59.7837 3.9526 59.7837ZM2.63461 53.7429C4.72143 53.7429 3.6231 54.6216 5.27059 55.1707L27.1273 58.7952C27.8961 58.905 28.4453 59.1247 28.9944 59.0149C30.6419 58.905 29.3239 58.4657 30.6419 58.4657C32.1796 58.4657 31.0812 59.3444 30.9714 60.6624C33.2779 60.0034 30.5321 59.3444 33.1681 59.0149C33.4976 62.6393 32.7287 61.6509 26.2486 60.5525L7.35741 57.1477C3.73294 56.3789 0.877288 56.5986 1.09695 54.9511C1.20679 54.2921 1.86578 53.5232 2.52478 53.5232L2.63461 53.7429ZM4.83126 53.4134V6.29524C4.83126 5.08708 5.81975 5.41658 7.02791 5.30675L29.3239 3.1101V58.246C27.0174 58.246 11.4212 55.3904 7.35741 54.7314C6.25908 54.5117 4.83126 54.6216 4.83126 53.4134ZM3.51327 4.64775C4.6116 3.1101 6.58858 3.43959 9.3344 3.1101L29.9829 1.13311C29.9829 2.89043 31.0812 1.7921 24.4913 2.67076L6.80825 4.42809C5.49026 4.53792 4.50176 5.19691 3.6231 4.64775H3.51327ZM2.85427 4.31825C2.85427 6.40507 4.17227 4.97725 4.17227 6.5149V53.0839C3.2936 53.0839 0.328125 51.8758 0.328125 55.6101C0.328125 57.9165 4.2821 56.5986 5.38042 58.1362C4.06243 58.4657 3.18377 58.4657 2.85427 59.7837C4.83126 62.4197 8.45574 58.7952 10.2131 58.7952C13.3982 58.7952 16.0342 60.1132 19.1095 60.1132V60.7722C17.5718 61.2115 16.0342 62.9688 19.439 62.9688C20.757 62.9688 21.5258 61.9804 22.734 61.4312C25.5896 60.1132 34.1566 65.0557 34.1566 60.4427C34.1566 57.9165 32.0697 58.0264 29.9829 57.587V3.76909C30.2026 2.67076 30.8616 2.7806 30.8616 1.7921C30.8616 -0.624212 26.7978 0.693779 24.8208 0.803611L9.44423 2.34127C7.24758 2.56093 2.85427 2.34127 2.85427 4.31825Z" fill="#FF400A"/>
<path d="M8.56641 48.1415L22.2955 18.926" stroke="#FF400A" stroke-width="1.09833" stroke-miterlimit="2.61313" stroke-linecap="round" stroke-linejoin="round"/>
<path d="M16.1445 42.3203L21.8558 30.1289" stroke="#FF400A" stroke-width="0.43933" stroke-miterlimit="2.61313" stroke-linecap="round" stroke-linejoin="round"/>
</g>
<defs>
<clipPath id="clip0_1197_1043">
<rect width="34.4874" height="63.3331" fill="white"/>
</clipPath>
</defs>
</svg>
