<svg width="79" height="62" viewBox="0 0 79 62" fill="none" xmlns="http://www.w3.org/2000/svg">
<g clip-path="url(#clip0_1197_1053)">
<path fill-rule="evenodd" clip-rule="evenodd" d="M20.3072 20.4988C17.2178 20.457 14.0031 20.457 10.9554 20.4988C7.28152 20.5823 3.81635 22.9202 2.14639 25.7174C0.351184 28.7651 0.643427 30.3515 0.476431 33.3992C0.392933 34.9022 0.434683 36.5304 0.392934 38.0751C0.309436 41.1228 0.184189 44.2122 0.225938 47.2181C0.225938 48.7211 0.142439 50.3075 0.142439 51.8105C0.142439 54.3989 -0.73429 57.9059 2.27164 58.9078C3.23187 59.2418 5.61156 59.0748 6.78053 59.0748C9.91171 59.0748 13.0846 59.1166 16.2158 59.0748C16.0488 59.8681 15.2973 61.2875 15.2973 61.9555H63.2669C63.2669 61.4128 62.5572 59.7846 62.3902 59.0748C63.5592 59.0748 75.4159 59.1583 76.0839 59.0331C77.2528 58.7826 78.1713 57.8224 78.4218 56.6534C78.5471 55.8602 78.4636 39.4528 78.4636 38.2003C78.4636 33.1487 79.2568 28.5146 75.9586 24.5902C75.7081 24.2979 75.6246 24.2562 75.4159 24.0057L74.2052 22.8785C73.1614 22.1687 73.5789 22.3357 72.076 21.5842C68.6108 19.8725 63.5174 20.7493 59.2173 20.5405C59.092 19.7473 62.0145 1.29422 61.9727 0.0834961H16.6333L20.3907 20.5405L20.3072 20.4988ZM58.6745 22.0852L20.6412 22.2522L20.516 21.5842C19.6392 22.9619 22.7286 22.5862 24.1899 22.5862H56.5871C57.5056 22.5862 58.3405 22.8367 58.6745 22.0852ZM17.7605 21.5007L17.6353 22.2105C17.7188 24.4232 19.4305 24.3814 20.9334 24.4232H58.5493C60.261 24.4232 61.6805 24.2144 61.7222 22.127C61.7222 21.7512 61.8057 21.626 61.5552 21.5007C61.0125 21.7512 62.3067 23.9639 58.0066 23.9639H21.5179C20.2655 23.9639 18.1363 23.9222 18.011 22.1687C17.9693 21.459 18.011 21.5842 17.7605 21.5007ZM60.8455 21.5007H59.1755C59.4678 23.5464 57.2968 23.0454 55.5851 23.0454H23.6889C21.9354 23.0454 19.7227 23.5882 19.9315 21.5007H18.5955C18.2198 23.6717 20.5995 23.4629 22.3112 23.4629H57.1298C58.925 23.4629 61.1377 23.7552 60.929 21.5007H60.8455ZM61.43 56.5281L62.1397 56.5699C62.098 54.6912 62.3902 50.8085 62.0145 49.2221C61.597 47.3851 60.094 46.0074 57.8813 45.9656L61.43 56.5281ZM16.3411 56.5699H17.1343L20.8917 46.0074C19.5975 46.0074 18.8042 46.2579 17.9693 46.8841C17.3848 47.3434 16.7585 48.0948 16.4663 49.1386C16.1323 50.3493 16.2993 55.0669 16.2993 56.6116L16.3411 56.5699ZM14.8381 57.7806C15.2556 57.8224 15.6731 57.8224 16.0906 57.8224C16.7585 57.8224 16.7168 57.8641 16.842 57.1961H15.7148C15.7566 55.1922 15.4643 50.224 15.9653 48.6793C16.8003 46.0491 18.9712 45.3812 21.4762 45.3812H56.8376C58.3405 45.3812 59.3008 45.3812 60.4697 46.1326C61.3047 46.6754 62.0562 47.4686 62.4737 48.6376C62.9329 49.9318 62.7659 55.4844 62.7242 57.1961H61.6805L61.8475 57.7806H63.6009C63.6844 56.8204 63.6844 49.3891 63.5174 48.6376C62.9747 45.8404 60.7202 44.7549 57.9648 44.7549H20.4325C18.846 44.7549 17.7605 44.9219 16.7168 45.7569C14.2536 47.7191 14.7963 49.9318 14.7963 53.1047C14.7963 54.5242 14.6711 56.4446 14.7963 57.7806H14.8381ZM69.6128 58.0729C70.573 58.0729 75.3741 58.1981 76.0839 57.9476C76.5431 57.7806 77.0441 57.3214 77.2528 56.8621C77.5868 56.1107 77.4198 37.9081 77.4198 34.9022C77.4198 33.6079 77.5451 31.7292 77.3363 30.5603H69.6545L69.6128 58.1146V58.0729ZM9.66121 58.0311V30.5603H1.60365C1.35316 33.3157 1.43666 36.6974 1.39491 39.4946L1.14442 52.896C1.14442 54.1484 0.852172 56.1524 1.47841 57.0709C2.31339 58.2399 3.31536 58.0729 5.06882 58.0729C6.48829 58.0729 8.28349 58.1564 9.61946 58.0311H9.66121ZM10.3709 36.7391L68.9448 36.7809V30.5185H10.3709V36.7391ZM20.182 58.2399H58.6745C58.3823 56.8621 56.8376 51.8105 56.2531 49.8901C56.0443 49.1386 55.7104 47.7191 55.4181 47.1346H24.0229C23.7724 47.5104 22.3947 51.7688 22.1024 52.6037L20.182 58.2816V58.2399ZM1.77065 29.6418H77.2528C77.0441 28.0136 75.8334 25.7174 74.8732 24.8407C74.5809 24.5484 74.3722 24.3814 74.1217 24.0892C72.8275 22.6697 70.1973 21.626 68.0681 21.459C66.7321 21.3755 63.6844 21.3337 62.3902 21.459C62.2649 23.2542 62.098 24.9659 59.3425 24.9659H20.1402C16.8003 24.9659 17.2178 22.4192 17.0508 21.4172C11.6652 21.626 7.53201 20.3735 3.52411 25.4669C2.77263 26.4271 1.93765 28.0971 1.77065 29.6V29.6418ZM10.4127 38.0333V57.9894C11.2059 58.0729 13.3351 58.0729 14.2119 58.0311C14.1701 56.5699 14.1284 49.4726 14.3371 48.4288C14.8381 45.9656 16.9673 44.0869 19.7645 44.0452C26.2356 43.8782 32.8737 44.0452 39.3447 44.0452C45.8158 44.0452 52.3704 43.9617 58.8415 44.0452C61.7222 44.0869 63.7679 45.9656 64.3106 48.3871C64.6029 49.5978 64.4359 56.2776 64.4359 58.0729L68.9865 58.1146V37.5741H10.4127V38.1586V38.0333ZM24.4404 19.7055L55.0424 19.5803L57.4638 2.46319H21.3092L24.4404 19.7055Z" fill="#FF400A"/>
</g>
<defs>
<clipPath id="clip0_1197_1053">
<rect width="78.4823" height="61.9555" fill="white"/>
</clipPath>
</defs>
</svg>
