<svg width="70" height="60" viewBox="0 0 70 60" fill="none" xmlns="http://www.w3.org/2000/svg">
<g clip-path="url(#clip0_1197_1030)">
<path fill-rule="evenodd" clip-rule="evenodd" d="M60.623 57.3402C60.9521 56.8795 59.6357 56.8136 62.7293 56.8136C64.3091 56.8136 64.3091 56.682 64.9673 57.2744L60.6888 57.406L60.623 57.3402ZM4.93689 57.2086C5.39765 56.8795 4.41031 57.0111 5.79259 56.8136C5.99006 56.8136 6.84575 56.8136 7.10904 56.8136C9.2812 56.8136 8.75461 56.7478 9.2812 57.2086C8.35968 57.6035 5.85841 57.6035 4.93689 57.2086ZM62.2027 25.2845C62.2027 23.0465 61.9395 23.968 62.9926 23.6389C63.4534 24.6921 63.2559 29.8921 63.2559 31.0769C63.2559 36.4086 63.6508 51.8769 62.9926 55.2997C62.0053 55.0364 62.2027 55.6946 62.2027 53.7858V25.3503V25.2845ZM6.58246 25.2845C6.58246 23.7706 6.25335 24.1655 7.10904 23.5731C7.76727 24.0997 7.63563 23.4415 7.63563 24.9554V50.1655C7.63563 52.5351 8.03056 54.7073 7.10904 55.2997C6.45082 54.8389 6.58246 55.4314 6.58246 53.9833V25.2187V25.2845ZM12.9015 53.0617C13.6913 50.0997 14.8103 48.9807 15.0078 45.163C15.4685 36.8693 9.21537 30.8794 12.0458 18.8339C13.7571 18.3731 48.1825 18.5706 52.7243 18.7022C50.4863 25.7453 49.6964 28.5756 52.2635 36.0794C54.6331 42.9908 55.2914 45.6896 53.5141 53.1934L12.9015 53.1276V53.0617ZM3.15967 22.125C1.44828 17.9123 0.526762 10.7377 3.2255 6.39335H54.6989C54.6989 7.70981 54.4357 9.75031 55.0939 10.5402C55.7521 11.1984 64.6382 11.1326 65.6914 10.606L65.7572 6.32753C67.2053 6.52499 66.7445 5.93259 67.2711 7.64398L68.3243 13.8313C68.4559 17.1225 67.9293 19.3604 66.8103 22.0592H53.3167C54.1065 18.1756 54.7648 18.6364 57.266 18.3731C57.1344 16.7275 56.9369 17.0566 55.0281 16.9908H13.1647C9.47867 16.9908 8.4255 16.5959 7.8331 17.9782C8.68879 18.8997 8.82044 18.6364 10.466 18.5706L9.93943 22.0592H3.15967V22.125ZM59.4382 6.45917H62.9268L64.1116 6.59082V9.4212L62.2686 9.48702H61.2812H57.4635H56.147V6.52499H59.3724L59.4382 6.45917ZM11.7825 1.85157L57.9901 1.9174V4.8136L11.7825 4.68195V1.85157ZM2.10651 4.87942C-0.394758 10.0136 -0.723872 15.4111 1.05334 21.1377C1.97486 24.0997 1.7774 23.5731 4.93689 23.7706V54.839C4.54195 56.0238 4.60778 55.1022 3.35714 55.9579C2.96221 59.9731 3.29132 59.1833 7.04322 59.1833C10.7951 59.1833 11.0584 59.9073 10.7293 55.9579C9.47867 55.1022 9.21537 56.2212 9.08373 54.2465L9.14955 29.6288C9.14955 27.6541 8.75461 24.4288 9.61031 23.8364C10.0711 25.2845 10.0052 29.8921 10.6635 32.3934C11.2559 34.8288 12.1774 37.1326 12.7698 39.5022C15.0736 48.52 10.2685 52.7326 10.8609 54.5098C11.7825 54.9706 51.7369 55.1681 54.3698 54.6415L54.8964 53.7858C55.5546 52.3377 56.0154 48.2567 56.0812 46.8086C56.2787 36.9351 51.5395 37.3959 52.6584 23.7048L60.623 23.8364V54.839C60.1622 56.1554 60.3597 54.839 58.9116 55.9579L59.1091 58.92C60.6888 59.1833 62.861 59.1833 64.5724 59.1174C67.0736 59.0516 66.5471 58.3934 66.3496 55.7605C65.5597 55.2997 64.9015 55.4972 64.704 54.7731V23.7048C67.9293 23.7048 67.7319 24.1655 68.7192 21.2693C69.3116 19.5579 69.6407 17.7149 69.7724 15.806C69.9698 11.9883 69.0483 7.90727 67.7319 4.87942L59.6357 4.74778L59.3724 0.469294C56.9369 -0.123111 11.7825 0.00853426 10.2027 0.535117L10.0711 4.8136H2.04069L2.10651 4.87942Z" fill="#FF400A"/>
<path fill-rule="evenodd" clip-rule="evenodd" d="M56.2773 9.35536H57.5938H61.4115H62.333L64.1761 9.28954V6.45916L62.9913 6.32751L59.5027 6.39334H56.2773V9.35536Z" fill="#FF400A"/>
<path fill-rule="evenodd" clip-rule="evenodd" d="M60.424 17.5832C60.424 16.2667 61.6088 16.3984 61.543 17.7148C61.3456 17.7807 61.2797 17.8465 60.819 17.8465C59.6342 17.7807 60.9506 17.9781 60.424 17.5832ZM58.9101 17.9123C59.3709 20.2819 63.7152 20.1503 63.1886 16.9908C62.7278 14.292 58.3177 14.8186 58.9101 17.9123Z" fill="#FF400A"/>
<path fill-rule="evenodd" clip-rule="evenodd" d="M22.1824 8.23634C19.747 9.35533 21.4584 12.3174 23.5647 11.3958C25.4077 10.5401 24.2229 7.31482 22.1824 8.23634Z" fill="#FF400A"/>
<path fill-rule="evenodd" clip-rule="evenodd" d="M11.8499 8.56554C10.0726 10.0136 12.3106 12.6466 14.0878 11.1326C15.6018 9.81617 13.8245 6.91997 11.8499 8.56554Z" fill="#FF400A"/>
<path fill-rule="evenodd" clip-rule="evenodd" d="M16.5892 11.33L19.0905 11.4617C20.9335 7.05155 14.7462 6.91991 16.5892 11.33Z" fill="#FF400A"/>
<path fill-rule="evenodd" clip-rule="evenodd" d="M4.9375 57.2085C5.85902 57.6035 8.36029 57.6035 9.28181 57.2085C8.75522 56.7478 9.28181 56.8136 7.10965 56.8136C6.84636 56.8136 5.99067 56.8136 5.7932 56.8136C4.34509 57.0111 5.33244 56.8794 4.9375 57.2085Z" fill="#FF400A"/>
<path fill-rule="evenodd" clip-rule="evenodd" d="M60.6244 57.3402L64.9029 57.2086C64.2447 56.6162 64.2447 56.7478 62.6649 56.7478C59.5713 56.7478 60.9535 56.8136 60.5586 57.2744L60.6244 57.3402Z" fill="#FF400A"/>
<path fill-rule="evenodd" clip-rule="evenodd" d="M60.427 17.5831C61.0194 17.9781 59.6371 17.7806 60.8219 17.8464C61.2826 17.8464 61.3485 17.7806 61.5459 17.7148C61.6118 16.4642 60.427 16.2667 60.427 17.5831Z" fill="#FF400A"/>
</g>
<defs>
<clipPath id="clip0_1197_1030">
<rect width="69.9038" height="59.0601" fill="white"/>
</clipPath>
</defs>
</svg>
