<svg width="100" height="110" viewBox="0 0 100 110" fill="none" xmlns="http://www.w3.org/2000/svg">
<circle cx="50" cy="60" r="48" stroke="#0096E9" stroke-width="4"/>
<path d="M67 14C67 10.287 65.2089 6.72601 62.0208 4.1005C58.8327 1.475 54.5087 9.53674e-07 50 0C45.4913 0 41.1673 1.47499 37.9792 4.1005C34.7911 6.72601 33 10.287 33 14C33 14 41.33 12.2205 50 12.2205C58.67 12.2205 67 14 67 14Z" fill="#0096E9"/>
<path d="M64.5013 48.3333H36.5013V39H64.5013V48.3333ZM64.5013 61.1667C65.1624 61.1667 65.717 60.9427 66.165 60.4947C66.613 60.0467 66.8362 59.4929 66.8346 58.8333C66.8331 58.1738 66.6091 57.62 66.1626 57.172C65.7162 56.724 65.1624 56.5 64.5013 56.5C63.8402 56.5 63.2864 56.724 62.84 57.172C62.3935 57.62 62.1695 58.1738 62.168 58.8333C62.1664 59.4929 62.3904 60.0474 62.84 60.497C63.2895 60.9466 63.8433 61.1698 64.5013 61.1667ZM59.8346 76.3333V67H41.168V76.3333H59.8346ZM64.5013 81H36.5013V71.6667H27.168V57.6667C27.168 55.6833 27.8485 54.0212 29.2096 52.6803C30.5707 51.3394 32.2235 50.6682 34.168 50.6667H66.8346C68.818 50.6667 70.4809 51.3379 71.8233 52.6803C73.1657 54.0228 73.8362 55.6849 73.8346 57.6667V71.6667H64.5013V81Z" fill="#0096E9"/>
</svg>
