<svg width="100" height="110" viewBox="0 0 100 110" fill="none" xmlns="http://www.w3.org/2000/svg">
<circle cx="50" cy="60" r="48" stroke="#0096E9" stroke-width="4"/>
<path d="M67 14C67 10.287 65.2089 6.72601 62.0208 4.1005C58.8327 1.475 54.5087 9.53674e-07 50 0C45.4913 0 41.1673 1.47499 37.9792 4.1005C34.7911 6.72601 33 10.287 33 14C33 14 41.33 12.2205 50 12.2205C58.67 12.2205 67 14 67 14Z" fill="#0096E9"/>
<path fill-rule="evenodd" clip-rule="evenodd" d="M25.832 39.0001C25.832 38.3812 26.0779 37.7878 26.5154 37.3502C26.953 36.9126 27.5465 36.6667 28.1654 36.6667H53.832C54.4509 36.6667 55.0444 36.9126 55.4819 37.3502C55.9195 37.7878 56.1654 38.3812 56.1654 39.0001V50.6667H65.4987C67.0308 50.6667 68.5479 50.9685 69.9633 51.5548C71.3788 52.1411 72.6649 53.0005 73.7483 54.0838C74.8316 55.1672 75.691 56.4533 76.2773 57.8688C76.8636 59.2842 77.1654 60.8013 77.1654 62.3334V71.6667C77.166 73.1689 76.6833 74.6314 75.7888 75.8382C74.8942 77.045 73.6352 77.9319 72.1977 78.3681C71.7698 79.7797 70.9068 81.0201 69.732 81.9122C68.5572 82.8043 67.1306 83.3024 65.6559 83.3356C64.1812 83.3687 62.7337 82.9351 61.52 82.0966C60.3063 81.2582 59.3886 80.0578 58.8977 78.6667H44.102C43.6112 80.0578 42.6934 81.2582 41.4797 82.0966C40.2661 82.9351 38.8186 83.3687 37.3438 83.3356C35.8691 83.3024 34.4425 82.8043 33.2677 81.9122C32.0929 81.0201 31.23 79.7797 30.802 78.3681C29.3641 77.9324 28.1046 77.0456 27.2096 75.8388C26.3145 74.632 25.8316 73.1692 25.832 71.6667V62.3334H39.832C40.4509 62.3334 41.0444 62.0876 41.4819 61.65C41.9195 61.2124 42.1654 60.6189 42.1654 60.0001C42.1654 59.3812 41.9195 58.7878 41.4819 58.3502C41.0444 57.9126 40.4509 57.6667 39.832 57.6667H25.832V53.0001H35.1654C35.7842 53.0001 36.3777 52.7542 36.8153 52.3167C37.2529 51.8791 37.4987 51.2856 37.4987 50.6667C37.4987 50.0479 37.2529 49.4544 36.8153 49.0168C36.3777 48.5792 35.7842 48.3334 35.1654 48.3334H25.832V39.0001ZM56.1654 74.0001H58.8977C59.359 72.6945 60.1971 71.555 61.3061 70.7258C62.4151 69.8966 63.7451 69.4149 65.1279 69.3417C66.5107 69.2686 67.8841 69.6071 69.0744 70.3146C70.2648 71.0221 71.2185 72.0668 71.815 73.3164C72.2526 72.8789 72.4986 72.2855 72.4987 71.6667V62.3334C72.4987 60.4769 71.7612 58.6964 70.4484 57.3837C69.1357 56.0709 67.3552 55.3334 65.4987 55.3334H56.1654V74.0001ZM39.832 76.3334C39.832 75.7146 39.5862 75.1211 39.1486 74.6835C38.711 74.2459 38.1175 74.0001 37.4987 74.0001C36.8799 74.0001 36.2864 74.2459 35.8488 74.6835C35.4112 75.1211 35.1654 75.7146 35.1654 76.3334C35.1654 76.9523 35.4112 77.5457 35.8488 77.9833C36.2864 78.4209 36.8799 78.6667 37.4987 78.6667C38.1175 78.6667 38.711 78.4209 39.1486 77.9833C39.5862 77.5457 39.832 76.9523 39.832 76.3334ZM63.849 74.6837C63.4114 75.1212 63.1655 75.7146 63.1654 76.3334C63.1652 76.8732 63.3523 77.3964 63.6947 77.8138C64.0371 78.2312 64.5136 78.5169 65.043 78.6223C65.5725 78.7277 66.1221 78.6463 66.5982 78.3919C67.0744 78.1376 67.4476 77.7259 67.6543 77.2272C67.8609 76.7285 67.8883 76.1736 67.7317 75.657C67.5751 75.1404 67.2442 74.694 66.7953 74.394C66.3465 74.094 65.8076 73.959 65.2704 74.0118C64.7331 74.0646 64.2308 74.3021 63.849 74.6837Z" fill="#0096E9"/>
</svg>
