<svg width="100" height="110" viewBox="0 0 100 110" fill="none" xmlns="http://www.w3.org/2000/svg">
<circle cx="50" cy="60" r="48" stroke="#0096E9" stroke-width="4"/>
<path d="M67 14C67 10.287 65.2089 6.72601 62.0208 4.1005C58.8327 1.475 54.5087 9.53674e-07 50 0C45.4913 0 41.1673 1.47499 37.9792 4.1005C34.7911 6.72601 33 10.287 33 14C33 14 41.33 12.2205 50 12.2205C58.67 12.2205 67 14 67 14Z" fill="#0096E9"/>
<path fill-rule="evenodd" clip-rule="evenodd" d="M50.5 39C50.8495 39.0002 51.1945 39.079 51.5096 39.2304C51.8246 39.3819 52.1015 39.6021 52.32 39.875L61.6533 51.5417C61.8563 51.7794 62.0094 52.0554 62.1037 52.3534C62.1979 52.6514 62.2313 52.9653 62.2019 53.2765C62.1724 53.5876 62.0808 53.8897 61.9324 54.1648C61.784 54.4399 61.5818 54.6823 61.3379 54.8777C61.094 55.0732 60.8133 55.2176 60.5125 55.3025C60.2117 55.3874 59.8969 55.411 59.5868 55.3718C59.2768 55.3327 58.9777 55.2317 58.7074 55.0748C58.4371 54.9179 58.2011 54.7082 58.0133 54.4583L52.8333 47.9833V64.6667C52.8333 65.2855 52.5875 65.879 52.1499 66.3166C51.7123 66.7542 51.1188 67 50.5 67C49.8812 67 49.2877 66.7542 48.8501 66.3166C48.4125 65.879 48.1667 65.2855 48.1667 64.6667V47.9833L42.9867 54.4607C42.7989 54.7106 42.5629 54.9202 42.2926 55.0771C42.0223 55.234 41.7232 55.3351 41.4132 55.3742C41.1031 55.4133 40.7883 55.3897 40.4875 55.3048C40.1867 55.22 39.906 55.0755 39.6621 54.8801C39.4182 54.6846 39.216 54.4422 39.0676 54.1671C38.9192 53.8921 38.8276 53.59 38.7981 53.2788C38.7687 52.9676 38.8021 52.6537 38.8963 52.3557C38.9906 52.0577 39.1437 51.7817 39.3467 51.544L48.68 39.8773C48.8982 39.6041 49.1751 39.3833 49.4901 39.2315C49.8051 39.0796 50.1503 39.0005 50.5 39ZM43.5 64.6667V62.3333H34.1667C32.929 62.3333 31.742 62.825 30.8668 63.7002C29.9917 64.5753 29.5 65.7623 29.5 67V76.3333C29.5 77.571 29.9917 78.758 30.8668 79.6332C31.742 80.5083 32.929 81 34.1667 81H66.8333C68.071 81 69.258 80.5083 70.1332 79.6332C71.0083 78.758 71.5 77.571 71.5 76.3333V67C71.5 65.7623 71.0083 64.5753 70.1332 63.7002C69.258 62.825 68.071 62.3333 66.8333 62.3333H57.5V64.6667C57.5 66.5232 56.7625 68.3037 55.4497 69.6164C54.137 70.9292 52.3565 71.6667 50.5 71.6667C48.6435 71.6667 46.863 70.9292 45.5503 69.6164C44.2375 68.3037 43.5 66.5232 43.5 64.6667ZM62.1667 69.3333C61.5478 69.3333 60.9543 69.5792 60.5167 70.0167C60.0792 70.4543 59.8333 71.0478 59.8333 71.6667C59.8333 72.2855 60.0792 72.879 60.5167 73.3166C60.9543 73.7542 61.5478 74 62.1667 74H62.19C62.8088 74 63.4023 73.7542 63.8399 73.3166C64.2775 72.879 64.5233 72.2855 64.5233 71.6667C64.5233 71.0478 64.2775 70.4543 63.8399 70.0167C63.4023 69.5792 62.8088 69.3333 62.19 69.3333H62.1667Z" fill="#0096E9"/>
</svg>
