<svg width="100" height="110" viewBox="0 0 100 110" fill="none" xmlns="http://www.w3.org/2000/svg">
<circle cx="50" cy="60" r="48" stroke="#0096E9" stroke-width="4"/>
<path d="M67 14C67 10.287 65.2089 6.72601 62.0208 4.1005C58.8327 1.475 54.5087 9.53674e-07 50 0C45.4913 0 41.1673 1.47499 37.9792 4.1005C34.7911 6.72601 33 10.287 33 14C33 14 41.33 12.2205 50 12.2205C58.67 12.2205 67 14 67 14Z" fill="#0096E9"/>
<g clip-path="url(#clip0_1062_1312)">
<path d="M51.4995 35.5C43.6439 35.5 37.3536 39.525 32.7745 44.3156C28.2245 49.0734 25.1814 54.75 23.7328 58.6547C23.412 59.5187 23.412 60.4812 23.7328 61.3453C25.1814 65.25 28.2245 70.9375 32.7745 75.6844C37.3536 80.4641 43.6439 84.5 51.4995 84.5C59.355 84.5 65.6453 80.475 70.2245 75.6844C74.7745 70.9266 77.8175 65.25 79.2661 61.3453C79.587 60.4812 79.587 59.5187 79.2661 58.6547C77.8175 54.75 74.7745 49.0625 70.2245 44.3156C65.6453 39.5359 59.355 35.5 51.4995 35.5ZM37.4995 60C37.4995 55.8228 38.9745 51.8168 41.6 48.8631C44.2255 45.9094 47.7864 44.25 51.4995 44.25C55.2125 44.25 58.7735 45.9094 61.399 48.8631C64.0245 51.8168 65.4995 55.8228 65.4995 60C65.4995 64.1772 64.0245 68.1832 61.399 71.1369C58.7735 74.0906 55.2125 75.75 51.4995 75.75C47.7864 75.75 44.2255 74.0906 41.6 71.1369C38.9745 68.1832 37.4995 64.1772 37.4995 60ZM51.4995 53C51.4995 56.8609 48.7092 60 45.2773 60C44.1592 60 43.1092 59.6719 42.1953 59.0813C42.0981 60.2734 42.1856 61.4984 42.4773 62.7125C43.8092 68.3125 48.9328 71.6375 53.9106 70.1391C58.8884 68.6406 61.8439 62.8766 60.512 57.2766C59.3259 52.2781 55.1161 49.0953 50.6828 49.5328C51.1981 50.55 51.4995 51.7313 51.4995 53Z" fill="#0096E9"/>
</g>
<defs>
<clipPath id="clip0_1062_1312">
<rect width="56" height="56" fill="white" transform="translate(23.5 32)"/>
</clipPath>
</defs>
</svg>
