<svg width="373" height="188" viewBox="0 0 373 188" fill="none" xmlns="http://www.w3.org/2000/svg">
<g style="mix-blend-mode:luminosity" opacity="0.5">
<path d="M121.87 147.505C74.9116 127.243 86.3534 66.2207 176.695 70.7498C157.383 -5.29031 87.7857 3.29098 87.7857 3.29098C-23.0634 20.2152 -14.4902 147.505 52.0281 175.156C98.2694 193.987 141.651 188.981 176.695 132.01L147.614 117.232C140.083 132.074 135.93 139.877 121.87 147.505Z" stroke="#0E0E0E" stroke-width="4.13952"/>
<path d="M214.596 6.99521C204.187 7.15412 181.844 7.3766 176.695 6.99521L236.049 90.4245L178.126 181.005H216.503L258.694 106.634H285.63L327.583 181.243L365.961 180.766L308.037 90.6629L368.106 6.75684H329.967C328.06 6.75684 298.105 53.6362 283.723 77.5526L260.363 77.7909L214.596 6.99521Z" stroke="#0E0E0E" stroke-width="4.13952"/>
<path d="M126.129 45.779C95.2324 53.4029 75.0189 71.4586 66.9783 92.2306C59.3955 111.82 62.7538 133.579 77.8475 150.676C19.3663 132.905 25.0924 42.0399 89.1415 34.6737C99.402 34.0961 106.819 35.1587 112.891 37.4926C117.83 39.3911 121.987 42.1711 126.129 45.779Z" stroke="#0E0E0E" stroke-width="4.13952"/>
</g>
</svg>
