<svg width="449" height="226" viewBox="0 0 449 226" fill="none" xmlns="http://www.w3.org/2000/svg">
<path d="M146.58 177.543C89.8597 153.069 103.68 79.3623 212.801 84.8328C189.475 -7.01361 105.41 3.35146 105.41 3.35146C-28.4811 23.7937 -18.1259 177.543 62.2195 210.941C118.073 233.687 170.472 227.64 212.801 158.828L177.675 140.977C168.578 158.905 163.562 168.329 146.58 177.543Z" stroke="white" stroke-width="5"/>
<path d="M258.58 7.82552C246.007 8.01746 219.02 8.28619 212.801 7.82552L284.493 108.597L214.528 218.006H260.883L311.845 128.176H344.38L395.053 218.294L441.408 217.718L371.444 108.885L444 7.5376H397.933C395.629 7.5376 359.447 64.1616 342.076 93.0495L313.86 93.3374L258.58 7.82552Z" stroke="white" stroke-width="5"/>
<path d="M151.723 54.672C114.404 63.8807 89.988 85.689 80.2759 110.779C71.117 134.44 75.1728 160.723 93.4036 181.373C22.7651 159.906 29.6843 50.1491 107.053 41.2571C119.443 40.5602 128.4 41.8438 135.733 44.6623C141.698 46.9556 146.72 50.3138 151.723 54.672Z" stroke="white" stroke-width="5"/>
</svg>
