<svg width="1240" height="134" viewBox="0 0 1240 134" fill="none" xmlns="http://www.w3.org/2000/svg">
<circle cx="147.504" cy="60" r="48" stroke="#0096E9" stroke-width="4"/>
<path d="M164.504 14C164.504 10.287 162.713 6.72601 159.525 4.1005C156.337 1.475 152.013 9.53674e-07 147.504 0C142.995 0 138.671 1.47499 135.483 4.1005C132.295 6.72601 130.504 10.287 130.504 14C130.504 14 138.834 12.2205 147.504 12.2205C156.174 12.2205 164.504 14 164.504 14Z" fill="#0096E9"/>
<path fill-rule="evenodd" clip-rule="evenodd" d="M148.004 39C148.353 39.0002 148.698 39.079 149.013 39.2304C149.328 39.3819 149.605 39.6021 149.824 39.875L159.157 51.5417C159.36 51.7794 159.513 52.0554 159.608 52.3534C159.702 52.6514 159.735 52.9653 159.706 53.2765C159.676 53.5876 159.585 53.8897 159.436 54.1648C159.288 54.4399 159.086 54.6823 158.842 54.8777C158.598 55.0732 158.317 55.2176 158.016 55.3025C157.716 55.3874 157.401 55.411 157.091 55.3718C156.781 55.3327 156.482 55.2317 156.211 55.0748C155.941 54.9179 155.705 54.7082 155.517 54.4583L150.337 47.9833V64.6667C150.337 65.2855 150.091 65.879 149.654 66.3166C149.216 66.7542 148.623 67 148.004 67C147.385 67 146.792 66.7542 146.354 66.3166C145.916 65.879 145.671 65.2855 145.671 64.6667V47.9833L140.491 54.4607C140.303 54.7106 140.067 54.9202 139.797 55.0771C139.526 55.234 139.227 55.3351 138.917 55.3742C138.607 55.4133 138.292 55.3897 137.991 55.3048C137.691 55.22 137.41 55.0755 137.166 54.8801C136.922 54.6846 136.72 54.4422 136.571 54.1671C136.423 53.8921 136.331 53.59 136.302 53.2788C136.273 52.9676 136.306 52.6537 136.4 52.3557C136.494 52.0577 136.648 51.7817 136.851 51.544L146.184 39.8773C146.402 39.6041 146.679 39.3833 146.994 39.2315C147.309 39.0796 147.654 39.0005 148.004 39ZM141.004 64.6667V62.3333H131.671C130.433 62.3333 129.246 62.825 128.371 63.7002C127.496 64.5753 127.004 65.7623 127.004 67V76.3333C127.004 77.571 127.496 78.758 128.371 79.6332C129.246 80.5083 130.433 81 131.671 81H164.337C165.575 81 166.762 80.5083 167.637 79.6332C168.512 78.758 169.004 77.571 169.004 76.3333V67C169.004 65.7623 168.512 64.5753 167.637 63.7002C166.762 62.825 165.575 62.3333 164.337 62.3333H155.004V64.6667C155.004 66.5232 154.266 68.3037 152.954 69.6164C151.641 70.9292 149.86 71.6667 148.004 71.6667C146.147 71.6667 144.367 70.9292 143.054 69.6164C141.741 68.3037 141.004 66.5232 141.004 64.6667ZM159.671 69.3333C159.052 69.3333 158.458 69.5792 158.021 70.0167C157.583 70.4543 157.337 71.0478 157.337 71.6667C157.337 72.2855 157.583 72.879 158.021 73.3166C158.458 73.7542 159.052 74 159.671 74H159.694C160.313 74 160.906 73.7542 161.344 73.3166C161.781 72.879 162.027 72.2855 162.027 71.6667C162.027 71.0478 161.781 70.4543 161.344 70.0167C160.906 69.5792 160.313 69.3333 159.694 69.3333H159.671Z" fill="#0096E9"/>
<circle cx="462.504" cy="60" r="48" stroke="#0096E9" stroke-width="4"/>
<path d="M479.504 14C479.504 10.287 477.713 6.72601 474.525 4.1005C471.337 1.475 467.013 9.53674e-07 462.504 0C457.995 0 453.671 1.47499 450.483 4.1005C447.295 6.72601 445.504 10.287 445.504 14C445.504 14 453.834 12.2205 462.504 12.2205C471.174 12.2205 479.504 14 479.504 14Z" fill="#0096E9"/>
<g clip-path="url(#clip0_1062_1305)">
<path d="M464.003 35.5C456.148 35.5 449.858 39.525 445.278 44.3156C440.728 49.0734 437.685 54.75 436.237 58.6547C435.916 59.5187 435.916 60.4812 436.237 61.3453C437.685 65.25 440.728 70.9375 445.278 75.6844C449.858 80.4641 456.148 84.5 464.003 84.5C471.859 84.5 478.149 80.475 482.728 75.6844C487.278 70.9266 490.321 65.25 491.77 61.3453C492.091 60.4812 492.091 59.5187 491.77 58.6547C490.321 54.75 487.278 49.0625 482.728 44.3156C478.149 39.5359 471.859 35.5 464.003 35.5ZM450.003 60C450.003 55.8228 451.478 51.8168 454.104 48.8631C456.729 45.9094 460.29 44.25 464.003 44.25C467.716 44.25 471.277 45.9094 473.903 48.8631C476.528 51.8168 478.003 55.8228 478.003 60C478.003 64.1772 476.528 68.1832 473.903 71.1369C471.277 74.0906 467.716 75.75 464.003 75.75C460.29 75.75 456.729 74.0906 454.104 71.1369C451.478 68.1832 450.003 64.1772 450.003 60ZM464.003 53C464.003 56.8609 461.213 60 457.781 60C456.663 60 455.613 59.6719 454.699 59.0813C454.602 60.2734 454.689 61.4984 454.981 62.7125C456.313 68.3125 461.437 71.6375 466.414 70.1391C471.392 68.6406 474.348 62.8766 473.016 57.2766C471.83 52.2781 467.62 49.0953 463.187 49.5328C463.702 50.55 464.003 51.7313 464.003 53Z" fill="#0096E9"/>
</g>
<circle cx="777.504" cy="60" r="48" stroke="#0096E9" stroke-width="4"/>
<path d="M794.504 14C794.504 10.287 792.713 6.72601 789.525 4.1005C786.337 1.475 782.013 9.53674e-07 777.504 0C772.995 0 768.671 1.47499 765.483 4.1005C762.295 6.72601 760.504 10.287 760.504 14C760.504 14 768.834 12.2205 777.504 12.2205C786.174 12.2205 794.504 14 794.504 14Z" fill="#0096E9"/>
<path d="M792.005 48.3333H764.005V39H792.005V48.3333ZM792.005 61.1667C792.666 61.1667 793.221 60.9427 793.669 60.4947C794.117 60.0467 794.34 59.4929 794.339 58.8333C794.337 58.1738 794.113 57.62 793.667 57.172C793.22 56.724 792.666 56.5 792.005 56.5C791.344 56.5 790.79 56.724 790.344 57.172C789.897 57.62 789.673 58.1738 789.672 58.8333C789.67 59.4929 789.894 60.0474 790.344 60.497C790.793 60.9466 791.347 61.1698 792.005 61.1667ZM787.339 76.3333V67H768.672V76.3333H787.339ZM792.005 81H764.005V71.6667H754.672V57.6667C754.672 55.6833 755.352 54.0212 756.714 52.6803C758.075 51.3394 759.727 50.6682 761.672 50.6667H794.339C796.322 50.6667 797.985 51.3379 799.327 52.6803C800.67 54.0228 801.34 55.6849 801.339 57.6667V71.6667H792.005V81Z" fill="#0096E9"/>
<circle cx="1092.5" cy="60" r="48" stroke="#0096E9" stroke-width="4"/>
<path d="M1109.5 14C1109.5 10.287 1107.71 6.72601 1104.52 4.1005C1101.34 1.475 1097.01 9.53674e-07 1092.5 0C1088 0 1083.67 1.47499 1080.48 4.1005C1077.29 6.72601 1075.5 10.287 1075.5 14C1075.5 14 1083.83 12.2205 1092.5 12.2205C1101.17 12.2205 1109.5 14 1109.5 14Z" fill="#0096E9"/>
<path fill-rule="evenodd" clip-rule="evenodd" d="M1068.34 39.0001C1068.34 38.3812 1068.58 37.7878 1069.02 37.3502C1069.46 36.9126 1070.05 36.6667 1070.67 36.6667H1096.34C1096.95 36.6667 1097.55 36.9126 1097.99 37.3502C1098.42 37.7878 1098.67 38.3812 1098.67 39.0001V50.6667H1108C1109.53 50.6667 1111.05 50.9685 1112.47 51.5548C1113.88 52.1411 1115.17 53.0005 1116.25 54.0838C1117.34 55.1672 1118.19 56.4533 1118.78 57.8688C1119.37 59.2842 1119.67 60.8013 1119.67 62.3334V71.6667C1119.67 73.1689 1119.19 74.6314 1118.29 75.8382C1117.4 77.045 1116.14 77.9319 1114.7 78.3681C1114.27 79.7797 1113.41 81.0201 1112.24 81.9122C1111.06 82.8043 1109.63 83.3024 1108.16 83.3356C1106.69 83.3687 1105.24 82.9351 1104.02 82.0966C1102.81 81.2582 1101.89 80.0578 1101.4 78.6667H1086.61C1086.12 80.0578 1085.2 81.2582 1083.98 82.0966C1082.77 82.9351 1081.32 83.3687 1079.85 83.3356C1078.37 83.3024 1076.95 82.8043 1075.77 81.9122C1074.6 81.0201 1073.73 79.7797 1073.31 78.3681C1071.87 77.9324 1070.61 77.0456 1069.71 75.8388C1068.82 74.632 1068.34 73.1692 1068.34 71.6667V62.3334H1082.34C1082.95 62.3334 1083.55 62.0876 1083.99 61.65C1084.42 61.2124 1084.67 60.6189 1084.67 60.0001C1084.67 59.3812 1084.42 58.7878 1083.99 58.3502C1083.55 57.9126 1082.95 57.6667 1082.34 57.6667H1068.34V53.0001H1077.67C1078.29 53.0001 1078.88 52.7542 1079.32 52.3167C1079.76 51.8791 1080 51.2856 1080 50.6667C1080 50.0479 1079.76 49.4544 1079.32 49.0168C1078.88 48.5792 1078.29 48.3334 1077.67 48.3334H1068.34V39.0001ZM1098.67 74.0001H1101.4C1101.86 72.6945 1102.7 71.555 1103.81 70.7258C1104.92 69.8966 1106.25 69.4149 1107.63 69.3417C1109.01 69.2686 1110.39 69.6071 1111.58 70.3146C1112.77 71.0221 1113.72 72.0668 1114.32 73.3164C1114.76 72.8789 1115 72.2855 1115 71.6667V62.3334C1115 60.4769 1114.27 58.6964 1112.95 57.3837C1111.64 56.0709 1109.86 55.3334 1108 55.3334H1098.67V74.0001ZM1082.34 76.3334C1082.34 75.7146 1082.09 75.1211 1081.65 74.6835C1081.21 74.2459 1080.62 74.0001 1080 74.0001C1079.38 74.0001 1078.79 74.2459 1078.35 74.6835C1077.92 75.1211 1077.67 75.7146 1077.67 76.3334C1077.67 76.9523 1077.92 77.5457 1078.35 77.9833C1078.79 78.4209 1079.38 78.6667 1080 78.6667C1080.62 78.6667 1081.21 78.4209 1081.65 77.9833C1082.09 77.5457 1082.34 76.9523 1082.34 76.3334ZM1106.35 74.6837C1105.92 75.1212 1105.67 75.7146 1105.67 76.3334C1105.67 76.8732 1105.86 77.3964 1106.2 77.8138C1106.54 78.2312 1107.02 78.5169 1107.55 78.6223C1108.08 78.7277 1108.63 78.6463 1109.1 78.3919C1109.58 78.1376 1109.95 77.7259 1110.16 77.2272C1110.36 76.7285 1110.39 76.1736 1110.24 75.657C1110.08 75.1404 1109.75 74.694 1109.3 74.394C1108.85 74.094 1108.31 73.959 1107.77 74.0118C1107.24 74.0646 1106.73 74.3021 1106.35 74.6837Z" fill="#0096E9"/>
<path d="M0.00390625 130L1240 131" stroke="#0096E9" stroke-width="6"/>
<defs>
<clipPath id="clip0_1062_1305">
<rect width="56" height="56" fill="white" transform="translate(436.004 32)"/>
</clipPath>
</defs>
</svg>
