<svg width="18" height="18" viewBox="0 0 18 18" fill="none" xmlns="http://www.w3.org/2000/svg">
<g clip-path="url(#clip0_1651_1339)">
<path d="M16.7443 13.14C16.7092 13.0153 16.627 12.9091 16.515 12.8438C16.4031 12.7785 16.2702 12.7592 16.1443 12.79L14.8993 13.125C15.5806 12.1208 15.9937 10.9589 16.0993 9.75001C16.2015 8.61896 16.0361 7.47974 15.6165 6.42441C15.197 5.36909 14.5351 4.42725 13.6843 3.67501C13.586 3.59367 13.4602 3.55301 13.3329 3.56138C13.2055 3.56975 13.0862 3.6265 12.9993 3.72001C12.9119 3.81952 12.8676 3.94964 12.876 4.08182C12.8845 4.21399 12.945 4.33742 13.0443 4.42501C13.7774 5.07213 14.3478 5.88286 14.7092 6.7915C15.0706 7.70015 15.2128 8.68115 15.1243 9.65501C15.0385 10.6807 14.6945 11.668 14.1243 12.525L13.9993 11.27C14.0088 11.1962 14.0016 11.1211 13.9783 11.0504C13.955 10.9797 13.9162 10.915 13.8648 10.8612C13.8133 10.8074 13.7505 10.7657 13.6809 10.7393C13.6113 10.7129 13.5367 10.7023 13.4625 10.7084C13.3883 10.7145 13.3163 10.7371 13.252 10.7745C13.1876 10.8119 13.1324 10.8633 13.0904 10.9247C13.0485 10.9862 13.0207 11.0563 13.0093 11.1299C12.9979 11.2035 13.003 11.2787 13.0243 11.35L13.2743 14.57L16.3993 13.74C16.5231 13.7038 16.6281 13.6212 16.6924 13.5094C16.7567 13.3975 16.7753 13.2652 16.7443 13.14Z" fill="black"/>
<path d="M2.15623 8.54006C2.22297 8.5822 2.29801 8.60949 2.37623 8.62006C2.50672 8.63718 2.6387 8.60215 2.74353 8.52259C2.84837 8.44303 2.91761 8.32534 2.93623 8.19506C3.14283 6.66963 3.91806 5.27856 5.10668 4.30041C6.2953 3.32225 7.80956 2.82923 9.34623 2.92006L8.22623 3.68506C8.14699 3.74476 8.08729 3.82668 8.05475 3.92041C8.02221 4.01414 8.01828 4.11543 8.04348 4.21139C8.06868 4.30736 8.12186 4.39366 8.19625 4.45931C8.27064 4.52496 8.36288 4.56699 8.46123 4.58006C8.57388 4.59036 8.68669 4.56215 8.78123 4.50006L11.4462 2.67006L9.16623 0.380058C9.12566 0.317889 9.07175 0.265534 9.00842 0.226795C8.9451 0.188056 8.87394 0.163905 8.80011 0.156095C8.72629 0.148285 8.65165 0.157012 8.58162 0.181643C8.51159 0.206273 8.44792 0.246189 8.39524 0.298493C8.34255 0.350796 8.30218 0.414175 8.27704 0.484027C8.25191 0.553879 8.24264 0.628452 8.24992 0.702331C8.2572 0.776211 8.28083 0.847543 8.31911 0.911148C8.35739 0.974754 8.40936 1.02904 8.47123 1.07006L9.32123 1.92006C7.54665 1.83521 5.80473 2.41874 4.43937 3.55546C3.07401 4.69218 2.18442 6.29949 1.94623 8.06006C1.93341 8.15166 1.94625 8.24503 1.98333 8.32977C2.0204 8.41451 2.08026 8.4873 2.15623 8.54006Z" fill="black"/>
<path d="M10.8658 14.965C10.085 15.2144 9.26143 15.3012 8.44581 15.22C7.45249 15.1226 6.49779 14.785 5.66414 14.2362C4.83048 13.6874 4.14292 12.9439 3.66081 12.07L4.90581 12.535C5.02057 12.5549 5.13869 12.5341 5.23976 12.4762C5.34083 12.4183 5.41852 12.327 5.45942 12.2179C5.50032 12.1089 5.50186 11.9889 5.46377 11.8789C5.42569 11.7688 5.35037 11.6755 5.25081 11.615L2.95581 10.765L2.22081 10.5L1.66581 13.675C1.64657 13.8019 1.67685 13.9313 1.75037 14.0365C1.8239 14.1416 1.93505 14.2145 2.06081 14.24H2.14581C2.26349 14.2421 2.37815 14.2027 2.46961 14.1286C2.56107 14.0545 2.62347 13.9506 2.64581 13.835L2.85581 12.635C3.42132 13.6256 4.21565 14.4666 5.17245 15.0876C6.12925 15.7087 7.22075 16.0918 8.35581 16.205C9.30479 16.2992 10.263 16.1971 11.1708 15.905C11.2864 15.8571 11.3799 15.7677 11.4327 15.6543C11.4856 15.5409 11.494 15.4118 11.4563 15.2925C11.4186 15.1732 11.3376 15.0723 11.2292 15.0098C11.1208 14.9474 10.9929 14.9278 10.8708 14.955L10.8658 14.965Z" fill="black"/>
<path d="M11 6.5H7C6.86739 6.5 6.74021 6.55268 6.64645 6.64645C6.55268 6.74021 6.5 6.86739 6.5 7V11C6.5 11.1326 6.55268 11.2598 6.64645 11.3536C6.74021 11.4473 6.86739 11.5 7 11.5H11C11.1326 11.5 11.2598 11.4473 11.3536 11.3536C11.4473 11.2598 11.5 11.1326 11.5 11V7C11.5 6.86739 11.4473 6.74021 11.3536 6.64645C11.2598 6.55268 11.1326 6.5 11 6.5ZM10.5 10.5H7.5V7.5H10.5V10.5Z" fill="black"/>
</g>
<defs>
<clipPath id="clip0_1651_1339">
<rect width="18" height="18" fill="white"/>
</clipPath>
</defs>
</svg>
