<svg width="128" height="24" viewBox="0 0 128 24" fill="none" xmlns="http://www.w3.org/2000/svg">
<path d="M4.59 24L6.54 15.1263L0 9.15789L8.64 8.36842L12 0L15.36 8.36842L24 9.15789L17.46 15.1263L19.41 24L12 19.2947L4.59 24Z" fill="#FACC15"/>
<path d="M30.59 24L32.54 15.1263L26 9.15789L34.64 8.36842L38 0L41.36 8.36842L50 9.15789L43.46 15.1263L45.41 24L38 19.2947L30.59 24Z" fill="#FACC15"/>
<path d="M56.59 24L58.54 15.1263L52 9.15789L60.64 8.36842L64 0L67.36 8.36842L76 9.15789L69.46 15.1263L71.41 24L64 19.2947L56.59 24Z" fill="#FACC15"/>
<path d="M82.59 24L84.54 15.1263L78 9.15789L86.64 8.36842L90 0L93.36 8.36842L102 9.15789L95.46 15.1263L97.41 24L90 19.2947L82.59 24Z" fill="#FACC15"/>
<path d="M108.59 24L110.54 15.1263L104 9.15789L112.64 8.36842L116 0L119.36 8.36842L128 9.15789L121.46 15.1263L123.41 24L116 19.2947L108.59 24Z" fill="#FACC15"/>
</svg>
