<svg width="71" height="359" viewBox="0 0 71 359" fill="none" xmlns="http://www.w3.org/2000/svg">
<circle cx="22.5304" cy="38.0784" r="21.6292" stroke="#0096E9" stroke-width="1.80243"/>
<path d="M30.1918 17.3504C30.1918 15.6773 29.3847 14.0727 27.9481 12.8896C26.5115 11.7065 24.5631 11.0419 22.5314 11.0419C20.4998 11.0419 18.5513 11.7065 17.1148 12.8896C15.6782 14.0727 14.8711 15.6773 14.8711 17.3504C14.8711 17.3504 18.6247 16.5485 22.5314 16.5485C26.4382 16.5485 30.1918 17.3504 30.1918 17.3504Z" fill="#0096E9"/>
<path fill-rule="evenodd" clip-rule="evenodd" d="M22.7557 28.6155C22.9132 28.6156 23.0687 28.6511 23.2107 28.7194C23.3526 28.7876 23.4774 28.8869 23.5758 29.0098L27.7815 34.2669C27.873 34.374 27.942 34.4984 27.9844 34.6327C28.0269 34.767 28.0419 34.9084 28.0287 35.0486C28.0154 35.1888 27.9741 35.325 27.9073 35.4489C27.8404 35.5729 27.7493 35.6821 27.6394 35.7702C27.5295 35.8582 27.403 35.9233 27.2675 35.9616C27.1319 35.9998 26.9901 36.0105 26.8503 35.9928C26.7106 35.9752 26.5758 35.9297 26.4541 35.859C26.3323 35.7883 26.2259 35.6938 26.1413 35.5812L23.8072 32.6635V40.1811C23.8072 40.46 23.6964 40.7274 23.4992 40.9246C23.302 41.1218 23.0346 41.2326 22.7557 41.2326C22.4769 41.2326 22.2095 41.1218 22.0123 40.9246C21.8151 40.7274 21.7043 40.46 21.7043 40.1811V32.6635L19.3702 35.5822C19.2856 35.6948 19.1792 35.7893 19.0574 35.86C18.9356 35.9307 18.8009 35.9762 18.6611 35.9939C18.5214 36.0115 18.3796 36.0009 18.244 35.9626C18.1085 35.9244 17.982 35.8593 17.8721 35.7712C17.7622 35.6832 17.6711 35.5739 17.6042 35.45C17.5373 35.326 17.496 35.1899 17.4828 35.0497C17.4695 34.9095 17.4846 34.768 17.527 34.6337C17.5695 34.4995 17.6385 34.3751 17.73 34.268L21.9356 29.0109C22.034 28.8877 22.1587 28.7883 22.3007 28.7198C22.4426 28.6514 22.5982 28.6158 22.7557 28.6155ZM19.6015 40.1811V39.1297H15.3958C14.8381 39.1297 14.3032 39.3513 13.9089 39.7456C13.5145 40.14 13.293 40.6749 13.293 41.2326V45.4382C13.293 45.9959 13.5145 46.5308 13.9089 46.9252C14.3032 47.3195 14.8381 47.5411 15.3958 47.5411H30.1157C30.6734 47.5411 31.2082 47.3195 31.6026 46.9252C31.997 46.5308 32.2185 45.9959 32.2185 45.4382V41.2326C32.2185 40.6749 31.997 40.14 31.6026 39.7456C31.2082 39.3513 30.6734 39.1297 30.1157 39.1297H25.91V40.1811C25.91 41.0177 25.5777 41.82 24.9861 42.4115C24.3946 43.0031 23.5923 43.3354 22.7557 43.3354C21.9192 43.3354 21.1169 43.0031 20.5253 42.4115C19.9338 41.82 19.6015 41.0177 19.6015 40.1811ZM28.0128 42.284C27.734 42.284 27.4665 42.3948 27.2694 42.5919C27.0722 42.7891 26.9614 43.0565 26.9614 43.3354C26.9614 43.6143 27.0722 43.8817 27.2694 44.0789C27.4665 44.276 27.734 44.3868 28.0128 44.3868H28.0233C28.3022 44.3868 28.5696 44.276 28.7668 44.0789C28.964 43.8817 29.0748 43.6143 29.0748 43.3354C29.0748 43.0565 28.964 42.7891 28.7668 42.5919C28.5696 42.3948 28.3022 42.284 28.0233 42.284H28.0128Z" fill="#0096E9"/>
<circle cx="22.5304" cy="133.861" r="21.6292" stroke="#0096E9" stroke-width="1.80243"/>
<path d="M30.1918 113.133C30.1918 111.46 29.3847 109.856 27.9481 108.673C26.5115 107.49 24.5631 106.825 22.5314 106.825C20.4998 106.825 18.5513 107.49 17.1148 108.673C15.6782 109.856 14.8711 111.46 14.8711 113.133C14.8711 113.133 18.6247 112.332 22.5314 112.332C26.4382 112.332 30.1918 113.133 30.1918 113.133Z" fill="#0096E9"/>
<g clip-path="url(#clip0_1164_1445)">
<path d="M23.2023 122.821C19.6626 122.821 16.8281 124.635 14.7647 126.794C12.7144 128.938 11.3432 131.496 10.6905 133.255C10.5459 133.645 10.5459 134.078 10.6905 134.468C11.3432 136.227 12.7144 138.79 14.7647 140.929C16.8281 143.083 19.6626 144.901 23.2023 144.901C26.7421 144.901 29.5766 143.088 31.64 140.929C33.6902 138.785 35.0615 136.227 35.7142 134.468C35.8588 134.078 35.8588 133.645 35.7142 133.255C35.0615 131.496 33.6902 128.933 31.64 126.794C29.5766 124.64 26.7421 122.821 23.2023 122.821ZM16.8938 133.861C16.8938 131.979 17.5585 130.174 18.7416 128.843C19.9246 127.512 21.5292 126.764 23.2023 126.764C24.8755 126.764 26.4801 127.512 27.6631 128.843C28.8462 130.174 29.5109 131.979 29.5109 133.861C29.5109 135.744 28.8462 137.549 27.6631 138.88C26.4801 140.211 24.8755 140.958 23.2023 140.958C21.5292 140.958 19.9246 140.211 18.7416 138.88C17.5585 137.549 16.8938 135.744 16.8938 133.861ZM23.2023 130.707C23.2023 132.447 21.945 133.861 20.3986 133.861C19.8948 133.861 19.4216 133.714 19.0098 133.447C18.966 133.985 19.0054 134.537 19.1369 135.084C19.737 137.607 22.0458 139.105 24.2888 138.43C26.5318 137.755 27.8636 135.158 27.2635 132.634C26.729 130.382 24.832 128.948 22.8343 129.145C23.0665 129.603 23.2023 130.135 23.2023 130.707Z" fill="#0096E9"/>
</g>
<circle cx="22.5304" cy="229.645" r="21.6292" stroke="#0096E9" stroke-width="1.80243"/>
<path d="M30.1918 208.917C30.1918 207.243 29.3847 205.639 27.9481 204.456C26.5115 203.273 24.5631 202.608 22.5314 202.608C20.4998 202.608 18.5513 203.273 17.1148 204.456C15.6782 205.639 14.8711 207.243 14.8711 208.917C14.8711 208.917 18.6247 208.115 22.5314 208.115C26.4382 208.115 30.1918 208.917 30.1918 208.917Z" fill="#0096E9"/>
<path d="M29.061 224.387H16.444V220.182H29.061V224.387ZM29.061 230.17C29.3589 230.17 29.6088 230.069 29.8106 229.867C30.0125 229.665 30.1131 229.416 30.1124 229.119C30.1117 228.822 30.0108 228.572 29.8096 228.37C29.6084 228.168 29.3589 228.067 29.061 228.067C28.7631 228.067 28.5135 228.168 28.3124 228.37C28.1112 228.572 28.0103 228.822 28.0096 229.119C28.0089 229.416 28.1098 229.666 28.3124 229.868C28.5149 230.071 28.7645 230.172 29.061 230.17ZM26.9581 237.004V232.799H18.5468V237.004H26.9581ZM29.061 239.107H16.444V234.902H12.2383V228.593C12.2383 227.699 12.5449 226.95 13.1583 226.346C13.7716 225.742 14.5164 225.439 15.3925 225.439H30.1124C31.0061 225.439 31.7554 225.741 32.3603 226.346C32.9653 226.951 33.2674 227.7 33.2667 228.593V234.902H29.061V239.107Z" fill="#0096E9"/>
<circle cx="22.5304" cy="325.428" r="21.6292" stroke="#0096E9" stroke-width="1.80243"/>
<path d="M30.1918 304.7C30.1918 303.027 29.3847 301.422 27.9481 300.239C26.5115 299.056 24.5631 298.391 22.5314 298.391C20.4998 298.391 18.5513 299.056 17.1148 300.239C15.6782 301.422 14.8711 303.027 14.8711 304.7C14.8711 304.7 18.6247 303.898 22.5314 303.898C26.4382 303.898 30.1918 304.7 30.1918 304.7Z" fill="#0096E9"/>
<path fill-rule="evenodd" clip-rule="evenodd" d="M11.6406 315.965C11.6406 315.686 11.7514 315.419 11.9486 315.221C12.1458 315.024 12.4132 314.913 12.692 314.913H24.2577C24.5365 314.913 24.8039 315.024 25.0011 315.221C25.1983 315.419 25.3091 315.686 25.3091 315.965V321.222H29.5147C30.2051 321.222 30.8887 321.358 31.5266 321.622C32.1644 321.886 32.7439 322.274 33.2321 322.762C33.7202 323.25 34.1075 323.829 34.3717 324.467C34.6359 325.105 34.7718 325.789 34.7718 326.479V330.685C34.7721 331.362 34.5546 332.021 34.1515 332.564C33.7484 333.108 33.1811 333.508 32.5334 333.704C32.3405 334.341 31.9517 334.899 31.4223 335.301C30.8929 335.703 30.2501 335.928 29.5856 335.943C28.9211 335.958 28.2688 335.762 27.7219 335.385C27.175 335.007 26.7615 334.466 26.5403 333.839H19.8732C19.652 334.466 19.2385 335.007 18.6916 335.385C18.1447 335.762 17.4925 335.958 16.8279 335.943C16.1634 335.928 15.5206 335.703 14.9912 335.301C14.4618 334.899 14.073 334.341 13.8801 333.704C13.2322 333.508 12.6647 333.108 12.2614 332.565C11.858 332.021 11.6404 331.362 11.6406 330.685V326.479H17.9491C18.228 326.479 18.4954 326.368 18.6926 326.171C18.8898 325.974 19.0006 325.706 19.0006 325.428C19.0006 325.149 18.8898 324.881 18.6926 324.684C18.4954 324.487 18.228 324.376 17.9491 324.376H11.6406V322.273H15.8463C16.1252 322.273 16.3926 322.163 16.5898 321.965C16.7869 321.768 16.8977 321.501 16.8977 321.222C16.8977 320.943 16.7869 320.676 16.5898 320.479C16.3926 320.281 16.1252 320.171 15.8463 320.171H11.6406V315.965ZM25.3091 331.736H26.5403C26.7481 331.148 27.1258 330.634 27.6255 330.261C28.1253 329.887 28.7246 329.67 29.3477 329.637C29.9708 329.604 30.5896 329.757 31.126 330.075C31.6624 330.394 32.0921 330.865 32.3609 331.428C32.5581 331.231 32.6689 330.964 32.669 330.685V326.479C32.669 325.642 32.3367 324.84 31.7451 324.249C31.1536 323.657 30.3513 323.325 29.5147 323.325H25.3091V331.736ZM17.9491 332.788C17.9491 332.509 17.8384 332.241 17.6412 332.044C17.444 331.847 17.1766 331.736 16.8977 331.736C16.6189 331.736 16.3514 331.847 16.1543 332.044C15.9571 332.241 15.8463 332.509 15.8463 332.788C15.8463 333.066 15.9571 333.334 16.1543 333.531C16.3514 333.728 16.6189 333.839 16.8977 333.839C17.1766 333.839 17.444 333.728 17.6412 333.531C17.8384 333.334 17.9491 333.066 17.9491 332.788ZM28.7714 332.044C28.5742 332.241 28.4634 332.509 28.4633 332.788C28.4633 333.031 28.5476 333.267 28.7019 333.455C28.8561 333.643 29.0709 333.771 29.3094 333.819C29.548 333.866 29.7957 333.83 30.0102 333.715C30.2248 333.601 30.3929 333.415 30.4861 333.19C30.5792 332.966 30.5915 332.716 30.5209 332.483C30.4504 332.25 30.3013 332.049 30.099 331.914C29.8968 331.778 29.6539 331.718 29.4119 331.741C29.1698 331.765 28.9434 331.872 28.7714 332.044Z" fill="#0096E9"/>
<path d="M65.0625 0L65.0625 359" stroke="#0096E9" stroke-width="6"/>
<defs>
<clipPath id="clip0_1164_1445">
<rect width="25.2341" height="25.2341" fill="white" transform="translate(10.5898 121.244)"/>
</clipPath>
</defs>
</svg>
